DroidSansFallback.ufo
<glyph name="kiyeokCho-ko" format="2">
  <advance width="256" height="256"/>
  <unicode hex="1100"/>
  <unicode hex="11A8"/>
  <unicode hex="3131"/>
  <note>
uni11A8
</note>
  <outline>
    <contour>
      <point x="43" y="136" type="line"/>
      <point x="185" y="136" type="line"/>
      <point x="185" y="27" type="line"/>
      <point x="205" y="27" type="line"/>
      <point x="205" y="155" type="line"/>
      <point x="43" y="155" type="line"/>
    </contour>
  </outline>
</glyph>
<glyph name="ssangkiyeokCho-ko" format="2">
  <advance width="256" height="256"/>
  <unicode hex="1101"/>
  <unicode hex="11A9"/>
  <unicode hex="3132"/>
  <note>
uni11A9
</note>
  <outline>
    <contour>
      <point x="33" y="135" type="line"/>
      <point x="101" y="135" type="line"/>
      <point x="101" y="27" type="line"/>
      <point x="121" y="27" type="line"/>
      <point x="121" y="154" type="line"/>
      <point x="33" y="154" type="line"/>
    </contour>
    <contour>
      <point x="135" y="135" type="line"/>
      <point x="197" y="135" type="line"/>
      <point x="197" y="27" type="line"/>
      <point x="217" y="27" type="line"/>
      <point x="217" y="154" type="line"/>
      <point x="135" y="154" type="line"/>
    </contour>
  </outline>
</glyph>
<glyph name="nieunCho-ko" format="2">
  <advance width="256" height="256"/>
  <unicode hex="1102"/>
  <unicode hex="11AB"/>
  <unicode hex="3134"/>
  <note>
uni3134
</note>
  <outline>
    <contour>
      <point x="50" y="29" type="line"/>
      <point x="209" y="29" type="line"/>
      <point x="209" y="48" type="line"/>
      <point x="70" y="48" type="line"/>
      <point x="70" y="153" type="line"/>
      <point x="50" y="153" type="line"/>
    </contour>
  </outline>
</glyph>
<glyph name="tikeutCho-ko" format="2">
  <advance width="256" height="256"/>
  <unicode hex="1103"/>
  <unicode hex="11AE"/>
  <unicode hex="3137"/>
  <note>
uni11AE
</note>
  <outline>
    <contour>
      <point x="45" y="155" type="line"/>
      <point x="45" y="29" type="line"/>
      <point x="203" y="29" type="line"/>
      <point x="203" y="48" type="line"/>
      <point x="65" y="48" type="line"/>
      <point x="65" y="136" type="line"/>
      <point x="198" y="136" type="line"/>
      <point x="198" y="155" type="line"/>
    </contour>
  </outline>
</glyph>
<glyph name="ssangtikeutCho-ko" format="2">
  <advance width="256" height="256"/>
  <unicode hex="1104"/>
  <unicode hex="3138"/>
  <note>
uni1104
</note>
  <outline>
    <contour>
      <point x="133" y="155" type="line"/>
      <point x="133" y="29" type="line"/>
      <point x="227" y="29" type="line"/>
      <point x="227" y="48" type="line"/>
      <point x="154" y="48" type="line"/>
      <point x="154" y="136" type="line"/>
      <point x="222" y="136" type="line"/>
      <point x="222" y="155" type="line"/>
    </contour>
    <contour>
      <point x="37" y="30" type="line"/>
      <point x="86" y="30"/>
      <point x="130" y="39" type="qcurve"/>
      <point x="126" y="58" type="line"/>
      <point x="95" y="49"/>
      <point x="57" y="49" type="qcurve"/>
      <point x="57" y="135" type="line"/>
      <point x="120" y="135" type="line"/>
      <point x="120" y="154" type="line"/>
      <point x="37" y="154" type="line"/>
    </contour>
  </outline>
</glyph>
<glyph name="rieulCho-ko" format="2">
  <advance width="256" height="256"/>
  <unicode hex="1105"/>
  <unicode hex="11AF"/>
  <unicode hex="3139"/>
  <note>
uni11AF
</note>
  <outline>
    <contour>
      <point x="51" y="135" type="line"/>
      <point x="185" y="135" type="line"/>
      <point x="185" y="105" type="line"/>
      <point x="50" y="105" type="line"/>
      <point x="50" y="29" type="line"/>
      <point x="208" y="29" type="line"/>
      <point x="208" y="48" type="line"/>
      <point x="70" y="48" type="line"/>
      <point x="70" y="86" type="line"/>
      <point x="205" y="86" type="line"/>
      <point x="205" y="154" type="line"/>
      <point x="51" y="154" type="line"/>
    </contour>
  </outline>
</glyph>
<glyph name="mieumCho-ko" format="2">
  <advance width="256" height="256"/>
  <unicode hex="1106"/>
  <unicode hex="11B7"/>
  <unicode hex="3141"/>
  <note>
uni11B7
</note>
  <outline>
    <contour>
      <point x="49" y="155" type="line"/>
      <point x="49" y="30" type="line"/>
      <point x="69" y="30" type="line"/>
      <point x="69" y="36" type="line"/>
      <point x="184" y="36" type="line"/>
      <point x="184" y="30" type="line"/>
      <point x="204" y="30" type="line"/>
      <point x="204" y="155" type="line"/>
    </contour>
    <contour>
      <point x="69" y="136" type="line"/>
      <point x="184" y="136" type="line"/>
      <point x="184" y="55" type="line"/>
      <point x="69" y="55" type="line"/>
    </contour>
  </outline>
</glyph>
<glyph name="pieupCho-ko" format="2">
  <advance width="256" height="256"/>
  <unicode hex="1107"/>
  <unicode hex="11B8"/>
  <unicode hex="3142"/>
  <note>
uni11B8
</note>
  <outline>
    <contour>
      <point x="51" y="30" type="line"/>
      <point x="71" y="30" type="line"/>
      <point x="71" y="36" type="line"/>
      <point x="184" y="36" type="line"/>
      <point x="184" y="30" type="line"/>
      <point x="204" y="30" type="line"/>
      <point x="204" y="153" type="line"/>
      <point x="184" y="153" type="line"/>
      <point x="184" y="115" type="line"/>
      <point x="71" y="115" type="line"/>
      <point x="71" y="153" type="line"/>
      <point x="51" y="153" type="line"/>
    </contour>
    <contour>
      <point x="71" y="96" type="line"/>
      <point x="184" y="96" type="line"/>
      <point x="184" y="55" type="line"/>
      <point x="71" y="55" type="line"/>
    </contour>
  </outline>
</glyph>
<glyph name="ssangpieupCho-ko" format="2">
  <advance width="256" height="256"/>
  <unicode hex="1108"/>
  <unicode hex="3143"/>
  <note>
uni1108
</note>
  <outline>
    <contour>
      <point x="38" y="28" type="line"/>
      <point x="58" y="28" type="line"/>
      <point x="58" y="33" type="line"/>
      <point x="107" y="33" type="line"/>
      <point x="107" y="28" type="line"/>
      <point x="127" y="28" type="line"/>
      <point x="127" y="153" type="line"/>
      <point x="107" y="153" type="line"/>
      <point x="107" y="115" type="line"/>
      <point x="58" y="115" type="line"/>
      <point x="58" y="153" type="line"/>
      <point x="38" y="153" type="line"/>
    </contour>
    <contour>
      <point x="58" y="96" type="line"/>
      <point x="107" y="96" type="line"/>
      <point x="107" y="52" type="line"/>
      <point x="58" y="52" type="line"/>
    </contour>
    <contour>
      <point x="132" y="28" type="line"/>
      <point x="152" y="28" type="line"/>
      <point x="152" y="33" type="line"/>
      <point x="200" y="33" type="line"/>
      <point x="200" y="28" type="line"/>
      <point x="220" y="28" type="line"/>
      <point x="220" y="153" type="line"/>
      <point x="200" y="153" type="line"/>
      <point x="200" y="115" type="line"/>
      <point x="152" y="115" type="line"/>
      <point x="152" y="153" type="line"/>
      <point x="132" y="153" type="line"/>
    </contour>
    <contour>
      <point x="152" y="96" type="line"/>
      <point x="200" y="96" type="line"/>
      <point x="200" y="52" type="line"/>
      <point x="152" y="52" type="line"/>
    </contour>
  </outline>
</glyph>
<glyph name="siosCho-ko" format="2">
  <advance width="256" height="256"/>
  <unicode hex="1109"/>
  <unicode hex="11BA"/>
  <unicode hex="3145"/>
  <note>
uni11BA
</note>
  <outline>
    <contour>
      <point x="150" y="54"/>
      <point x="206" y="29" type="qcurve"/>
      <point x="217" y="47" type="line"/>
      <point x="144" y="71"/>
      <point x="144" y="158" type="qcurve"/>
      <point x="124" y="158" type="line"/>
      <point x="124" y="144" type="line" smooth="yes"/>
      <point x="122" y="110"/>
      <point x="75" y="56"/>
      <point x="34" y="44" type="qcurve"/>
      <point x="45" y="26" type="line"/>
      <point x="114" y="54"/>
      <point x="134" y="104" type="qcurve"/>
    </contour>
  </outline>
</glyph>
<glyph name="ssangsiosCho-ko" format="2">
  <advance width="256" height="256"/>
  <unicode hex="110A"/>
  <unicode hex="11BB"/>
  <unicode hex="3146"/>
  <note>
uni110A
</note>
  <outline>
    <contour>
      <point x="186" y="49"/>
      <point x="225" y="26" type="qcurve"/>
      <point x="237" y="42" type="line"/>
      <point x="186" y="66"/>
      <point x="186" y="126" type="qcurve" smooth="yes"/>
      <point x="186" y="158" type="line"/>
      <point x="166" y="158" type="line"/>
      <point x="166" y="127" type="line"/>
      <point x="161" y="68"/>
      <point x="112" y="43" type="qcurve"/>
      <point x="124" y="28" type="line"/>
      <point x="165" y="54"/>
      <point x="176" y="94" type="qcurve"/>
    </contour>
    <contour>
      <point x="86" y="65"/>
      <point x="111" y="48" type="qcurve"/>
      <point x="124" y="64" type="line"/>
      <point x="91" y="83"/>
      <point x="91" y="131" type="qcurve" smooth="yes"/>
      <point x="91" y="157" type="line"/>
      <point x="70" y="157" type="line"/>
      <point x="70" y="131" type="line" smooth="yes"/>
      <point x="66" y="70"/>
      <point x="23" y="44" type="qcurve"/>
      <point x="36" y="28" type="line"/>
      <point x="71" y="55"/>
      <point x="80" y="96" type="qcurve"/>
    </contour>
  </outline>
</glyph>
<glyph name="ieungCho-ko" format="2">
  <advance width="256" height="256"/>
  <unicode hex="110B"/>
  <unicode hex="11BC"/>
  <unicode hex="3147"/>
  <note>
uni11BC
</note>
  <outline>
    <contour>
      <point x="55" y="149"/>
      <point x="55" y="89" type="qcurve" smooth="yes"/>
      <point x="55" y="24"/>
      <point x="129" y="24" type="qcurve" smooth="yes"/>
      <point x="202" y="24"/>
      <point x="202" y="89" type="qcurve" smooth="yes"/>
      <point x="202" y="149"/>
      <point x="138" y="155" type="qcurve"/>
      <point x="138" y="171" type="line"/>
      <point x="119" y="171" type="line"/>
      <point x="119" y="155" type="line"/>
    </contour>
    <contour>
      <point x="182" y="137"/>
      <point x="182" y="89" type="qcurve" smooth="yes"/>
      <point x="182" y="42"/>
      <point x="129" y="42" type="qcurve" smooth="yes"/>
      <point x="75" y="42"/>
      <point x="75" y="89" type="qcurve" smooth="yes"/>
      <point x="75" y="137"/>
      <point x="129" y="137" type="qcurve" smooth="yes"/>
    </contour>
  </outline>
</glyph>
<glyph name="cieucCho-ko" format="2">
  <advance width="256" height="256"/>
  <unicode hex="110C"/>
  <unicode hex="11BD"/>
  <unicode hex="3148"/>
  <note>
uni11BD
</note>
  <outline>
    <contour>
      <point x="41" y="155" type="line"/>
      <point x="41" y="136" type="line"/>
      <point x="120" y="136" type="line"/>
      <point x="115" y="69"/>
      <point x="35" y="45" type="qcurve"/>
      <point x="46" y="27" type="line"/>
      <point x="111" y="55"/>
      <point x="130" y="102" type="qcurve"/>
      <point x="148" y="52"/>
      <point x="210" y="27" type="qcurve"/>
      <point x="222" y="45" type="line"/>
      <point x="143" y="68"/>
      <point x="139" y="136" type="qcurve"/>
      <point x="217" y="136" type="line"/>
      <point x="217" y="155" type="line"/>
    </contour>
  </outline>
</glyph>
<glyph name="ssangcieucCho-ko" format="2">
  <advance width="256" height="256"/>
  <unicode hex="110D"/>
  <unicode hex="3149"/>
  <note>
uni110D
</note>
  <outline>
    <contour>
      <point x="134" y="155" type="line"/>
      <point x="134" y="136" type="line"/>
      <point x="168" y="136" type="line"/>
      <point x="168" y="122" type="line" smooth="yes"/>
      <point x="165" y="63"/>
      <point x="122" y="43" type="qcurve"/>
      <point x="133" y="25" type="line"/>
      <point x="168" y="48"/>
      <point x="177" y="88" type="qcurve"/>
      <point x="188" y="46"/>
      <point x="224" y="25" type="qcurve"/>
      <point x="235" y="43" type="line"/>
      <point x="187" y="63"/>
      <point x="187" y="122" type="qcurve" smooth="yes"/>
      <point x="187" y="136" type="line"/>
      <point x="228" y="136" type="line"/>
      <point x="228" y="155" type="line"/>
    </contour>
    <contour>
      <point x="30" y="155" type="line"/>
      <point x="30" y="136" type="line"/>
      <point x="66" y="136" type="line"/>
      <point x="66" y="125" type="line" smooth="yes"/>
      <point x="64" y="66"/>
      <point x="21" y="46" type="qcurve"/>
      <point x="32" y="29" type="line"/>
      <point x="66" y="51"/>
      <point x="76" y="91" type="qcurve"/>
      <point x="84" y="56"/>
      <point x="112" y="39" type="qcurve"/>
      <point x="123" y="57" type="line"/>
      <point x="85" y="77"/>
      <point x="85" y="125" type="qcurve" smooth="yes"/>
      <point x="85" y="136" type="line"/>
      <point x="124" y="136" type="line"/>
      <point x="124" y="155" type="line"/>
    </contour>
  </outline>
</glyph>
<glyph name="chieuchCho-ko" format="2">
  <advance width="256" height="256"/>
  <unicode hex="110E"/>
  <unicode hex="11BE"/>
  <unicode hex="314A"/>
  <note>
uni110E
</note>
  <outline>
    <contour>
      <point x="88" y="170" type="line"/>
      <point x="88" y="151" type="line"/>
      <point x="171" y="151" type="line"/>
      <point x="171" y="170" type="line"/>
    </contour>
    <contour>
      <point x="41" y="132" type="line"/>
      <point x="41" y="113" type="line"/>
      <point x="120" y="113" type="line"/>
      <point x="118" y="91"/>
      <point x="74" y="53"/>
      <point x="35" y="45" type="qcurve"/>
      <point x="46" y="27" type="line"/>
      <point x="112" y="49"/>
      <point x="130" y="85" type="qcurve"/>
      <point x="147" y="47"/>
      <point x="210" y="27" type="qcurve"/>
      <point x="222" y="45" type="line"/>
      <point x="144" y="63"/>
      <point x="140" y="113" type="qcurve"/>
      <point x="217" y="113" type="line"/>
      <point x="217" y="132" type="line"/>
    </contour>
  </outline>
</glyph>
<glyph name="khieukhCho-ko" format="2">
  <advance width="256" height="256"/>
  <unicode hex="110F"/>
  <unicode hex="11BF"/>
  <unicode hex="314B"/>
  <note>
uni110F
</note>
  <outline>
    <contour>
      <point x="45" y="136" type="line"/>
      <point x="185" y="136" type="line"/>
      <point x="185" y="106" type="line"/>
      <point x="45" y="90" type="line"/>
      <point x="47" y="71" type="line"/>
      <point x="185" y="91" type="line"/>
      <point x="185" y="30" type="line"/>
      <point x="205" y="30" type="line"/>
      <point x="205" y="155" type="line"/>
      <point x="45" y="155" type="line"/>
    </contour>
  </outline>
</glyph>
<glyph name="thieuthCho-ko" format="2">
  <advance width="256" height="256"/>
  <unicode hex="1110"/>
  <unicode hex="11C0"/>
  <unicode hex="314C"/>
  <note>
uni11C0
</note>
  <outline>
    <contour>
      <point x="49" y="154" type="line"/>
      <point x="49" y="29" type="line"/>
      <point x="208" y="29" type="line"/>
      <point x="208" y="48" type="line"/>
      <point x="69" y="48" type="line"/>
      <point x="69" y="86" type="line"/>
      <point x="202" y="86" type="line"/>
      <point x="202" y="104" type="line"/>
      <point x="69" y="104" type="line"/>
      <point x="69" y="135" type="line"/>
      <point x="206" y="135" type="line"/>
      <point x="206" y="154" type="line"/>
    </contour>
  </outline>
</glyph>
<glyph name="phieuphCho-ko" format="2">
  <advance width="256" height="256"/>
  <unicode hex="1111"/>
  <unicode hex="11C1"/>
  <unicode hex="314D"/>
  <note>
uni1111
</note>
  <outline>
    <contour>
      <point x="48" y="155" type="line"/>
      <point x="48" y="136" type="line"/>
      <point x="208" y="136" type="line"/>
      <point x="208" y="155" type="line"/>
    </contour>
    <contour>
      <point x="168" y="48" type="line"/>
      <point x="182" y="127" type="line"/>
      <point x="162" y="127" type="line"/>
      <point x="149" y="48" type="line"/>
      <point x="108" y="48" type="line"/>
      <point x="96" y="127" type="line"/>
      <point x="76" y="127" type="line"/>
      <point x="88" y="48" type="line"/>
      <point x="40" y="48" type="line"/>
      <point x="40" y="29" type="line"/>
      <point x="215" y="29" type="line"/>
      <point x="215" y="48" type="line"/>
    </contour>
  </outline>
</glyph>
<glyph name="hieuhCho-ko" format="2">
  <advance width="256" height="256"/>
  <unicode hex="1112"/>
  <unicode hex="11C2"/>
  <unicode hex="314E"/>
  <note>
uni1112
</note>
  <outline>
    <contour>
      <point x="92" y="169" type="line"/>
      <point x="92" y="150" type="line"/>
      <point x="160" y="150" type="line"/>
      <point x="160" y="169" type="line"/>
    </contour>
    <contour>
      <point x="41" y="134" type="line"/>
      <point x="41" y="115" type="line"/>
      <point x="217" y="115" type="line"/>
      <point x="217" y="134" type="line"/>
    </contour>
    <contour>
      <point x="64" y="92"/>
      <point x="64" y="54" type="qcurve" smooth="yes"/>
      <point x="64" y="12"/>
      <point x="127" y="12" type="qcurve" smooth="yes"/>
      <point x="191" y="12"/>
      <point x="191" y="54" type="qcurve" smooth="yes"/>
      <point x="191" y="92"/>
      <point x="138" y="96" type="qcurve"/>
      <point x="138" y="108" type="line"/>
      <point x="119" y="108" type="line"/>
      <point x="119" y="96" type="line"/>
    </contour>
    <contour>
      <point x="172" y="80"/>
      <point x="172" y="28"/>
      <point x="127" y="28" type="qcurve" smooth="yes"/>
      <point x="83" y="28"/>
      <point x="83" y="80"/>
      <point x="127" y="80" type="qcurve" smooth="yes"/>
    </contour>
  </outline>
</glyph>
<glyph name="ssangnieunCho-ko" format="2">
  <advance width="256" height="256"/>
  <unicode hex="1114"/>
  <unicode hex="11FF"/>
  <unicode hex="3165"/>
  <note>
uni1114
</note>
  <outline>
    <contour>
      <point x="134" y="29" type="line"/>
      <point x="230" y="29" type="line"/>
      <point x="230" y="48" type="line"/>
      <point x="154" y="48" type="line"/>
      <point x="154" y="153" type="line"/>
      <point x="134" y="153" type="line"/>
    </contour>
    <contour>
      <point x="37" y="30" type="line"/>
      <point x="88" y="30"/>
      <point x="128" y="39" type="qcurve"/>
      <point x="126" y="55" type="line"/>
      <point x="92" y="48"/>
      <point x="58" y="48" type="qcurve"/>
      <point x="58" y="153" type="line"/>
      <point x="37" y="153" type="line"/>
    </contour>
  </outline>
</glyph>
<glyph name="nieunTikeutCho-ko" format="2">
  <advance width="256" height="256"/>
  <unicode hex="1115"/>
  <unicode hex="11C6"/>
  <unicode hex="3166"/>
  <note>
uni1115
</note>
  <outline>
    <contour>
      <point x="133" y="154" type="line"/>
      <point x="133" y="29" type="line"/>
      <point x="224" y="29" type="line"/>
      <point x="224" y="48" type="line"/>
      <point x="152" y="48" type="line"/>
      <point x="152" y="135" type="line"/>
      <point x="220" y="135" type="line"/>
      <point x="220" y="154" type="line"/>
    </contour>
    <contour>
      <point x="33" y="30" type="line"/>
      <point x="81" y="30"/>
      <point x="120" y="39" type="qcurve"/>
      <point x="117" y="55" type="line"/>
      <point x="86" y="48"/>
      <point x="53" y="48" type="qcurve"/>
      <point x="53" y="153" type="line"/>
      <point x="33" y="153" type="line"/>
    </contour>
  </outline>
</glyph>
<glyph name="rieulHieuhCho-ko" format="2">
  <advance width="256" height="256"/>
  <unicode hex="111A"/>
  <unicode hex="11B6"/>
  <unicode hex="3140"/>
  <note>
uni3140
</note>
  <outline>
    <contour>
      <point x="145" y="162" type="line"/>
      <point x="145" y="145" type="line"/>
      <point x="200" y="145" type="line"/>
      <point x="200" y="162" type="line"/>
    </contour>
    <contour>
      <point x="35" y="135" type="line"/>
      <point x="91" y="135" type="line"/>
      <point x="91" y="108" type="line"/>
      <point x="34" y="108" type="line"/>
      <point x="34" y="29" type="line"/>
      <point x="120" y="36" type="line"/>
      <point x="116" y="53" type="line"/>
      <point x="54" y="48" type="line"/>
      <point x="54" y="89" type="line"/>
      <point x="112" y="89" type="line"/>
      <point x="112" y="154" type="line"/>
      <point x="35" y="154" type="line"/>
    </contour>
    <contour>
      <point x="115" y="129" type="line"/>
      <point x="115" y="112" type="line"/>
      <point x="234" y="112" type="line"/>
      <point x="234" y="129" type="line"/>
    </contour>
    <contour>
      <point x="148" y="96"/>
      <point x="127" y="74"/>
      <point x="127" y="59" type="qcurve" smooth="yes"/>
      <point x="127" y="21"/>
      <point x="217" y="21"/>
      <point x="217" y="59" type="qcurve" smooth="yes"/>
      <point x="217" y="90"/>
      <point x="183" y="97" type="qcurve"/>
      <point x="183" y="107" type="line"/>
      <point x="165" y="107" type="line"/>
      <point x="165" y="97" type="line"/>
    </contour>
    <contour>
      <point x="198" y="80"/>
      <point x="198" y="59" type="qcurve" smooth="yes"/>
      <point x="198" y="37"/>
      <point x="146" y="37"/>
      <point x="146" y="59" type="qcurve" smooth="yes"/>
      <point x="146" y="80"/>
    </contour>
  </outline>
</glyph>
<glyph name="mieumPieupCho-ko" format="2">
  <advance width="256" height="256"/>
  <unicode hex="111C"/>
  <unicode hex="11DC"/>
  <unicode hex="316E"/>
  <note>
uni316E
</note>
  <outline>
    <contour>
      <point x="152" y="115" type="line"/>
      <point x="152" y="154" type="line"/>
      <point x="132" y="154" type="line"/>
      <point x="132" y="28" type="line"/>
      <point x="152" y="28" type="line"/>
      <point x="152" y="33" type="line"/>
      <point x="199" y="33" type="line"/>
      <point x="199" y="28" type="line"/>
      <point x="219" y="28" type="line"/>
      <point x="219" y="154" type="line"/>
      <point x="199" y="154" type="line"/>
      <point x="199" y="115" type="line"/>
    </contour>
    <contour>
      <point x="152" y="52" type="line"/>
      <point x="152" y="97" type="line"/>
      <point x="199" y="97" type="line"/>
      <point x="199" y="52" type="line"/>
    </contour>
    <contour>
      <point x="35" y="154" type="line"/>
      <point x="35" y="30" type="line"/>
      <point x="55" y="30" type="line"/>
      <point x="55" y="37" type="line"/>
      <point x="101" y="37" type="line"/>
      <point x="101" y="30" type="line"/>
      <point x="121" y="30" type="line"/>
      <point x="121" y="154" type="line"/>
    </contour>
    <contour>
      <point x="55" y="135" type="line"/>
      <point x="101" y="135" type="line"/>
      <point x="101" y="56" type="line"/>
      <point x="55" y="56" type="line"/>
    </contour>
  </outline>
</glyph>
<glyph name="kapyeounmieumCho-ko" format="2">
  <advance width="256" height="256"/>
  <unicode hex="111D"/>
  <unicode hex="11E2"/>
  <unicode hex="3171"/>
  <note>
uni11E2
</note>
  <outline>
    <contour>
      <point x="66" y="191" type="line"/>
      <point x="66" y="106" type="line"/>
      <point x="86" y="106" type="line"/>
      <point x="86" y="111" type="line"/>
      <point x="172" y="111" type="line"/>
      <point x="172" y="106" type="line"/>
      <point x="192" y="106" type="line"/>
      <point x="192" y="191" type="line"/>
    </contour>
    <contour>
      <point x="86" y="172" type="line"/>
      <point x="172" y="172" type="line"/>
      <point x="172" y="130" type="line"/>
      <point x="86" y="130" type="line"/>
    </contour>
    <contour>
      <point x="95" y="84"/>
      <point x="68" y="57"/>
      <point x="68" y="38" type="qcurve" smooth="yes"/>
      <point x="68" y="17"/>
      <point x="100" y="-10"/>
      <point x="128" y="-10" type="qcurve" smooth="yes"/>
      <point x="155" y="-10"/>
      <point x="187" y="17"/>
      <point x="187" y="38" type="qcurve" smooth="yes"/>
      <point x="187" y="57"/>
      <point x="160" y="84"/>
      <point x="137" y="86" type="qcurve"/>
      <point x="137" y="103" type="line"/>
      <point x="118" y="103" type="line"/>
      <point x="118" y="86" type="line"/>
    </contour>
    <contour>
      <point x="167" y="68"/>
      <point x="167" y="8"/>
      <point x="128" y="8" type="qcurve" smooth="yes"/>
      <point x="88" y="8"/>
      <point x="88" y="68"/>
      <point x="128" y="68" type="qcurve" smooth="yes"/>
    </contour>
  </outline>
</glyph>
<glyph name="pieupKiyeokCho-ko" format="2">
  <advance width="256" height="256"/>
  <unicode hex="111E"/>
  <unicode hex="3172"/>
  <note>
uni3172
</note>
  <outline>
    <contour>
      <point x="137" y="135" type="line"/>
      <point x="202" y="135" type="line"/>
      <point x="202" y="27" type="line"/>
      <point x="222" y="27" type="line"/>
      <point x="222" y="154" type="line"/>
      <point x="137" y="154" type="line"/>
    </contour>
    <contour>
      <point x="46" y="115" type="line"/>
      <point x="46" y="153" type="line"/>
      <point x="26" y="153" type="line"/>
      <point x="26" y="27" type="line"/>
      <point x="46" y="27" type="line"/>
      <point x="46" y="34" type="line"/>
      <point x="101" y="34" type="line"/>
      <point x="101" y="27" type="line"/>
      <point x="121" y="27" type="line"/>
      <point x="121" y="153" type="line"/>
      <point x="101" y="153" type="line"/>
      <point x="101" y="115" type="line"/>
    </contour>
    <contour>
      <point x="46" y="53" type="line"/>
      <point x="46" y="97" type="line"/>
      <point x="101" y="97" type="line"/>
      <point x="101" y="53" type="line"/>
    </contour>
  </outline>
</glyph>
<glyph name="pieupTikeutCho-ko" format="2">
  <advance width="256" height="256"/>
  <unicode hex="1120"/>
  <unicode hex="3173"/>
  <note>
uni3173
</note>
  <outline>
    <contour>
      <point x="138" y="154" type="line"/>
      <point x="138" y="29" type="line"/>
      <point x="231" y="29" type="line"/>
      <point x="231" y="48" type="line"/>
      <point x="157" y="48" type="line"/>
      <point x="157" y="135" type="line"/>
      <point x="226" y="135" type="line"/>
      <point x="226" y="154" type="line"/>
    </contour>
    <contour>
      <point x="47" y="115" type="line"/>
      <point x="47" y="153" type="line"/>
      <point x="27" y="153" type="line"/>
      <point x="27" y="27" type="line"/>
      <point x="47" y="27" type="line"/>
      <point x="47" y="34" type="line"/>
      <point x="102" y="34" type="line"/>
      <point x="102" y="27" type="line"/>
      <point x="122" y="27" type="line"/>
      <point x="122" y="153" type="line"/>
      <point x="102" y="153" type="line"/>
      <point x="102" y="115" type="line"/>
    </contour>
    <contour>
      <point x="47" y="53" type="line"/>
      <point x="47" y="97" type="line"/>
      <point x="102" y="97" type="line"/>
      <point x="102" y="53" type="line"/>
    </contour>
  </outline>
</glyph>
<glyph name="pieupSiosCho-ko" format="2">
  <advance width="256" height="256"/>
  <unicode hex="1121"/>
  <unicode hex="11B9"/>
  <unicode hex="3144"/>
  <note>
uni11B9
</note>
  <outline>
    <contour>
      <point x="192" y="49"/>
      <point x="225" y="28" type="qcurve"/>
      <point x="238" y="44" type="line"/>
      <point x="195" y="66"/>
      <point x="195" y="125" type="qcurve" smooth="yes"/>
      <point x="195" y="158" type="line"/>
      <point x="175" y="158" type="line"/>
      <point x="175" y="125" type="line"/>
      <point x="170" y="67"/>
      <point x="128" y="42" type="qcurve"/>
      <point x="140" y="26" type="line"/>
      <point x="174" y="50"/>
      <point x="184" y="87" type="qcurve"/>
    </contour>
    <contour>
      <point x="38" y="28" type="line"/>
      <point x="58" y="28" type="line"/>
      <point x="58" y="33" type="line"/>
      <point x="107" y="33" type="line"/>
      <point x="107" y="28" type="line"/>
      <point x="127" y="28" type="line"/>
      <point x="127" y="153" type="line"/>
      <point x="107" y="153" type="line"/>
      <point x="107" y="115" type="line"/>
      <point x="58" y="115" type="line"/>
      <point x="58" y="153" type="line"/>
      <point x="38" y="153" type="line"/>
    </contour>
    <contour>
      <point x="58" y="96" type="line"/>
      <point x="107" y="96" type="line"/>
      <point x="107" y="52" type="line"/>
      <point x="58" y="52" type="line"/>
    </contour>
  </outline>
</glyph>
<glyph name="pieupSiosTikeutCho-ko" format="2">
  <advance width="256" height="256"/>
  <unicode hex="1123"/>
  <unicode hex="3175"/>
  <note>
uni1123
</note>
  <outline>
    <contour>
      <point x="124" y="51" type="line"/>
      <point x="133" y="80" type="line"/>
      <point x="135" y="87" type="line"/>
      <point x="135" y="75"/>
      <point x="152" y="37"/>
      <point x="162" y="28" type="qcurve"/>
      <point x="175" y="44" type="line"/>
      <point x="145" y="67"/>
      <point x="145" y="124" type="qcurve" smooth="yes"/>
      <point x="145" y="156" type="line"/>
      <point x="125" y="156" type="line"/>
      <point x="125" y="125" type="line" smooth="yes"/>
      <point x="122" y="68"/>
      <point x="95" y="44" type="qcurve"/>
      <point x="108" y="28" type="line"/>
    </contour>
    <contour>
      <point x="44" y="115" type="line"/>
      <point x="44" y="154" type="line"/>
      <point x="24" y="154" type="line"/>
      <point x="24" y="28" type="line"/>
      <point x="44" y="28" type="line"/>
      <point x="44" y="33" type="line"/>
      <point x="73" y="33" type="line"/>
      <point x="73" y="28" type="line"/>
      <point x="92" y="28" type="line"/>
      <point x="92" y="154" type="line"/>
      <point x="73" y="154" type="line"/>
      <point x="73" y="115" type="line"/>
    </contour>
    <contour>
      <point x="44" y="52" type="line"/>
      <point x="44" y="97" type="line"/>
      <point x="73" y="97" type="line"/>
      <point x="73" y="52" type="line"/>
    </contour>
    <contour>
      <point x="176" y="154" type="line"/>
      <point x="176" y="29" type="line"/>
      <point x="237" y="29" type="line"/>
      <point x="237" y="48" type="line"/>
      <point x="196" y="48" type="line"/>
      <point x="196" y="135" type="line"/>
      <point x="230" y="135" type="line"/>
      <point x="230" y="154" type="line"/>
    </contour>
  </outline>
</glyph>
<glyph name="pieupCieucCho-ko" format="2">
  <advance width="256" height="256"/>
  <unicode hex="1127"/>
  <unicode hex="3176"/>
  <note>
uni3176
</note>
  <outline>
    <contour>
      <point x="130" y="154" type="line"/>
      <point x="130" y="135" type="line"/>
      <point x="169" y="135" type="line"/>
      <point x="169" y="122" type="line"/>
      <point x="163" y="68"/>
      <point x="119" y="45" type="qcurve"/>
      <point x="131" y="30" type="line"/>
      <point x="169" y="54"/>
      <point x="178" y="88" type="qcurve"/>
      <point x="188" y="49"/>
      <point x="225" y="29" type="qcurve"/>
      <point x="238" y="44" type="line"/>
      <point x="188" y="66"/>
      <point x="188" y="121" type="qcurve" smooth="yes"/>
      <point x="188" y="135" type="line"/>
      <point x="227" y="135" type="line"/>
      <point x="227" y="154" type="line"/>
    </contour>
    <contour>
      <point x="41" y="115" type="line"/>
      <point x="41" y="153" type="line"/>
      <point x="21" y="153" type="line"/>
      <point x="21" y="27" type="line"/>
      <point x="41" y="27" type="line"/>
      <point x="41" y="34" type="line"/>
      <point x="96" y="34" type="line"/>
      <point x="96" y="27" type="line"/>
      <point x="116" y="27" type="line"/>
      <point x="116" y="153" type="line"/>
      <point x="96" y="153" type="line"/>
      <point x="96" y="115" type="line"/>
    </contour>
    <contour>
      <point x="41" y="53" type="line"/>
      <point x="41" y="97" type="line"/>
      <point x="96" y="97" type="line"/>
      <point x="96" y="53" type="line"/>
    </contour>
  </outline>
</glyph>
<glyph name="pieupThieuthCho-ko" format="2">
  <advance width="256" height="256"/>
  <unicode hex="1129"/>
  <unicode hex="3177"/>
  <note>
uni3177
</note>
  <outline>
    <contour>
      <point x="162" y="104" type="line"/>
      <point x="162" y="135" type="line"/>
      <point x="225" y="135" type="line"/>
      <point x="225" y="154" type="line"/>
      <point x="143" y="154" type="line"/>
      <point x="143" y="29" type="line"/>
      <point x="230" y="29" type="line"/>
      <point x="230" y="48" type="line"/>
      <point x="162" y="48" type="line"/>
      <point x="162" y="85" type="line"/>
      <point x="225" y="85" type="line"/>
      <point x="225" y="104" type="line"/>
    </contour>
    <contour>
      <point x="49" y="115" type="line"/>
      <point x="49" y="153" type="line"/>
      <point x="29" y="153" type="line"/>
      <point x="29" y="27" type="line"/>
      <point x="49" y="27" type="line"/>
      <point x="49" y="34" type="line"/>
      <point x="104" y="34" type="line"/>
      <point x="104" y="27" type="line"/>
      <point x="124" y="27" type="line"/>
      <point x="124" y="153" type="line"/>
      <point x="104" y="153" type="line"/>
      <point x="104" y="115" type="line"/>
    </contour>
    <contour>
      <point x="49" y="53" type="line"/>
      <point x="49" y="97" type="line"/>
      <point x="104" y="97" type="line"/>
      <point x="104" y="53" type="line"/>
    </contour>
  </outline>
</glyph>
<glyph name="kapyeounpieupCho-ko" format="2">
  <advance width="256" height="256"/>
  <unicode hex="112B"/>
  <unicode hex="11E6"/>
  <unicode hex="3178"/>
  <note>
uni112B
</note>
  <outline>
    <contour>
      <point x="87" y="173" type="line"/>
      <point x="87" y="195" type="line"/>
      <point x="67" y="195" type="line"/>
      <point x="67" y="104" type="line"/>
      <point x="87" y="104" type="line"/>
      <point x="87" y="109" type="line"/>
      <point x="172" y="109" type="line"/>
      <point x="172" y="104" type="line"/>
      <point x="192" y="104" type="line"/>
      <point x="192" y="195" type="line"/>
      <point x="172" y="195" type="line"/>
      <point x="172" y="173" type="line"/>
    </contour>
    <contour>
      <point x="87" y="128" type="line"/>
      <point x="87" y="154" type="line"/>
      <point x="172" y="154" type="line"/>
      <point x="172" y="128" type="line"/>
    </contour>
    <contour>
      <point x="94" y="84"/>
      <point x="67" y="57"/>
      <point x="67" y="38" type="qcurve" smooth="yes"/>
      <point x="67" y="17"/>
      <point x="99" y="-10"/>
      <point x="128" y="-10" type="qcurve" smooth="yes"/>
      <point x="156" y="-10"/>
      <point x="188" y="17"/>
      <point x="188" y="38" type="qcurve" smooth="yes"/>
      <point x="188" y="57"/>
      <point x="161" y="84"/>
      <point x="137" y="86" type="qcurve"/>
      <point x="137" y="103" type="line"/>
      <point x="118" y="103" type="line"/>
      <point x="118" y="86" type="line"/>
    </contour>
    <contour>
      <point x="168" y="68"/>
      <point x="168" y="8"/>
      <point x="128" y="8" type="qcurve" smooth="yes"/>
      <point x="87" y="8"/>
      <point x="87" y="68"/>
      <point x="128" y="68" type="qcurve" smooth="yes"/>
    </contour>
  </outline>
</glyph>
<glyph name="kapyeounssangpieupCho-ko" format="2">
  <advance width="256" height="256"/>
  <unicode hex="112C"/>
  <unicode hex="3179"/>
  <note>
uni112C
</note>
  <outline>
    <contour>
      <point x="159" y="173" type="line"/>
      <point x="159" y="195" type="line"/>
      <point x="139" y="195" type="line"/>
      <point x="139" y="105" type="line"/>
      <point x="159" y="105" type="line"/>
      <point x="159" y="110" type="line"/>
      <point x="199" y="110" type="line"/>
      <point x="199" y="105" type="line"/>
      <point x="219" y="105" type="line"/>
      <point x="219" y="195" type="line"/>
      <point x="199" y="195" type="line"/>
      <point x="199" y="173" type="line"/>
    </contour>
    <contour>
      <point x="159" y="129" type="line"/>
      <point x="159" y="154" type="line"/>
      <point x="199" y="154" type="line"/>
      <point x="199" y="129" type="line"/>
    </contour>
    <contour>
      <point x="59" y="173" type="line"/>
      <point x="59" y="195" type="line"/>
      <point x="39" y="195" type="line"/>
      <point x="39" y="105" type="line"/>
      <point x="59" y="105" type="line"/>
      <point x="59" y="110" type="line"/>
      <point x="99" y="110" type="line"/>
      <point x="99" y="105" type="line"/>
      <point x="119" y="105" type="line"/>
      <point x="119" y="195" type="line"/>
      <point x="99" y="195" type="line"/>
      <point x="99" y="173" type="line"/>
    </contour>
    <contour>
      <point x="59" y="129" type="line"/>
      <point x="59" y="154" type="line"/>
      <point x="99" y="154" type="line"/>
      <point x="99" y="129" type="line"/>
    </contour>
    <contour>
      <point x="94" y="84"/>
      <point x="67" y="57"/>
      <point x="67" y="38" type="qcurve" smooth="yes"/>
      <point x="67" y="17"/>
      <point x="99" y="-10"/>
      <point x="128" y="-10" type="qcurve" smooth="yes"/>
      <point x="156" y="-10"/>
      <point x="188" y="17"/>
      <point x="188" y="38" type="qcurve" smooth="yes"/>
      <point x="188" y="57"/>
      <point x="161" y="84"/>
      <point x="137" y="86" type="qcurve"/>
      <point x="137" y="102" type="line"/>
      <point x="118" y="102" type="line"/>
      <point x="118" y="86" type="line"/>
    </contour>
    <contour>
      <point x="168" y="68"/>
      <point x="168" y="8"/>
      <point x="128" y="8" type="qcurve" smooth="yes"/>
      <point x="87" y="8"/>
      <point x="87" y="68"/>
      <point x="128" y="68" type="qcurve" smooth="yes"/>
    </contour>
  </outline>
</glyph>
<glyph name="siosKiyeokCho-ko" format="2">
  <advance width="256" height="256"/>
  <unicode hex="112D"/>
  <unicode hex="11E7"/>
  <unicode hex="317A"/>
  <note>
uni11E7
</note>
  <outline>
    <contour>
      <point x="100" y="54"/>
      <point x="140" y="32" type="qcurve"/>
      <point x="153" y="47" type="line"/>
      <point x="101" y="71"/>
      <point x="101" y="132" type="qcurve" smooth="yes"/>
      <point x="101" y="158" type="line"/>
      <point x="80" y="158" type="line"/>
      <point x="80" y="133" type="line"/>
      <point x="75" y="72"/>
      <point x="28" y="45" type="qcurve"/>
      <point x="41" y="29" type="line"/>
      <point x="80" y="55"/>
      <point x="91" y="95" type="qcurve"/>
    </contour>
    <contour>
      <point x="129" y="135" type="line"/>
      <point x="204" y="135" type="line"/>
      <point x="204" y="27" type="line"/>
      <point x="224" y="27" type="line"/>
      <point x="224" y="154" type="line"/>
      <point x="129" y="154" type="line"/>
    </contour>
  </outline>
</glyph>
<glyph name="siosNieunCho-ko" format="2">
  <advance width="256" height="256"/>
  <unicode hex="112E"/>
  <unicode hex="317B"/>
  <note>
uni112E
</note>
  <outline>
    <contour>
      <point x="83" y="49"/>
      <point x="118" y="30" type="qcurve"/>
      <point x="131" y="46" type="line"/>
      <point x="84" y="68"/>
      <point x="84" y="123" type="qcurve" smooth="yes"/>
      <point x="84" y="154" type="line"/>
      <point x="64" y="154" type="line"/>
      <point x="64" y="124" type="line"/>
      <point x="59" y="69"/>
      <point x="17" y="45" type="qcurve"/>
      <point x="31" y="29" type="line"/>
      <point x="64" y="51"/>
      <point x="74" y="86" type="qcurve"/>
    </contour>
    <contour>
      <point x="134" y="29" type="line"/>
      <point x="230" y="29" type="line"/>
      <point x="230" y="48" type="line"/>
      <point x="154" y="48" type="line"/>
      <point x="154" y="153" type="line"/>
      <point x="134" y="153" type="line"/>
    </contour>
  </outline>
</glyph>
<glyph name="siosTikeutCho-ko" format="2">
  <advance width="256" height="256"/>
  <unicode hex="112F"/>
  <unicode hex="11E8"/>
  <unicode hex="317C"/>
  <note>
uni112F
</note>
  <outline>
    <contour>
      <point x="83" y="49"/>
      <point x="118" y="30" type="qcurve"/>
      <point x="131" y="46" type="line"/>
      <point x="84" y="68"/>
      <point x="84" y="123" type="qcurve" smooth="yes"/>
      <point x="84" y="154" type="line"/>
      <point x="64" y="154" type="line"/>
      <point x="64" y="124" type="line"/>
      <point x="59" y="69"/>
      <point x="17" y="45" type="qcurve"/>
      <point x="31" y="29" type="line"/>
      <point x="64" y="51"/>
      <point x="74" y="86" type="qcurve"/>
    </contour>
    <contour>
      <point x="135" y="154" type="line"/>
      <point x="135" y="29" type="line"/>
      <point x="230" y="29" type="line"/>
      <point x="230" y="48" type="line"/>
      <point x="155" y="48" type="line"/>
      <point x="155" y="135" type="line"/>
      <point x="225" y="135" type="line"/>
      <point x="225" y="154" type="line"/>
    </contour>
  </outline>
</glyph>
<glyph name="siosPieupCho-ko" format="2">
  <advance width="256" height="256"/>
  <unicode hex="1132"/>
  <unicode hex="11EA"/>
  <unicode hex="317D"/>
  <note>
uni317D
</note>
  <outline>
    <contour>
      <point x="83" y="50"/>
      <point x="117" y="30" type="qcurve"/>
      <point x="129" y="46" type="line"/>
      <point x="84" y="67"/>
      <point x="84" y="123" type="qcurve" smooth="yes"/>
      <point x="84" y="154" type="line"/>
      <point x="64" y="154" type="line"/>
      <point x="64" y="124" type="line"/>
      <point x="59" y="69"/>
      <point x="17" y="45" type="qcurve"/>
      <point x="31" y="29" type="line"/>
      <point x="64" y="51"/>
      <point x="74" y="86" type="qcurve"/>
    </contour>
    <contour>
      <point x="152" y="115" type="line"/>
      <point x="152" y="154" type="line"/>
      <point x="132" y="154" type="line"/>
      <point x="132" y="28" type="line"/>
      <point x="152" y="28" type="line"/>
      <point x="152" y="33" type="line"/>
      <point x="199" y="33" type="line"/>
      <point x="199" y="28" type="line"/>
      <point x="219" y="28" type="line"/>
      <point x="219" y="154" type="line"/>
      <point x="199" y="154" type="line"/>
      <point x="199" y="115" type="line"/>
    </contour>
    <contour>
      <point x="152" y="52" type="line"/>
      <point x="152" y="97" type="line"/>
      <point x="199" y="97" type="line"/>
      <point x="199" y="52" type="line"/>
    </contour>
  </outline>
</glyph>
<glyph name="siosCieucCho-ko" format="2">
  <advance width="256" height="256"/>
  <unicode hex="1136"/>
  <unicode hex="317E"/>
  <note>
uni317E
</note>
  <outline>
    <contour>
      <point x="76" y="50"/>
      <point x="112" y="30" type="qcurve"/>
      <point x="124" y="46" type="line"/>
      <point x="78" y="67"/>
      <point x="78" y="122" type="qcurve" smooth="yes"/>
      <point x="78" y="154" type="line"/>
      <point x="58" y="154" type="line"/>
      <point x="58" y="123" type="line"/>
      <point x="52" y="68"/>
      <point x="13" y="45" type="qcurve"/>
      <point x="26" y="29" type="line"/>
      <point x="59" y="51"/>
      <point x="68" y="85" type="qcurve"/>
    </contour>
    <contour>
      <point x="138" y="154" type="line"/>
      <point x="138" y="135" type="line"/>
      <point x="177" y="135" type="line"/>
      <point x="177" y="124" type="line"/>
      <point x="172" y="69"/>
      <point x="126" y="45" type="qcurve"/>
      <point x="139" y="30" type="line"/>
      <point x="176" y="54"/>
      <point x="186" y="91" type="qcurve"/>
      <point x="195" y="51"/>
      <point x="233" y="29" type="qcurve"/>
      <point x="245" y="44" type="line"/>
      <point x="196" y="66"/>
      <point x="196" y="123" type="qcurve" smooth="yes"/>
      <point x="196" y="135" type="line"/>
      <point x="235" y="135" type="line"/>
      <point x="235" y="154" type="line"/>
    </contour>
  </outline>
</glyph>
<glyph name="pansiosCho-ko" format="2">
  <advance width="256" height="256"/>
  <unicode hex="1140"/>
  <unicode hex="11EB"/>
  <unicode hex="317F"/>
  <note>
uni317F
</note>
  <outline>
    <contour>
      <point x="42" y="29" type="line"/>
      <point x="209" y="29" type="line"/>
      <point x="129" y="164" type="line"/>
    </contour>
    <contour>
      <point x="177" y="48" type="line"/>
      <point x="75" y="48" type="line"/>
      <point x="129" y="129" type="line"/>
    </contour>
  </outline>
</glyph>
<glyph name="ssangieungCho-ko" format="2">
  <advance width="256" height="256"/>
  <unicode hex="1147"/>
  <unicode hex="11EE"/>
  <unicode hex="3180"/>
  <note>
uni1147
</note>
  <outline>
    <contour>
      <point x="25" y="148"/>
      <point x="25" y="87" type="qcurve" smooth="yes"/>
      <point x="25" y="55"/>
      <point x="54" y="19"/>
      <point x="96" y="19"/>
      <point x="125" y="55"/>
      <point x="125" y="87" type="qcurve" smooth="yes"/>
      <point x="125" y="145"/>
      <point x="86" y="154" type="qcurve"/>
      <point x="86" y="170" type="line"/>
      <point x="67" y="170" type="line"/>
      <point x="67" y="155" type="line"/>
    </contour>
    <contour>
      <point x="105" y="137"/>
      <point x="105" y="87" type="qcurve" smooth="yes"/>
      <point x="105" y="63"/>
      <point x="87" y="38"/>
      <point x="63" y="38"/>
      <point x="45" y="63"/>
      <point x="45" y="111"/>
      <point x="63" y="137"/>
      <point x="75" y="137" type="qcurve" smooth="yes"/>
    </contour>
    <contour>
      <point x="158" y="152"/>
      <point x="134" y="116"/>
      <point x="134" y="87" type="qcurve" smooth="yes"/>
      <point x="134" y="55"/>
      <point x="162" y="19"/>
      <point x="184" y="19" type="qcurve" smooth="yes"/>
      <point x="205" y="19"/>
      <point x="234" y="55"/>
      <point x="234" y="87" type="qcurve" smooth="yes"/>
      <point x="234" y="115"/>
      <point x="211" y="151"/>
      <point x="195" y="154" type="qcurve"/>
      <point x="195" y="170" type="line"/>
      <point x="176" y="170" type="line"/>
      <point x="176" y="155" type="line"/>
    </contour>
    <contour>
      <point x="196" y="137"/>
      <point x="214" y="111"/>
      <point x="214" y="63"/>
      <point x="196" y="38"/>
      <point x="184" y="38" type="qcurve" smooth="yes"/>
      <point x="154" y="38"/>
      <point x="154" y="87" type="qcurve" smooth="yes"/>
      <point x="154" y="137"/>
      <point x="184" y="137" type="qcurve" smooth="yes"/>
    </contour>
  </outline>
</glyph>
<glyph name="yesieungCho-ko" format="2">
  <advance width="256" height="256"/>
  <unicode hex="114C"/>
  <unicode hex="11F0"/>
  <unicode hex="3181"/>
  <note>
uni114C
</note>
  <outline>
    <contour>
      <point x="94" y="140"/>
      <point x="66" y="109"/>
      <point x="66" y="87" type="qcurve" smooth="yes"/>
      <point x="66" y="30"/>
      <point x="128" y="30" type="qcurve" smooth="yes"/>
      <point x="156" y="30"/>
      <point x="190" y="62"/>
      <point x="190" y="87" type="qcurve" smooth="yes"/>
      <point x="190" y="109"/>
      <point x="161" y="140"/>
      <point x="137" y="142" type="qcurve"/>
      <point x="137" y="162" type="line"/>
      <point x="118" y="162" type="line"/>
      <point x="118" y="142" type="line"/>
    </contour>
    <contour>
      <point x="147" y="124"/>
      <point x="170" y="103"/>
      <point x="170" y="87" type="qcurve" smooth="yes"/>
      <point x="170" y="49"/>
      <point x="86" y="49"/>
      <point x="86" y="87" type="qcurve" smooth="yes"/>
      <point x="86" y="124"/>
      <point x="128" y="124" type="qcurve" smooth="yes"/>
    </contour>
  </outline>
</glyph>
<glyph name="kapyeounphieuphCho-ko" format="2">
  <advance width="256" height="256"/>
  <unicode hex="1157"/>
  <unicode hex="11F4"/>
  <unicode hex="3184"/>
  <note>
uni3184
</note>
  <outline>
    <contour>
      <point x="52" y="191" type="line"/>
      <point x="52" y="172" type="line"/>
      <point x="202" y="172" type="line"/>
      <point x="202" y="191" type="line"/>
    </contour>
    <contour>
      <point x="169" y="125" type="line"/>
      <point x="178" y="164" type="line"/>
      <point x="159" y="164" type="line"/>
      <point x="149" y="125" type="line"/>
      <point x="105" y="125" type="line"/>
      <point x="98" y="164" type="line"/>
      <point x="78" y="164" type="line"/>
      <point x="86" y="125" type="line"/>
      <point x="44" y="125" type="line"/>
      <point x="44" y="106" type="line"/>
      <point x="210" y="106" type="line"/>
      <point x="210" y="125" type="line"/>
    </contour>
    <contour>
      <point x="67" y="79"/>
      <point x="67" y="37" type="qcurve" smooth="yes"/>
      <point x="67" y="-12"/>
      <point x="128" y="-12" type="qcurve" smooth="yes"/>
      <point x="156" y="-12"/>
      <point x="188" y="16"/>
      <point x="188" y="37" type="qcurve" smooth="yes"/>
      <point x="188" y="79"/>
      <point x="137" y="85" type="qcurve"/>
      <point x="137" y="101" type="line"/>
      <point x="118" y="101" type="line"/>
      <point x="118" y="85" type="line"/>
    </contour>
    <contour>
      <point x="168" y="67"/>
      <point x="168" y="37" type="qcurve" smooth="yes"/>
      <point x="168" y="24"/>
      <point x="146" y="6"/>
      <point x="128" y="6" type="qcurve" smooth="yes"/>
      <point x="109" y="6"/>
      <point x="87" y="24"/>
      <point x="87" y="37" type="qcurve" smooth="yes"/>
      <point x="87" y="67"/>
      <point x="128" y="67" type="qcurve" smooth="yes"/>
    </contour>
  </outline>
</glyph>
<glyph name="ssanghieuhCho-ko" format="2">
  <advance width="256" height="256"/>
  <unicode hex="1158"/>
  <unicode hex="3185"/>
  <note>
uni1158
</note>
  <outline>
    <contour>
      <point x="42" y="163" type="line"/>
      <point x="42" y="144" type="line"/>
      <point x="95" y="144" type="line"/>
      <point x="95" y="163" type="line"/>
    </contour>
    <contour>
      <point x="158" y="163" type="line"/>
      <point x="158" y="144" type="line"/>
      <point x="212" y="144" type="line"/>
      <point x="212" y="163" type="line"/>
    </contour>
    <contour>
      <point x="17" y="132" type="line"/>
      <point x="17" y="113" type="line"/>
      <point x="125" y="113" type="line"/>
      <point x="125" y="132" type="line"/>
    </contour>
    <contour>
      <point x="133" y="132" type="line"/>
      <point x="133" y="113" type="line"/>
      <point x="242" y="113" type="line"/>
      <point x="242" y="132" type="line"/>
    </contour>
    <contour>
      <point x="21" y="95"/>
      <point x="21" y="58" type="qcurve" smooth="yes"/>
      <point x="21" y="40"/>
      <point x="47" y="17"/>
      <point x="91" y="17"/>
      <point x="117" y="40"/>
      <point x="117" y="58" type="qcurve" smooth="yes"/>
      <point x="117" y="93"/>
      <point x="79" y="99" type="qcurve"/>
      <point x="79" y="109" type="line"/>
      <point x="61" y="109" type="line"/>
      <point x="61" y="99" type="line"/>
    </contour>
    <contour>
      <point x="97" y="82"/>
      <point x="97" y="58" type="qcurve" smooth="yes"/>
      <point x="97" y="35"/>
      <point x="41" y="35"/>
      <point x="41" y="58" type="qcurve" smooth="yes"/>
      <point x="41" y="82"/>
    </contour>
    <contour>
      <point x="138" y="95"/>
      <point x="138" y="58" type="qcurve" smooth="yes"/>
      <point x="138" y="17"/>
      <point x="186" y="17" type="qcurve" smooth="yes"/>
      <point x="208" y="17"/>
      <point x="234" y="40"/>
      <point x="234" y="58" type="qcurve" smooth="yes"/>
      <point x="234" y="92"/>
      <point x="196" y="99" type="qcurve"/>
      <point x="196" y="109" type="line"/>
      <point x="177" y="109" type="line"/>
      <point x="177" y="99" type="line"/>
    </contour>
    <contour>
      <point x="214" y="82"/>
      <point x="214" y="58" type="qcurve" smooth="yes"/>
      <point x="214" y="35"/>
      <point x="158" y="35"/>
      <point x="158" y="58" type="qcurve" smooth="yes"/>
      <point x="158" y="82"/>
    </contour>
  </outline>
</glyph>
<glyph name="yeorinhieuhCho-ko" format="2">
  <advance width="256" height="256"/>
  <unicode hex="1159"/>
  <unicode hex="11F9"/>
  <unicode hex="3186"/>
  <note>
uni1159
</note>
  <outline>
    <contour>
      <point x="20" y="162" type="line"/>
      <point x="20" y="142" type="line"/>
      <point x="237" y="142" type="line"/>
      <point x="237" y="162" type="line"/>
    </contour>
    <contour>
      <point x="71" y="101"/>
      <point x="71" y="56" type="qcurve" smooth="yes"/>
      <point x="71" y="34"/>
      <point x="102" y="5"/>
      <point x="154" y="5"/>
      <point x="185" y="34"/>
      <point x="185" y="56" type="qcurve" smooth="yes"/>
      <point x="185" y="102"/>
      <point x="138" y="108" type="qcurve"/>
      <point x="138" y="123" type="line"/>
      <point x="119" y="123" type="line"/>
      <point x="119" y="108" type="line"/>
    </contour>
    <contour>
      <point x="165" y="89"/>
      <point x="165" y="56" type="qcurve" smooth="yes"/>
      <point x="165" y="24"/>
      <point x="91" y="24"/>
      <point x="91" y="56" type="qcurve" smooth="yes"/>
      <point x="91" y="89"/>
    </contour>
  </outline>
</glyph>
<glyph name="nieunSiosCho-ko" format="2">
  <advance width="256" height="256"/>
  <unicode hex="115B"/>
  <unicode hex="11C7"/>
  <unicode hex="3167"/>
  <note>
uni3167
</note>
  <outline>
    <contour>
      <point x="191" y="52"/>
      <point x="224" y="29" type="qcurve"/>
      <point x="236" y="45" type="line"/>
      <point x="195" y="70"/>
      <point x="195" y="135" type="qcurve" smooth="yes"/>
      <point x="195" y="158" type="line"/>
      <point x="175" y="158" type="line"/>
      <point x="175" y="135" type="line"/>
      <point x="169" y="70"/>
      <point x="120" y="42" type="qcurve"/>
      <point x="133" y="26" type="line"/>
      <point x="172" y="54"/>
      <point x="184" y="98" type="qcurve"/>
    </contour>
    <contour>
      <point x="27" y="30" type="line"/>
      <point x="77" y="30"/>
      <point x="117" y="39" type="qcurve"/>
      <point x="114" y="55" type="line"/>
      <point x="81" y="48"/>
      <point x="47" y="48" type="qcurve"/>
      <point x="47" y="153" type="line"/>
      <point x="27" y="153" type="line"/>
    </contour>
  </outline>
</glyph>
<glyph name="nieunCieucCho-ko" format="2">
  <advance width="256" height="256"/>
  <unicode hex="115C"/>
  <unicode hex="11AC"/>
  <unicode hex="3135"/>
  <note>
uni3135
</note>
  <outline>
    <contour>
      <point x="122" y="154" type="line"/>
      <point x="122" y="135" type="line"/>
      <point x="162" y="135" type="line"/>
      <point x="162" y="125" type="line" smooth="yes"/>
      <point x="157" y="69"/>
      <point x="113" y="45" type="qcurve"/>
      <point x="125" y="30" type="line"/>
      <point x="161" y="54"/>
      <point x="172" y="92" type="qcurve"/>
      <point x="181" y="50"/>
      <point x="217" y="29" type="qcurve"/>
      <point x="229" y="44" type="line"/>
      <point x="181" y="67"/>
      <point x="181" y="125" type="qcurve" smooth="yes"/>
      <point x="181" y="135" type="line"/>
      <point x="219" y="135" type="line"/>
      <point x="219" y="154" type="line"/>
    </contour>
    <contour>
      <point x="34" y="30" type="line"/>
      <point x="79" y="32"/>
      <point x="114" y="47" type="qcurve"/>
      <point x="111" y="64" type="line"/>
      <point x="83" y="49"/>
      <point x="54" y="49" type="qcurve"/>
      <point x="54" y="153" type="line"/>
      <point x="34" y="153" type="line"/>
    </contour>
  </outline>
</glyph>
<glyph name="nieunHieuhCho-ko" format="2">
  <advance width="256" height="256"/>
  <unicode hex="115D"/>
  <unicode hex="11AD"/>
  <unicode hex="3136"/>
  <note>
uni11AD
</note>
  <outline>
    <contour>
      <point x="142" y="162" type="line"/>
      <point x="142" y="145" type="line"/>
      <point x="202" y="145" type="line"/>
      <point x="202" y="162" type="line"/>
    </contour>
    <contour>
      <point x="31" y="30" type="line"/>
      <point x="78" y="31"/>
      <point x="116" y="40" type="qcurve"/>
      <point x="113" y="56" type="line"/>
      <point x="82" y="49"/>
      <point x="51" y="49" type="qcurve"/>
      <point x="51" y="153" type="line"/>
      <point x="31" y="153" type="line"/>
    </contour>
    <contour>
      <point x="110" y="129" type="line"/>
      <point x="110" y="111" type="line"/>
      <point x="235" y="111" type="line"/>
      <point x="235" y="129" type="line"/>
    </contour>
    <contour>
      <point x="123" y="92"/>
      <point x="123" y="57" type="qcurve" smooth="yes"/>
      <point x="123" y="41"/>
      <point x="149" y="19"/>
      <point x="172" y="19" type="qcurve" smooth="yes"/>
      <point x="194" y="19"/>
      <point x="220" y="41"/>
      <point x="220" y="57" type="qcurve" smooth="yes"/>
      <point x="220" y="90"/>
      <point x="182" y="94" type="qcurve"/>
      <point x="182" y="107" type="line"/>
      <point x="163" y="107" type="line"/>
      <point x="163" y="94" type="line"/>
    </contour>
    <contour>
      <point x="202" y="78"/>
      <point x="202" y="57" type="qcurve" smooth="yes"/>
      <point x="202" y="49"/>
      <point x="186" y="36"/>
      <point x="172" y="36" type="qcurve" smooth="yes"/>
      <point x="142" y="36"/>
      <point x="142" y="78"/>
    </contour>
  </outline>
</glyph>
<glyph name="aJung-ko" format="2">
  <advance width="256" height="256"/>
  <unicode hex="1161"/>
  <unicode hex="314F"/>
  <note>
uni314F
</note>
  <outline>
    <contour>
      <point x="106" y="-15" type="line"/>
      <point x="126" y="-15" type="line"/>
      <point x="126" y="92" type="line"/>
      <point x="186" y="92" type="line"/>
      <point x="186" y="111" type="line"/>
      <point x="126" y="111" type="line"/>
      <point x="126" y="200" type="line"/>
      <point x="106" y="200" type="line"/>
    </contour>
  </outline>
</glyph>
<glyph name="aeJung-ko" format="2">
  <advance width="256" height="256"/>
  <unicode hex="1162"/>
  <unicode hex="3150"/>
  <note>
uni3150
</note>
  <outline>
    <contour>
      <point x="91" y="-2" type="line"/>
      <point x="111" y="-2" type="line"/>
      <point x="111" y="85" type="line"/>
      <point x="152" y="85" type="line"/>
      <point x="152" y="-15" type="line"/>
      <point x="172" y="-15" type="line"/>
      <point x="172" y="200" type="line"/>
      <point x="152" y="200" type="line"/>
      <point x="152" y="104" type="line"/>
      <point x="111" y="104" type="line"/>
      <point x="111" y="196" type="line"/>
      <point x="91" y="196" type="line"/>
    </contour>
  </outline>
</glyph>
<glyph name="yaJung-ko" format="2">
  <advance width="256" height="256"/>
  <unicode hex="1163"/>
  <unicode hex="3151"/>
  <note>
uni3151
</note>
  <outline>
    <contour>
      <point x="105" y="-15" type="line"/>
      <point x="125" y="-15" type="line"/>
      <point x="125" y="59" type="line"/>
      <point x="185" y="59" type="line"/>
      <point x="185" y="78" type="line"/>
      <point x="125" y="78" type="line"/>
      <point x="125" y="119" type="line"/>
      <point x="185" y="119" type="line"/>
      <point x="185" y="139" type="line"/>
      <point x="125" y="139" type="line"/>
      <point x="125" y="200" type="line"/>
      <point x="105" y="200" type="line"/>
    </contour>
  </outline>
</glyph>
<glyph name="yaeJung-ko" format="2">
  <advance width="256" height="256"/>
  <unicode hex="1164"/>
  <unicode hex="3152"/>
  <note>
uni1164
</note>
  <outline>
    <contour>
      <point x="90" y="-2" type="line"/>
      <point x="110" y="-2" type="line"/>
      <point x="110" y="60" type="line"/>
      <point x="152" y="60" type="line"/>
      <point x="152" y="-15" type="line"/>
      <point x="172" y="-15" type="line"/>
      <point x="172" y="200" type="line"/>
      <point x="152" y="200" type="line"/>
      <point x="152" y="143" type="line"/>
      <point x="110" y="143" type="line"/>
      <point x="110" y="196" type="line"/>
      <point x="90" y="196" type="line"/>
    </contour>
    <contour>
      <point x="110" y="124" type="line"/>
      <point x="152" y="124" type="line"/>
      <point x="152" y="79" type="line"/>
      <point x="110" y="79" type="line"/>
    </contour>
  </outline>
</glyph>
<glyph name="eoJung-ko" format="2">
  <advance width="256" height="256"/>
  <unicode hex="1165"/>
  <unicode hex="3153"/>
  <note>
uni1165
</note>
  <outline>
    <contour>
      <point x="147" y="117" type="line"/>
      <point x="71" y="117" type="line"/>
      <point x="71" y="98" type="line"/>
      <point x="147" y="98" type="line"/>
      <point x="147" y="-15" type="line"/>
      <point x="167" y="-15" type="line"/>
      <point x="167" y="200" type="line"/>
      <point x="147" y="200" type="line"/>
    </contour>
  </outline>
</glyph>
<glyph name="eJung-ko" format="2">
  <advance width="256" height="256"/>
  <unicode hex="1166"/>
  <unicode hex="3154"/>
  <note>
uni3154
</note>
  <outline>
    <contour>
      <point x="165" y="-15" type="line"/>
      <point x="185" y="-15" type="line"/>
      <point x="185" y="200" type="line"/>
      <point x="165" y="200" type="line"/>
    </contour>
    <contour>
      <point x="55" y="108" type="line"/>
      <point x="55" y="89" type="line"/>
      <point x="114" y="89" type="line"/>
      <point x="114" y="-3" type="line"/>
      <point x="134" y="-3" type="line"/>
      <point x="134" y="196" type="line"/>
      <point x="114" y="196" type="line"/>
      <point x="114" y="108" type="line"/>
    </contour>
  </outline>
</glyph>
<glyph name="yeoJung-ko" format="2">
  <advance width="256" height="256"/>
  <unicode hex="1167"/>
  <unicode hex="3155"/>
  <note>
uni3155
</note>
  <outline>
    <contour>
      <point x="147" y="135" type="line"/>
      <point x="70" y="135" type="line"/>
      <point x="70" y="116" type="line"/>
      <point x="147" y="116" type="line"/>
      <point x="147" y="73" type="line"/>
      <point x="70" y="73" type="line"/>
      <point x="70" y="54" type="line"/>
      <point x="147" y="54" type="line"/>
      <point x="147" y="-15" type="line"/>
      <point x="167" y="-15" type="line"/>
      <point x="167" y="200" type="line"/>
      <point x="147" y="200" type="line"/>
    </contour>
  </outline>
</glyph>
<glyph name="yeJung-ko" format="2">
  <advance width="256" height="256"/>
  <unicode hex="1168"/>
  <unicode hex="3156"/>
  <note>
uni3156
</note>
  <outline>
    <contour>
      <point x="165" y="-15" type="line"/>
      <point x="185" y="-15" type="line"/>
      <point x="185" y="200" type="line"/>
      <point x="165" y="200" type="line"/>
    </contour>
    <contour>
      <point x="114" y="135" type="line"/>
      <point x="50" y="135" type="line"/>
      <point x="50" y="116" type="line"/>
      <point x="114" y="116" type="line"/>
      <point x="114" y="74" type="line"/>
      <point x="50" y="74" type="line"/>
      <point x="50" y="55" type="line"/>
      <point x="114" y="55" type="line"/>
      <point x="114" y="-3" type="line"/>
      <point x="134" y="-3" type="line"/>
      <point x="134" y="196" type="line"/>
      <point x="114" y="196" type="line"/>
    </contour>
  </outline>
</glyph>
<glyph name="oJung-ko" format="2">
  <advance width="256" height="256"/>
  <unicode hex="1169"/>
  <unicode hex="3157"/>
  <note>
uni3157
</note>
  <outline>
    <contour>
      <point x="138" y="57" type="line"/>
      <point x="138" y="151" type="line"/>
      <point x="118" y="151" type="line"/>
      <point x="118" y="57" type="line"/>
      <point x="22" y="57" type="line"/>
      <point x="22" y="38" type="line"/>
      <point x="235" y="38" type="line"/>
      <point x="235" y="57" type="line"/>
    </contour>
  </outline>
</glyph>
<glyph name="waJung-ko" format="2">
  <advance width="256" height="256"/>
  <unicode hex="116A"/>
  <unicode hex="3158"/>
  <note>
uni116A
</note>
  <outline>
    <contour>
      <point x="163" y="66" type="line"/>
      <point x="97" y="61" type="line"/>
      <point x="97" y="159" type="line"/>
      <point x="77" y="159" type="line"/>
      <point x="77" y="59" type="line"/>
      <point x="18" y="55" type="line"/>
      <point x="21" y="36" type="line"/>
      <point x="163" y="47" type="line"/>
      <point x="163" y="-15" type="line"/>
      <point x="183" y="-15" type="line"/>
      <point x="183" y="84" type="line"/>
      <point x="234" y="84" type="line"/>
      <point x="234" y="103" type="line"/>
      <point x="183" y="103" type="line"/>
      <point x="183" y="200" type="line"/>
      <point x="163" y="200" type="line"/>
    </contour>
  </outline>
</glyph>
<glyph name="waeJung-ko" format="2">
  <advance width="256" height="256"/>
  <unicode hex="116B"/>
  <unicode hex="3159"/>
  <note>
uni3159
</note>
  <outline>
    <contour>
      <point x="66" y="67" type="line"/>
      <point x="18" y="63" type="line"/>
      <point x="21" y="44" type="line"/>
      <point x="145" y="55" type="line"/>
      <point x="145" y="-2" type="line"/>
      <point x="165" y="-2" type="line"/>
      <point x="165" y="83" type="line"/>
      <point x="195" y="83" type="line"/>
      <point x="195" y="-15" type="line"/>
      <point x="215" y="-15" type="line"/>
      <point x="215" y="200" type="line"/>
      <point x="195" y="200" type="line"/>
      <point x="195" y="102" type="line"/>
      <point x="165" y="102" type="line"/>
      <point x="165" y="195" type="line"/>
      <point x="145" y="195" type="line"/>
      <point x="145" y="74" type="line"/>
      <point x="86" y="69" type="line"/>
      <point x="86" y="147" type="line"/>
      <point x="66" y="147" type="line"/>
    </contour>
  </outline>
</glyph>
<glyph name="oeJung-ko" format="2">
  <advance width="256" height="256"/>
  <unicode hex="116C"/>
  <unicode hex="315A"/>
  <note>
uni315A
</note>
  <outline>
    <contour>
      <point x="183" y="72" type="line"/>
      <point x="108" y="64" type="line"/>
      <point x="108" y="155" type="line"/>
      <point x="88" y="155" type="line"/>
      <point x="88" y="61" type="line"/>
      <point x="24" y="54" type="line"/>
      <point x="27" y="35" type="line"/>
      <point x="183" y="53" type="line"/>
      <point x="183" y="-15" type="line"/>
      <point x="203" y="-15" type="line"/>
      <point x="203" y="200" type="line"/>
      <point x="183" y="200" type="line"/>
    </contour>
  </outline>
</glyph>
<glyph name="yoJung-ko" format="2">
  <advance width="256" height="256"/>
  <unicode hex="116D"/>
  <unicode hex="315B"/>
  <note>
uni315B
</note>
  <outline>
    <contour>
      <point x="173" y="59" type="line"/>
      <point x="182" y="154" type="line"/>
      <point x="162" y="154" type="line"/>
      <point x="153" y="59" type="line"/>
      <point x="101" y="59" type="line"/>
      <point x="95" y="146" type="line"/>
      <point x="75" y="146" type="line"/>
      <point x="81" y="59" type="line"/>
      <point x="19" y="59" type="line"/>
      <point x="19" y="40" type="line"/>
      <point x="237" y="40" type="line"/>
      <point x="237" y="59" type="line"/>
    </contour>
  </outline>
</glyph>
<glyph name="uJung-ko" format="2">
  <advance width="256" height="256"/>
  <unicode hex="116E"/>
  <unicode hex="315C"/>
  <note>
uni315C
</note>
  <outline>
    <contour>
      <point x="20" y="146" type="line"/>
      <point x="20" y="128" type="line"/>
      <point x="118" y="128" type="line"/>
      <point x="118" y="-15" type="line"/>
      <point x="137" y="-15" type="line"/>
      <point x="137" y="128" type="line"/>
      <point x="235" y="128" type="line"/>
      <point x="235" y="146" type="line"/>
    </contour>
  </outline>
</glyph>
<glyph name="weoJung-ko" format="2">
  <advance width="256" height="256"/>
  <unicode hex="116F"/>
  <unicode hex="315D"/>
  <note>
uni315D
</note>
  <outline>
    <contour>
      <point x="186" y="98" type="line"/>
      <point x="133" y="98" type="line"/>
      <point x="133" y="79" type="line"/>
      <point x="186" y="79" type="line"/>
      <point x="186" y="-15" type="line"/>
      <point x="206" y="-15" type="line"/>
      <point x="206" y="200" type="line"/>
      <point x="186" y="200" type="line"/>
    </contour>
    <contour>
      <point x="84" y="19" type="line"/>
      <point x="104" y="19" type="line"/>
      <point x="104" y="129" type="line"/>
      <point x="165" y="133" type="line"/>
      <point x="165" y="152" type="line"/>
      <point x="23" y="144" type="line"/>
      <point x="26" y="125" type="line"/>
      <point x="84" y="128" type="line"/>
    </contour>
  </outline>
</glyph>
<glyph name="weJung-ko" format="2">
  <advance width="256" height="256"/>
  <unicode hex="1170"/>
  <unicode hex="315E"/>
  <note>
uni1170
</note>
  <outline>
    <contour>
      <point x="195" y="-15" type="line"/>
      <point x="215" y="-15" type="line"/>
      <point x="215" y="200" type="line"/>
      <point x="195" y="200" type="line"/>
    </contour>
    <contour>
      <point x="150" y="100" type="line"/>
      <point x="108" y="100" type="line"/>
      <point x="108" y="81" type="line"/>
      <point x="150" y="81" type="line"/>
      <point x="150" y="-2" type="line"/>
      <point x="170" y="-2" type="line"/>
      <point x="170" y="196" type="line"/>
      <point x="150" y="196" type="line"/>
    </contour>
    <contour>
      <point x="73" y="21" type="line"/>
      <point x="93" y="21" type="line"/>
      <point x="93" y="122" type="line"/>
      <point x="135" y="125" type="line"/>
      <point x="135" y="144" type="line"/>
      <point x="23" y="135" type="line"/>
      <point x="26" y="117" type="line"/>
      <point x="73" y="120" type="line"/>
    </contour>
  </outline>
</glyph>
<glyph name="wiJung-ko" format="2">
  <advance width="256" height="256"/>
  <unicode hex="1171"/>
  <unicode hex="315F"/>
  <note>
uni315F
</note>
  <outline>
    <contour>
      <point x="184" y="133" type="line"/>
      <point x="19" y="123" type="line"/>
      <point x="22" y="104" type="line"/>
      <point x="98" y="109" type="line"/>
      <point x="98" y="12" type="line"/>
      <point x="118" y="12" type="line"/>
      <point x="118" y="110" type="line"/>
      <point x="184" y="114" type="line"/>
      <point x="184" y="-15" type="line"/>
      <point x="204" y="-15" type="line"/>
      <point x="204" y="200" type="line"/>
      <point x="184" y="200" type="line"/>
    </contour>
  </outline>
</glyph>
<glyph name="yuJung-ko" format="2">
  <advance width="256" height="256"/>
  <unicode hex="1172"/>
  <unicode hex="3160"/>
  <note>
uni3160
</note>
  <outline>
    <contour>
      <point x="21" y="145" type="line"/>
      <point x="21" y="126" type="line"/>
      <point x="79" y="126" type="line"/>
      <point x="79" y="-14" type="line"/>
      <point x="99" y="-14" type="line"/>
      <point x="99" y="126" type="line"/>
      <point x="156" y="126" type="line"/>
      <point x="156" y="-17" type="line"/>
      <point x="176" y="-17" type="line"/>
      <point x="176" y="126" type="line"/>
      <point x="235" y="126" type="line"/>
      <point x="235" y="145" type="line"/>
    </contour>
  </outline>
</glyph>
<glyph name="euJung-ko" format="2">
  <advance width="256" height="256"/>
  <unicode hex="1173"/>
  <unicode hex="3161"/>
  <note>
uni3161
</note>
  <outline>
    <contour>
      <point x="20" y="79" type="line"/>
      <point x="20" y="60" type="line"/>
      <point x="237" y="60" type="line"/>
      <point x="237" y="79" type="line"/>
    </contour>
  </outline>
</glyph>
<glyph name="yiJung-ko" format="2">
  <advance width="256" height="256"/>
  <unicode hex="1174"/>
  <unicode hex="3162"/>
  <note>
uni3162
</note>
  <outline>
    <contour>
      <point x="179" y="88" type="line"/>
      <point x="19" y="73" type="line"/>
      <point x="22" y="54" type="line"/>
      <point x="179" y="69" type="line"/>
      <point x="179" y="-15" type="line"/>
      <point x="199" y="-15" type="line"/>
      <point x="199" y="200" type="line"/>
      <point x="179" y="200" type="line"/>
    </contour>
  </outline>
</glyph>
<glyph name="iJung-ko" format="2">
  <advance width="256" height="256"/>
  <unicode hex="1175"/>
  <unicode hex="3163"/>
  <note>
uni1175
</note>
  <outline>
    <contour>
      <point x="118" y="-15" type="line"/>
      <point x="138" y="-15" type="line"/>
      <point x="138" y="200" type="line"/>
      <point x="118" y="200" type="line"/>
    </contour>
  </outline>
</glyph>
<glyph name="yoYaJung-ko" format="2">
  <advance width="256" height="256"/>
  <unicode hex="1184"/>
  <unicode hex="3187"/>
  <note>
uni1184
</note>
  <outline>
    <contour>
      <point x="172" y="69" type="line"/>
      <point x="134" y="66" type="line"/>
      <point x="134" y="155" type="line"/>
      <point x="114" y="155" type="line"/>
      <point x="114" y="65" type="line"/>
      <point x="78" y="61" type="line"/>
      <point x="78" y="155" type="line"/>
      <point x="58" y="155" type="line"/>
      <point x="58" y="60" type="line"/>
      <point x="18" y="57" type="line"/>
      <point x="22" y="38" type="line"/>
      <point x="172" y="50" type="line"/>
      <point x="172" y="-15" type="line"/>
      <point x="192" y="-15" type="line"/>
      <point x="192" y="51" type="line"/>
      <point x="237" y="51" type="line"/>
      <point x="237" y="70" type="line"/>
      <point x="192" y="70" type="line"/>
      <point x="192" y="110" type="line"/>
      <point x="236" y="110" type="line"/>
      <point x="236" y="129" type="line"/>
      <point x="192" y="129" type="line"/>
      <point x="192" y="200" type="line"/>
      <point x="172" y="200" type="line"/>
    </contour>
  </outline>
</glyph>
<glyph name="yoYaeJung-ko" format="2">
  <advance width="256" height="256"/>
  <unicode hex="1185"/>
  <unicode hex="3188"/>
  <note>
uni1185
</note>
  <outline>
    <contour>
      <point x="53" y="66" type="line"/>
      <point x="18" y="62" type="line"/>
      <point x="22" y="44" type="line"/>
      <point x="145" y="54" type="line"/>
      <point x="145" y="-2" type="line"/>
      <point x="165" y="-2" type="line"/>
      <point x="165" y="66" type="line"/>
      <point x="185" y="66" type="line"/>
      <point x="185" y="-13" type="line"/>
      <point x="205" y="-13" type="line"/>
      <point x="205" y="201" type="line"/>
      <point x="185" y="201" type="line"/>
      <point x="185" y="140" type="line"/>
      <point x="165" y="140" type="line"/>
      <point x="165" y="195" type="line"/>
      <point x="145" y="195" type="line"/>
      <point x="145" y="73" type="line"/>
      <point x="118" y="71" type="line"/>
      <point x="118" y="150" type="line"/>
      <point x="98" y="150" type="line"/>
      <point x="98" y="69" type="line"/>
      <point x="73" y="67" type="line"/>
      <point x="73" y="150" type="line"/>
      <point x="53" y="150" type="line"/>
    </contour>
    <contour>
      <point x="165" y="121" type="line"/>
      <point x="185" y="121" type="line"/>
      <point x="185" y="86" type="line"/>
      <point x="165" y="86" type="line"/>
    </contour>
  </outline>
</glyph>
<glyph name="yoIJung-ko" format="2">
  <advance width="256" height="256"/>
  <unicode hex="1188"/>
  <unicode hex="3189"/>
  <note>
uni3189
</note>
  <outline>
    <contour>
      <point x="182" y="69" type="line"/>
      <point x="142" y="66" type="line"/>
      <point x="142" y="155" type="line"/>
      <point x="122" y="155" type="line"/>
      <point x="122" y="64" type="line"/>
      <point x="85" y="61" type="line"/>
      <point x="85" y="155" type="line"/>
      <point x="65" y="155" type="line"/>
      <point x="65" y="60" type="line"/>
      <point x="26" y="57" type="line"/>
      <point x="28" y="38" type="line"/>
      <point x="182" y="50" type="line"/>
      <point x="182" y="-15" type="line"/>
      <point x="202" y="-15" type="line"/>
      <point x="202" y="200" type="line"/>
      <point x="182" y="200" type="line"/>
    </contour>
  </outline>
</glyph>
<glyph name="yuYeoJung-ko" format="2">
  <advance width="256" height="256"/>
  <unicode hex="1191"/>
  <unicode hex="318A"/>
  <note>
uni318A
</note>
  <outline>
    <contour>
      <point x="184" y="115" type="line"/>
      <point x="150" y="115" type="line"/>
      <point x="150" y="96" type="line"/>
      <point x="184" y="96" type="line"/>
      <point x="184" y="71" type="line"/>
      <point x="150" y="71" type="line"/>
      <point x="150" y="52" type="line"/>
      <point x="184" y="52" type="line"/>
      <point x="184" y="-15" type="line"/>
      <point x="204" y="-15" type="line"/>
      <point x="204" y="200" type="line"/>
      <point x="184" y="200" type="line"/>
    </contour>
    <contour>
      <point x="65" y="20" type="line"/>
      <point x="85" y="20" type="line"/>
      <point x="85" y="128" type="line"/>
      <point x="112" y="130" type="line"/>
      <point x="112" y="18" type="line"/>
      <point x="133" y="18" type="line"/>
      <point x="133" y="131" type="line"/>
      <point x="169" y="133" type="line"/>
      <point x="169" y="152" type="line"/>
      <point x="21" y="144" type="line"/>
      <point x="24" y="125" type="line"/>
      <point x="65" y="127" type="line"/>
    </contour>
  </outline>
</glyph>
<glyph name="yuYeJung-ko" format="2">
  <advance width="256" height="256"/>
  <unicode hex="1192"/>
  <unicode hex="318B"/>
  <note>
uni1192
</note>
  <outline>
    <contour>
      <point x="192" y="-15" type="line"/>
      <point x="212" y="-15" type="line"/>
      <point x="212" y="200" type="line"/>
      <point x="192" y="200" type="line"/>
    </contour>
    <contour>
      <point x="152" y="110" type="line"/>
      <point x="123" y="110" type="line"/>
      <point x="123" y="91" type="line"/>
      <point x="152" y="91" type="line"/>
      <point x="152" y="70" type="line"/>
      <point x="123" y="70" type="line"/>
      <point x="123" y="51" type="line"/>
      <point x="152" y="51" type="line"/>
      <point x="152" y="-2" type="line"/>
      <point x="172" y="-2" type="line"/>
      <point x="172" y="196" type="line"/>
      <point x="152" y="196" type="line"/>
    </contour>
    <contour>
      <point x="55" y="19" type="line"/>
      <point x="75" y="19" type="line"/>
      <point x="75" y="119" type="line"/>
      <point x="95" y="120" type="line"/>
      <point x="95" y="18" type="line"/>
      <point x="114" y="18" type="line"/>
      <point x="114" y="121" type="line"/>
      <point x="138" y="122" type="line"/>
      <point x="138" y="141" type="line"/>
      <point x="19" y="135" type="line"/>
      <point x="22" y="116" type="line"/>
      <point x="55" y="118" type="line"/>
    </contour>
  </outline>
</glyph>
<glyph name="yuIJung-ko" format="2">
  <advance width="256" height="256"/>
  <unicode hex="1194"/>
  <unicode hex="318C"/>
  <note>
uni318C
</note>
  <outline>
    <contour>
      <point x="184" y="135" type="line"/>
      <point x="20" y="124" type="line"/>
      <point x="23" y="105" type="line"/>
      <point x="65" y="108" type="line"/>
      <point x="65" y="16" type="line"/>
      <point x="85" y="16" type="line"/>
      <point x="85" y="109" type="line"/>
      <point x="121" y="112" type="line"/>
      <point x="121" y="14" type="line"/>
      <point x="141" y="14" type="line"/>
      <point x="141" y="113" type="line"/>
      <point x="184" y="116" type="line"/>
      <point x="184" y="-15" type="line"/>
      <point x="204" y="-15" type="line"/>
      <point x="204" y="200" type="line"/>
      <point x="184" y="200" type="line"/>
    </contour>
  </outline>
</glyph>
<glyph name="araeaJung-ko" format="2">
  <advance width="256" height="256"/>
  <unicode hex="119E"/>
  <unicode hex="318D"/>
  <note>
uni318D
</note>
  <outline>
    <contour>
      <point x="153" y="67"/>
      <point x="153" y="92" type="qcurve" smooth="yes"/>
      <point x="153" y="118"/>
      <point x="103" y="118"/>
      <point x="103" y="92" type="qcurve" smooth="yes"/>
      <point x="103" y="67"/>
    </contour>
  </outline>
</glyph>
<glyph name="araeaIJung-ko" format="2">
  <advance width="256" height="256"/>
  <unicode hex="11A1"/>
  <unicode hex="318E"/>
  <note>
uni318E
</note>
  <outline>
    <contour>
      <point x="182" y="-15" type="line"/>
      <point x="202" y="-15" type="line"/>
      <point x="202" y="200" type="line"/>
      <point x="182" y="200" type="line"/>
    </contour>
    <contour>
      <point x="124" y="69"/>
      <point x="124" y="95" type="qcurve" smooth="yes"/>
      <point x="124" y="120"/>
      <point x="99" y="120" type="qcurve" smooth="yes"/>
      <point x="73" y="120"/>
      <point x="73" y="95" type="qcurve" smooth="yes"/>
      <point x="73" y="69"/>
      <point x="99" y="69" type="qcurve" smooth="yes"/>
    </contour>
  </outline>
</glyph>
<glyph name="kiyeokSiosJong-ko" format="2">
  <advance width="256" height="256"/>
  <unicode hex="11AA"/>
  <unicode hex="3133"/>
  <note>
uni3133
</note>
  <outline>
    <contour>
      <point x="191" y="54"/>
      <point x="224" y="31" type="qcurve"/>
      <point x="236" y="46" type="line"/>
      <point x="194" y="71"/>
      <point x="194" y="136" type="qcurve" smooth="yes"/>
      <point x="194" y="158" type="line"/>
      <point x="174" y="158" type="line"/>
      <point x="174" y="137" type="line"/>
      <point x="168" y="72"/>
      <point x="122" y="44" type="qcurve"/>
      <point x="135" y="28" type="line"/>
      <point x="172" y="55"/>
      <point x="183" y="99" type="qcurve"/>
    </contour>
    <contour>
      <point x="33" y="135" type="line"/>
      <point x="101" y="135" type="line"/>
      <point x="101" y="27" type="line"/>
      <point x="121" y="27" type="line"/>
      <point x="121" y="154" type="line"/>
      <point x="33" y="154" type="line"/>
    </contour>
  </outline>
</glyph>
<glyph name="rieulKiyeokJong-ko" format="2">
  <advance width="256" height="256"/>
  <unicode hex="11B0"/>
  <unicode hex="313A"/>
  <note>
uni313A
</note>
  <outline>
    <contour>
      <point x="135" y="135" type="line"/>
      <point x="195" y="135" type="line"/>
      <point x="195" y="27" type="line"/>
      <point x="215" y="27" type="line"/>
      <point x="215" y="154" type="line"/>
      <point x="135" y="154" type="line"/>
    </contour>
    <contour>
      <point x="35" y="135" type="line"/>
      <point x="105" y="135" type="line"/>
      <point x="105" y="106" type="line"/>
      <point x="34" y="106" type="line"/>
      <point x="34" y="29" type="line"/>
      <point x="140" y="38" type="line"/>
      <point x="137" y="56" type="line"/>
      <point x="93" y="49"/>
      <point x="54" y="48" type="qcurve"/>
      <point x="54" y="87" type="line"/>
      <point x="124" y="87" type="line"/>
      <point x="124" y="154" type="line"/>
      <point x="35" y="154" type="line"/>
    </contour>
  </outline>
</glyph>
<glyph name="rieulMieumJong-ko" format="2">
  <advance width="256" height="256"/>
  <unicode hex="11B1"/>
  <unicode hex="313B"/>
  <note>
uni11B1
</note>
  <outline>
    <contour>
      <point x="35" y="135" type="line"/>
      <point x="97" y="135" type="line"/>
      <point x="97" y="106" type="line"/>
      <point x="34" y="106" type="line"/>
      <point x="34" y="29" type="line"/>
      <point x="128" y="38" type="line"/>
      <point x="124" y="56" type="line"/>
      <point x="87" y="49"/>
      <point x="54" y="48" type="qcurve"/>
      <point x="54" y="87" type="line"/>
      <point x="117" y="87" type="line"/>
      <point x="117" y="154" type="line"/>
      <point x="35" y="154" type="line"/>
    </contour>
    <contour>
      <point x="132" y="154" type="line"/>
      <point x="132" y="27" type="line"/>
      <point x="152" y="27" type="line"/>
      <point x="152" y="35" type="line"/>
      <point x="198" y="35" type="line"/>
      <point x="198" y="27" type="line"/>
      <point x="219" y="27" type="line"/>
      <point x="219" y="154" type="line"/>
    </contour>
    <contour>
      <point x="152" y="135" type="line"/>
      <point x="198" y="135" type="line"/>
      <point x="198" y="54" type="line"/>
      <point x="152" y="54" type="line"/>
    </contour>
  </outline>
</glyph>
<glyph name="rieulPieupJong-ko" format="2">
  <advance width="256" height="256"/>
  <unicode hex="11B2"/>
  <unicode hex="313C"/>
  <note>
uni11B2
</note>
  <outline>
    <contour>
      <point x="35" y="135" type="line"/>
      <point x="94" y="135" type="line"/>
      <point x="94" y="109" type="line"/>
      <point x="34" y="109" type="line"/>
      <point x="34" y="29" type="line"/>
      <point x="125" y="38" type="line"/>
      <point x="122" y="56" type="line"/>
      <point x="86" y="49"/>
      <point x="54" y="48" type="qcurve"/>
      <point x="54" y="90" type="line"/>
      <point x="114" y="90" type="line"/>
      <point x="114" y="154" type="line"/>
      <point x="35" y="154" type="line"/>
    </contour>
    <contour>
      <point x="152" y="115" type="line"/>
      <point x="152" y="154" type="line"/>
      <point x="132" y="154" type="line"/>
      <point x="132" y="28" type="line"/>
      <point x="152" y="28" type="line"/>
      <point x="152" y="33" type="line"/>
      <point x="199" y="33" type="line"/>
      <point x="199" y="28" type="line"/>
      <point x="219" y="28" type="line"/>
      <point x="219" y="154" type="line"/>
      <point x="199" y="154" type="line"/>
      <point x="199" y="115" type="line"/>
    </contour>
    <contour>
      <point x="152" y="52" type="line"/>
      <point x="152" y="97" type="line"/>
      <point x="199" y="97" type="line"/>
      <point x="199" y="52" type="line"/>
    </contour>
  </outline>
</glyph>
<glyph name="rieulSiosJong-ko" format="2">
  <advance width="256" height="256"/>
  <unicode hex="11B3"/>
  <unicode hex="313D"/>
  <note>
uni11B3
</note>
  <outline>
    <contour>
      <point x="191" y="54"/>
      <point x="224" y="31" type="qcurve"/>
      <point x="236" y="46" type="line"/>
      <point x="194" y="71"/>
      <point x="194" y="136" type="qcurve" smooth="yes"/>
      <point x="194" y="158" type="line"/>
      <point x="174" y="158" type="line"/>
      <point x="174" y="137" type="line"/>
      <point x="168" y="72"/>
      <point x="122" y="44" type="qcurve"/>
      <point x="135" y="28" type="line"/>
      <point x="172" y="55"/>
      <point x="183" y="99" type="qcurve"/>
    </contour>
    <contour>
      <point x="37" y="135" type="line"/>
      <point x="100" y="135" type="line"/>
      <point x="100" y="110" type="line"/>
      <point x="36" y="110" type="line"/>
      <point x="36" y="29" type="line"/>
      <point x="79" y="30"/>
      <point x="119" y="37" type="qcurve"/>
      <point x="116" y="55" type="line"/>
      <point x="56" y="48" type="line"/>
      <point x="56" y="91" type="line"/>
      <point x="120" y="91" type="line"/>
      <point x="120" y="154" type="line"/>
      <point x="37" y="154" type="line"/>
    </contour>
  </outline>
</glyph>
<glyph name="rieulThieuthJong-ko" format="2">
  <advance width="256" height="256"/>
  <unicode hex="11B4"/>
  <unicode hex="313E"/>
  <note>
uni11B4
</note>
  <outline>
    <contour>
      <point x="36" y="135" type="line"/>
      <point x="98" y="135" type="line"/>
      <point x="98" y="107" type="line"/>
      <point x="35" y="107" type="line"/>
      <point x="35" y="29" type="line"/>
      <point x="84" y="30"/>
      <point x="130" y="37" type="qcurve"/>
      <point x="127" y="55" type="line"/>
      <point x="55" y="48" type="line"/>
      <point x="55" y="88" type="line"/>
      <point x="118" y="88" type="line"/>
      <point x="118" y="154" type="line"/>
      <point x="36" y="154" type="line"/>
    </contour>
    <contour>
      <point x="155" y="104" type="line"/>
      <point x="155" y="135" type="line"/>
      <point x="217" y="135" type="line"/>
      <point x="217" y="154" type="line"/>
      <point x="135" y="154" type="line"/>
      <point x="135" y="29" type="line"/>
      <point x="222" y="29" type="line"/>
      <point x="222" y="48" type="line"/>
      <point x="155" y="48" type="line"/>
      <point x="155" y="85" type="line"/>
      <point x="217" y="85" type="line"/>
      <point x="217" y="104" type="line"/>
    </contour>
  </outline>
</glyph>
<glyph name="rieulPhieuphJong-ko" format="2">
  <advance width="256" height="256"/>
  <unicode hex="11B5"/>
  <unicode hex="313F"/>
  <note>
uni313F
</note>
  <outline>
    <contour>
      <point x="127" y="154" type="line"/>
      <point x="127" y="135" type="line"/>
      <point x="219" y="135" type="line"/>
      <point x="219" y="154" type="line"/>
    </contour>
    <contour>
      <point x="35" y="135" type="line"/>
      <point x="94" y="135" type="line"/>
      <point x="94" y="108" type="line"/>
      <point x="34" y="108" type="line"/>
      <point x="34" y="29" type="line"/>
      <point x="79" y="30"/>
      <point x="120" y="38" type="qcurve"/>
      <point x="117" y="55" type="line"/>
      <point x="54" y="48" type="line"/>
      <point x="54" y="89" type="line"/>
      <point x="114" y="89" type="line"/>
      <point x="114" y="154" type="line"/>
      <point x="35" y="154" type="line"/>
    </contour>
    <contour>
      <point x="202" y="49" type="line"/>
      <point x="208" y="129" type="line"/>
      <point x="190" y="129" type="line"/>
      <point x="183" y="49" type="line"/>
      <point x="165" y="49" type="line"/>
      <point x="160" y="129" type="line"/>
      <point x="142" y="129" type="line"/>
      <point x="146" y="49" type="line"/>
      <point x="123" y="49" type="line"/>
      <point x="123" y="30" type="line"/>
      <point x="224" y="30" type="line"/>
      <point x="224" y="49" type="line"/>
    </contour>
  </outline>
</glyph>
<glyph name="nieunPansiosJong-ko" format="2">
  <advance width="256" height="256"/>
  <unicode hex="11C8"/>
  <unicode hex="3168"/>
  <note>
uni3168
</note>
  <outline>
    <contour>
      <point x="114" y="32" type="line"/>
      <point x="230" y="32" type="line"/>
      <point x="173" y="165" type="line"/>
    </contour>
    <contour>
      <point x="202" y="49" type="line"/>
      <point x="143" y="49" type="line"/>
      <point x="173" y="123" type="line"/>
    </contour>
    <contour>
      <point x="28" y="30" type="line"/>
      <point x="76" y="30"/>
      <point x="114" y="39" type="qcurve"/>
      <point x="112" y="55" type="line"/>
      <point x="80" y="48"/>
      <point x="48" y="48" type="qcurve"/>
      <point x="48" y="153" type="line"/>
      <point x="28" y="153" type="line"/>
    </contour>
  </outline>
</glyph>
<glyph name="rieulKiyeokSiosJong-ko" format="2">
  <advance width="256" height="256"/>
  <unicode hex="11CC"/>
  <unicode hex="3169"/>
  <note>
uni3169
</note>
  <outline>
    <contour>
      <point x="174" y="37"/>
      <point x="181" y="49" type="qcurve"/>
      <point x="190" y="76" type="line"/>
      <point x="192" y="82" type="line"/>
      <point x="192" y="72"/>
      <point x="208" y="37"/>
      <point x="218" y="28" type="qcurve"/>
      <point x="231" y="44" type="line"/>
      <point x="202" y="66"/>
      <point x="202" y="119" type="qcurve" smooth="yes"/>
      <point x="202" y="158" type="line"/>
      <point x="182" y="158" type="line"/>
      <point x="182" y="120" type="line" smooth="yes"/>
      <point x="179" y="66"/>
      <point x="152" y="44" type="qcurve"/>
      <point x="164" y="28" type="line"/>
    </contour>
    <contour>
      <point x="30" y="135" type="line"/>
      <point x="71" y="135" type="line"/>
      <point x="71" y="110" type="line"/>
      <point x="30" y="110" type="line"/>
      <point x="30" y="29" type="line"/>
      <point x="69" y="30"/>
      <point x="106" y="37" type="qcurve"/>
      <point x="102" y="55" type="line"/>
      <point x="50" y="48" type="line"/>
      <point x="50" y="91" type="line"/>
      <point x="91" y="91" type="line"/>
      <point x="91" y="154" type="line"/>
      <point x="30" y="154" type="line"/>
    </contour>
    <contour>
      <point x="95" y="135" type="line"/>
      <point x="131" y="135" type="line"/>
      <point x="131" y="27" type="line"/>
      <point x="151" y="27" type="line"/>
      <point x="151" y="154" type="line"/>
      <point x="95" y="154" type="line"/>
    </contour>
  </outline>
</glyph>
<glyph name="rieulTikeutJong-ko" format="2">
  <advance width="256" height="256"/>
  <unicode hex="11CE"/>
  <unicode hex="316A"/>
  <note>
uni11CE
</note>
  <outline>
    <contour>
      <point x="141" y="154" type="line"/>
      <point x="141" y="29" type="line"/>
      <point x="231" y="29" type="line"/>
      <point x="231" y="48" type="line"/>
      <point x="160" y="48" type="line"/>
      <point x="160" y="135" type="line"/>
      <point x="227" y="135" type="line"/>
      <point x="227" y="154" type="line"/>
    </contour>
    <contour>
      <point x="29" y="135" type="line"/>
      <point x="92" y="135" type="line"/>
      <point x="92" y="108" type="line"/>
      <point x="30" y="108" type="line"/>
      <point x="30" y="29" type="line"/>
      <point x="79" y="30"/>
      <point x="125" y="37" type="qcurve"/>
      <point x="122" y="55" type="line"/>
      <point x="50" y="48" type="line"/>
      <point x="50" y="89" type="line"/>
      <point x="112" y="89" type="line"/>
      <point x="112" y="154" type="line"/>
      <point x="29" y="154" type="line"/>
    </contour>
  </outline>
</glyph>
<glyph name="rieulPieupSiosJong-ko" format="2">
  <advance width="256" height="256"/>
  <unicode hex="11D3"/>
  <unicode hex="316B"/>
  <note>
uni316B
</note>
  <outline>
    <contour>
      <point x="188" y="48" type="line"/>
      <point x="195" y="60"/>
      <point x="200" y="82" type="qcurve"/>
      <point x="200" y="71"/>
      <point x="216" y="37"/>
      <point x="226" y="28" type="qcurve"/>
      <point x="239" y="44" type="line"/>
      <point x="210" y="65"/>
      <point x="210" y="119" type="qcurve" smooth="yes"/>
      <point x="210" y="158" type="line"/>
      <point x="190" y="158" type="line"/>
      <point x="190" y="120" type="line"/>
      <point x="186" y="66"/>
      <point x="160" y="44" type="qcurve"/>
      <point x="173" y="28" type="line"/>
    </contour>
    <contour>
      <point x="29" y="135" type="line"/>
      <point x="66" y="135" type="line"/>
      <point x="66" y="109" type="line"/>
      <point x="30" y="109" type="line"/>
      <point x="30" y="29" type="line"/>
      <point x="61" y="30"/>
      <point x="90" y="36" type="qcurve"/>
      <point x="86" y="53" type="line"/>
      <point x="67" y="48"/>
      <point x="49" y="48" type="qcurve"/>
      <point x="49" y="90" type="line"/>
      <point x="86" y="90" type="line"/>
      <point x="86" y="154" type="line"/>
      <point x="29" y="154" type="line"/>
    </contour>
    <contour>
      <point x="114" y="115" type="line"/>
      <point x="114" y="154" type="line"/>
      <point x="95" y="154" type="line"/>
      <point x="95" y="28" type="line"/>
      <point x="114" y="28" type="line"/>
      <point x="114" y="33" type="line"/>
      <point x="139" y="33" type="line"/>
      <point x="139" y="28" type="line"/>
      <point x="158" y="28" type="line"/>
      <point x="158" y="154" type="line"/>
      <point x="139" y="154" type="line"/>
      <point x="139" y="115" type="line"/>
    </contour>
    <contour>
      <point x="114" y="52" type="line"/>
      <point x="114" y="97" type="line"/>
      <point x="139" y="97" type="line"/>
      <point x="139" y="52" type="line"/>
    </contour>
  </outline>
</glyph>
<glyph name="rieulPansiosJong-ko" format="2">
  <advance width="256" height="256"/>
  <unicode hex="11D7"/>
  <unicode hex="316C"/>
  <note>
uni316C
</note>
  <outline>
    <contour>
      <point x="122" y="32" type="line"/>
      <point x="238" y="32" type="line"/>
      <point x="181" y="165" type="line"/>
    </contour>
    <contour>
      <point x="209" y="49" type="line"/>
      <point x="151" y="49" type="line"/>
      <point x="181" y="123" type="line"/>
    </contour>
    <contour>
      <point x="29" y="135" type="line"/>
      <point x="93" y="135" type="line"/>
      <point x="93" y="106" type="line"/>
      <point x="30" y="106" type="line"/>
      <point x="30" y="29" type="line"/>
      <point x="77" y="30"/>
      <point x="121" y="37" type="qcurve"/>
      <point x="117" y="55" type="line"/>
      <point x="50" y="48" type="line"/>
      <point x="50" y="87" type="line"/>
      <point x="113" y="87" type="line"/>
      <point x="113" y="154" type="line"/>
      <point x="29" y="154" type="line"/>
    </contour>
  </outline>
</glyph>
<glyph name="rieulYeorinhieuhJong-ko" format="2">
  <advance width="256" height="256"/>
  <unicode hex="11D9"/>
  <unicode hex="316D"/>
  <note>
uni316D
</note>
  <outline>
    <contour>
      <point x="29" y="135" type="line"/>
      <point x="93" y="135" type="line"/>
      <point x="93" y="106" type="line"/>
      <point x="30" y="106" type="line"/>
      <point x="30" y="29" type="line"/>
      <point x="79" y="30"/>
      <point x="124" y="37" type="qcurve"/>
      <point x="121" y="55" type="line"/>
      <point x="50" y="48" type="line"/>
      <point x="50" y="87" type="line"/>
      <point x="113" y="87" type="line"/>
      <point x="113" y="154" type="line"/>
      <point x="29" y="154" type="line"/>
    </contour>
    <contour>
      <point x="122" y="154" type="line"/>
      <point x="122" y="135" type="line"/>
      <point x="237" y="135" type="line"/>
      <point x="237" y="154" type="line"/>
    </contour>
    <contour>
      <point x="135" y="111"/>
      <point x="135" y="72" type="qcurve" smooth="yes"/>
      <point x="135" y="51"/>
      <point x="160" y="25"/>
      <point x="181" y="25" type="qcurve" smooth="yes"/>
      <point x="200" y="25"/>
      <point x="226" y="51"/>
      <point x="226" y="72" type="qcurve" smooth="yes"/>
      <point x="226" y="111"/>
      <point x="190" y="118" type="qcurve"/>
      <point x="190" y="131" type="line"/>
      <point x="171" y="131" type="line"/>
      <point x="171" y="118" type="line"/>
    </contour>
    <contour>
      <point x="207" y="101"/>
      <point x="207" y="43"/>
      <point x="155" y="43"/>
      <point x="155" y="101"/>
    </contour>
  </outline>
</glyph>
<glyph name="mieumSiosJong-ko" format="2">
  <advance width="256" height="256"/>
  <unicode hex="11DD"/>
  <unicode hex="316F"/>
  <note>
uni316F
</note>
  <outline>
    <contour>
      <point x="181" y="49"/>
      <point x="222" y="29" type="qcurve"/>
      <point x="234" y="45" type="line"/>
      <point x="183" y="66"/>
      <point x="183" y="122" type="qcurve" smooth="yes"/>
      <point x="183" y="158" type="line"/>
      <point x="163" y="158" type="line"/>
      <point x="163" y="123" type="line"/>
      <point x="158" y="66"/>
      <point x="118" y="42" type="qcurve"/>
      <point x="131" y="26" type="line"/>
      <point x="165" y="50"/>
      <point x="174" y="85" type="qcurve"/>
    </contour>
    <contour>
      <point x="27" y="154" type="line"/>
      <point x="27" y="30" type="line"/>
      <point x="47" y="30" type="line"/>
      <point x="47" y="37" type="line"/>
      <point x="95" y="37" type="line"/>
      <point x="95" y="30" type="line"/>
      <point x="115" y="30" type="line"/>
      <point x="115" y="154" type="line"/>
    </contour>
    <contour>
      <point x="47" y="135" type="line"/>
      <point x="95" y="135" type="line"/>
      <point x="95" y="56" type="line"/>
      <point x="47" y="56" type="line"/>
    </contour>
  </outline>
</glyph>
<glyph name="mieumPansiosJong-ko" format="2">
  <advance width="256" height="256"/>
  <unicode hex="11DF"/>
  <unicode hex="3170"/>
  <note>
uni11DF
</note>
  <outline>
    <contour>
      <point x="123" y="32" type="line"/>
      <point x="234" y="32" type="line"/>
      <point x="179" y="165" type="line"/>
    </contour>
    <contour>
      <point x="206" y="49" type="line"/>
      <point x="151" y="49" type="line"/>
      <point x="179" y="123" type="line"/>
    </contour>
    <contour>
      <point x="35" y="154" type="line"/>
      <point x="35" y="30" type="line"/>
      <point x="55" y="30" type="line"/>
      <point x="55" y="37" type="line"/>
      <point x="101" y="37" type="line"/>
      <point x="101" y="30" type="line"/>
      <point x="121" y="30" type="line"/>
      <point x="121" y="154" type="line"/>
    </contour>
    <contour>
      <point x="55" y="135" type="line"/>
      <point x="101" y="135" type="line"/>
      <point x="101" y="56" type="line"/>
      <point x="55" y="56" type="line"/>
    </contour>
  </outline>
</glyph>
<glyph name="yesieungSiosJong-ko" format="2">
  <advance width="256" height="256"/>
  <unicode hex="11F1"/>
  <unicode hex="3182"/>
  <note>
uni11F1
</note>
  <outline>
    <contour>
      <point x="46" y="147"/>
      <point x="23" y="114"/>
      <point x="23" y="88" type="qcurve" smooth="yes"/>
      <point x="23" y="59"/>
      <point x="50" y="26"/>
      <point x="71" y="26" type="qcurve" smooth="yes"/>
      <point x="93" y="26"/>
      <point x="121" y="59"/>
      <point x="121" y="88" type="qcurve" smooth="yes"/>
      <point x="121" y="140"/>
      <point x="82" y="149" type="qcurve"/>
      <point x="82" y="162" type="line"/>
      <point x="63" y="162" type="line"/>
      <point x="63" y="149" type="line"/>
    </contour>
    <contour>
      <point x="101" y="131"/>
      <point x="101" y="45"/>
      <point x="71" y="45" type="qcurve" smooth="yes"/>
      <point x="43" y="45"/>
      <point x="43" y="131"/>
      <point x="71" y="131" type="qcurve" smooth="yes"/>
    </contour>
    <contour>
      <point x="186" y="54"/>
      <point x="218" y="31" type="qcurve"/>
      <point x="230" y="46" type="line"/>
      <point x="188" y="72"/>
      <point x="188" y="137" type="qcurve" smooth="yes"/>
      <point x="188" y="158" type="line"/>
      <point x="168" y="158" type="line"/>
      <point x="168" y="138" type="line"/>
      <point x="162" y="73"/>
      <point x="115" y="45" type="qcurve"/>
      <point x="128" y="29" type="line"/>
      <point x="167" y="58"/>
      <point x="177" y="100" type="qcurve"/>
    </contour>
  </outline>
</glyph>
<glyph name="yesieungPansiosJong-ko" format="2">
  <advance width="256" height="256"/>
  <unicode hex="11F2"/>
  <unicode hex="3183"/>
  <note>
uni11F2
</note>
  <outline>
    <contour>
      <point x="116" y="32" type="line"/>
      <point x="231" y="32" type="line"/>
      <point x="174" y="165" type="line"/>
    </contour>
    <contour>
      <point x="203" y="49" type="line"/>
      <point x="144" y="49" type="line"/>
      <point x="174" y="123" type="line"/>
    </contour>
    <contour>
      <point x="46" y="147"/>
      <point x="23" y="114"/>
      <point x="23" y="88" type="qcurve" smooth="yes"/>
      <point x="23" y="59"/>
      <point x="50" y="26"/>
      <point x="71" y="26" type="qcurve" smooth="yes"/>
      <point x="93" y="26"/>
      <point x="121" y="59"/>
      <point x="121" y="88" type="qcurve" smooth="yes"/>
      <point x="121" y="140"/>
      <point x="82" y="149" type="qcurve"/>
      <point x="82" y="162" type="line"/>
      <point x="63" y="162" type="line"/>
      <point x="63" y="149" type="line"/>
    </contour>
    <contour>
      <point x="101" y="131"/>
      <point x="101" y="45"/>
      <point x="71" y="45" type="qcurve" smooth="yes"/>
      <point x="43" y="45"/>
      <point x="43" y="131"/>
      <point x="71" y="131" type="qcurve" smooth="yes"/>
    </contour>
  </outline>
</glyph>
<glyph name="comma-han" format="2">
  <advance width="256" height="256"/>
  <unicode hex="3001"/>
  <note>
uni3001
</note>
  <outline>
    <contour>
      <point x="57" y="9"/>
      <point x="21" y="38" type="qcurve"/>
      <point x="6" y="26" type="line"/>
      <point x="38" y="2"/>
      <point x="58" y="-30" type="qcurve"/>
      <point x="73" y="-17" type="line"/>
    </contour>
  </outline>
</glyph>
<glyph name="period-han" format="2">
  <advance width="256" height="256"/>
  <unicode hex="3002"/>
  <note>
uni3002
</note>
  <outline>
    <contour>
      <point x="6" y="-9"/>
      <point x="26" y="-29"/>
      <point x="41" y="-29" type="qcurve" smooth="yes"/>
      <point x="55" y="-29"/>
      <point x="75" y="-9"/>
      <point x="75" y="19"/>
      <point x="55" y="39"/>
      <point x="41" y="39" type="qcurve" smooth="yes"/>
      <point x="26" y="39"/>
      <point x="6" y="19"/>
    </contour>
    <contour>
      <point x="22" y="23"/>
      <point x="41" y="23" type="qcurve" smooth="yes"/>
      <point x="59" y="23"/>
      <point x="59" y="5" type="qcurve" smooth="yes"/>
      <point x="59" y="-3"/>
      <point x="48" y="-14"/>
      <point x="41" y="-14" type="qcurve" smooth="yes"/>
      <point x="22" y="-14"/>
      <point x="22" y="5" type="qcurve" smooth="yes"/>
    </contour>
  </outline>
</glyph>
<glyph name="dittomark" format="2">
  <advance width="256" height="256"/>
  <unicode hex="3003"/>
  <note>
uni3003
</note>
  <outline>
    <contour>
      <point x="156" y="145" type="line"/>
      <point x="127" y="44" type="line"/>
      <point x="146" y="40" type="line"/>
      <point x="181" y="140" type="line"/>
    </contour>
    <contour>
      <point x="105" y="145" type="line"/>
      <point x="77" y="45" type="line"/>
      <point x="96" y="40" type="line"/>
      <point x="130" y="140" type="line"/>
    </contour>
  </outline>
</glyph>
<glyph name="iterationmark-han" format="2">
  <advance width="256" height="256"/>
  <unicode hex="3005"/>
  <note>
uni3005
</note>
  <outline>
    <contour>
      <point x="183" y="129" type="line"/>
      <point x="165" y="80"/>
      <point x="111" y="41" type="qcurve"/>
      <point x="74" y="57" type="line"/>
      <point x="65" y="39" type="line"/>
      <point x="115" y="18"/>
      <point x="160" y="-13" type="qcurve"/>
      <point x="174" y="6" type="line"/>
      <point x="132" y="31" type="line"/>
      <point x="166" y="57"/>
      <point x="205" y="122"/>
      <point x="205" y="132" type="qcurve" smooth="yes"/>
      <point x="205" y="149" type="line"/>
      <point x="97" y="149" type="line"/>
      <point x="114" y="184" type="line"/>
      <point x="96" y="196" type="line"/>
      <point x="72" y="143"/>
      <point x="31" y="94" type="qcurve"/>
      <point x="49" y="81" type="line"/>
      <point x="85" y="129" type="line"/>
    </contour>
  </outline>
</glyph>
<glyph name="close-han" format="2">
  <advance width="256" height="256"/>
  <unicode hex="3006"/>
  <note>
uni3006
</note>
  <outline>
    <contour>
      <point x="208" y="177" type="line"/>
      <point x="145" y="120" type="line"/>
      <point x="129" y="138"/>
      <point x="112" y="138" type="qcurve" smooth="yes"/>
      <point x="87" y="138"/>
      <point x="56" y="62" type="qcurve" smooth="yes"/>
      <point x="48" y="41"/>
      <point x="34" y="24" type="qcurve"/>
      <point x="49" y="7" type="line"/>
      <point x="141" y="91" type="line"/>
      <point x="159" y="67" type="line"/>
      <point x="176" y="81" type="line"/>
      <point x="159" y="106" type="line"/>
      <point x="222" y="160" type="line"/>
    </contour>
    <contour>
      <point x="76" y="60" type="line"/>
      <point x="97" y="104"/>
      <point x="107" y="117"/>
      <point x="112" y="117" type="qcurve" smooth="yes"/>
      <point x="120" y="117"/>
      <point x="129" y="108" type="qcurve"/>
    </contour>
  </outline>
</glyph>
<glyph name="zero-han" format="2">
  <advance width="256" height="256"/>
  <unicode hex="3007"/>
  <note>
uni3007
</note>
  <outline>
    <contour>
      <point x="175" y="-14"/>
      <point x="240" y="49"/>
      <point x="240" y="93" type="qcurve" smooth="yes"/>
      <point x="240" y="136"/>
      <point x="175" y="199"/>
      <point x="81" y="199"/>
      <point x="16" y="136"/>
      <point x="16" y="93" type="qcurve" smooth="yes"/>
      <point x="16" y="49"/>
      <point x="81" y="-14"/>
    </contour>
    <contour>
      <point x="167" y="182"/>
      <point x="221" y="129"/>
      <point x="221" y="57"/>
      <point x="167" y="5"/>
      <point x="128" y="5" type="qcurve" smooth="yes"/>
      <point x="88" y="5"/>
      <point x="35" y="57"/>
      <point x="35" y="129"/>
      <point x="89" y="182"/>
    </contour>
  </outline>
</glyph>
<glyph name="dblanglebracketleft" format="2">
  <advance width="256" height="256"/>
  <unicode hex="300A"/>
  <note>
uni300A
</note>
  <outline>
    <contour>
      <point x="178" y="92" type="line"/>
      <point x="228" y="197" type="line"/>
      <point x="214" y="204" type="line"/>
      <point x="160" y="92" type="line"/>
      <point x="214" y="-19" type="line"/>
      <point x="228" y="-11" type="line"/>
    </contour>
    <contour>
      <point x="146" y="92" type="line"/>
      <point x="196" y="197" type="line"/>
      <point x="181" y="204" type="line"/>
      <point x="128" y="92" type="line"/>
      <point x="181" y="-19" type="line"/>
      <point x="196" y="-11" type="line"/>
    </contour>
  </outline>
</glyph>
<glyph name="dblanglebracketright" format="2">
  <advance width="256" height="256"/>
  <unicode hex="300B"/>
  <note>
uni300B
</note>
  <outline>
    <contour>
      <point x="75" y="204" type="line"/>
      <point x="60" y="197" type="line"/>
      <point x="110" y="92" type="line"/>
      <point x="60" y="-11" type="line"/>
      <point x="75" y="-19" type="line"/>
      <point x="128" y="92" type="line"/>
    </contour>
    <contour>
      <point x="42" y="204" type="line"/>
      <point x="27" y="197" type="line"/>
      <point x="78" y="92" type="line"/>
      <point x="27" y="-11" type="line"/>
      <point x="42" y="-19" type="line"/>
      <point x="96" y="92" type="line"/>
    </contour>
  </outline>
</glyph>
<glyph name="cornerbracketleft" format="2">
  <advance width="256" height="256"/>
  <unicode hex="300C"/>
  <note>
uni300C
</note>
  <outline>
    <contour>
      <point x="196" y="204" type="line"/>
      <point x="128" y="204" type="line"/>
      <point x="128" y="92" type="line"/>
      <point x="151" y="92" type="line"/>
      <point x="151" y="185" type="line"/>
      <point x="196" y="185" type="line"/>
    </contour>
  </outline>
</glyph>
<glyph name="cornerbracketright" format="2">
  <advance width="256" height="256"/>
  <unicode hex="300D"/>
  <note>
uni300D
</note>
  <outline>
    <contour>
      <point x="128" y="92" type="line"/>
      <point x="105" y="92" type="line"/>
      <point x="105" y="-1" type="line"/>
      <point x="60" y="-1" type="line"/>
      <point x="60" y="-19" type="line"/>
      <point x="128" y="-19" type="line"/>
    </contour>
  </outline>
</glyph>
<glyph name="whitecornerbracketleft" format="2">
  <advance width="256" height="256"/>
  <unicode hex="300E"/>
  <note>
uni300E
</note>
  <outline>
    <contour>
      <point x="213" y="204" type="line"/>
      <point x="128" y="204" type="line"/>
      <point x="128" y="92" type="line"/>
      <point x="178" y="92" type="line"/>
      <point x="178" y="153" type="line"/>
      <point x="213" y="153" type="line"/>
    </contour>
    <contour>
      <point x="163" y="169" type="line"/>
      <point x="163" y="108" type="line"/>
      <point x="144" y="108" type="line"/>
      <point x="144" y="188" type="line"/>
      <point x="197" y="188" type="line"/>
      <point x="197" y="169" type="line"/>
    </contour>
  </outline>
</glyph>
<glyph name="whitecornerbracketright" format="2">
  <advance width="256" height="256"/>
  <unicode hex="300F"/>
  <note>
uni300F
</note>
  <outline>
    <contour>
      <point x="128" y="92" type="line"/>
      <point x="77" y="92" type="line"/>
      <point x="77" y="32" type="line"/>
      <point x="43" y="32" type="line"/>
      <point x="43" y="-19" type="line"/>
      <point x="128" y="-19" type="line"/>
    </contour>
    <contour>
      <point x="59" y="-3" type="line"/>
      <point x="59" y="16" type="line"/>
      <point x="93" y="16" type="line"/>
      <point x="93" y="76" type="line"/>
      <point x="112" y="76" type="line"/>
      <point x="112" y="-3" type="line"/>
    </contour>
  </outline>
</glyph>
<glyph name="blacklenticularbracketleft" format="2">
  <advance width="256" height="256"/>
  <unicode hex="3010"/>
  <note>
uni3010
</note>
  <outline>
    <contour>
      <point x="208" y="-11" type="line"/>
      <point x="158" y="34"/>
      <point x="158" y="92" type="qcurve" smooth="yes"/>
      <point x="158" y="152"/>
      <point x="208" y="195" type="qcurve"/>
      <point x="208" y="204" type="line"/>
      <point x="128" y="204" type="line"/>
      <point x="128" y="-19" type="line"/>
      <point x="208" y="-19" type="line"/>
    </contour>
  </outline>
</glyph>
<glyph name="blacklenticularbracketright" format="2">
  <advance width="256" height="256"/>
  <unicode hex="3011"/>
  <note>
uni3011
</note>
  <outline>
    <contour>
      <point x="128" y="204" type="line"/>
      <point x="48" y="204" type="line"/>
      <point x="48" y="195" type="line"/>
      <point x="98" y="152"/>
      <point x="98" y="92" type="qcurve" smooth="yes"/>
      <point x="98" y="34"/>
      <point x="48" y="-11" type="qcurve"/>
      <point x="48" y="-19" type="line"/>
      <point x="128" y="-19" type="line"/>
    </contour>
  </outline>
</glyph>
<glyph name="postalmark" format="2">
  <advance width="256" height="256"/>
  <unicode hex="3012"/>
  <note>
uni3012
</note>
  <outline>
    <contour>
      <point x="216" y="183" type="line"/>
      <point x="40" y="183" type="line"/>
      <point x="40" y="162" type="line"/>
      <point x="216" y="162" type="line"/>
    </contour>
    <contour>
      <point x="216" y="130" type="line"/>
      <point x="40" y="130" type="line"/>
      <point x="40" y="109" type="line"/>
      <point x="117" y="109" type="line"/>
      <point x="117" y="0" type="line"/>
      <point x="139" y="0" type="line"/>
      <point x="139" y="109" type="line"/>
      <point x="216" y="109" type="line"/>
    </contour>
  </outline>
</glyph>
<glyph name="getamark" format="2">
  <advance width="256" height="256"/>
  <unicode hex="3013"/>
  <note>
uni3013
</note>
  <outline>
    <contour>
      <point x="204" y="168" type="line"/>
      <point x="51" y="168" type="line"/>
      <point x="51" y="117" type="line"/>
      <point x="204" y="117" type="line"/>
    </contour>
    <contour>
      <point x="204" y="68" type="line"/>
      <point x="51" y="68" type="line"/>
      <point x="51" y="17" type="line"/>
      <point x="204" y="17" type="line"/>
    </contour>
  </outline>
</glyph>
<glyph name="tortoiseshellbracketleft" format="2">
  <advance width="256" height="256"/>
  <unicode hex="3014"/>
  <note>
uni3014
</note>
  <outline>
    <contour>
      <point x="151" y="17" type="line"/>
      <point x="151" y="167" type="line"/>
      <point x="190" y="187" type="line"/>
      <point x="181" y="204" type="line"/>
      <point x="128" y="176" type="line"/>
      <point x="128" y="8" type="line"/>
      <point x="181" y="-20" type="line"/>
      <point x="190" y="-3" type="line"/>
    </contour>
  </outline>
</glyph>
<glyph name="tortoiseshellbracketright" format="2">
  <advance width="256" height="256"/>
  <unicode hex="3015"/>
  <note>
uni3015
</note>
  <outline>
    <contour>
      <point x="128" y="176" type="line"/>
      <point x="75" y="204" type="line"/>
      <point x="66" y="187" type="line"/>
      <point x="105" y="167" type="line"/>
      <point x="105" y="17" type="line"/>
      <point x="66" y="-3" type="line"/>
      <point x="75" y="-20" type="line"/>
      <point x="128" y="8" type="line"/>
    </contour>
  </outline>
</glyph>
<glyph name="whitelenticularbracketleft" format="2">
  <advance width="256" height="256"/>
  <unicode hex="3016"/>
  <note>
uni3016
</note>
  <outline>
    <contour>
      <point x="213" y="-9" type="line"/>
      <point x="180" y="34"/>
      <point x="180" y="92" type="qcurve" smooth="yes"/>
      <point x="180" y="151"/>
      <point x="213" y="194" type="qcurve"/>
      <point x="213" y="204" type="line"/>
      <point x="128" y="204" type="line"/>
      <point x="128" y="-19" type="line"/>
      <point x="213" y="-19" type="line"/>
    </contour>
    <contour>
      <point x="144" y="-5" type="line"/>
      <point x="144" y="189" type="line"/>
      <point x="191" y="189" type="line"/>
      <point x="165" y="149"/>
      <point x="165" y="35"/>
      <point x="191" y="-5" type="qcurve"/>
    </contour>
  </outline>
</glyph>
<glyph name="whitelenticularbracketright" format="2">
  <advance width="256" height="256"/>
  <unicode hex="3017"/>
  <note>
uni3017
</note>
  <outline>
    <contour>
      <point x="128" y="204" type="line"/>
      <point x="43" y="204" type="line"/>
      <point x="43" y="194" type="line"/>
      <point x="76" y="151"/>
      <point x="76" y="92" type="qcurve" smooth="yes"/>
      <point x="76" y="34"/>
      <point x="43" y="-9" type="qcurve"/>
      <point x="43" y="-19" type="line"/>
      <point x="128" y="-19" type="line"/>
    </contour>
    <contour>
      <point x="65" y="-5" type="line"/>
      <point x="91" y="39"/>
      <point x="91" y="145"/>
      <point x="65" y="189" type="qcurve"/>
      <point x="112" y="189" type="line"/>
      <point x="112" y="-5" type="line"/>
    </contour>
  </outline>
</glyph>
<glyph name="whitetortoiseshellbracketleft" format="2">
  <advance width="256" height="256"/>
  <unicode hex="3018"/>
  <note>
uni3018
</note>
  <outline>
    <contour>
      <point x="241" y="151" type="line"/>
      <point x="241" y="168" type="line"/>
      <point x="188" y="148" type="line"/>
      <point x="188" y="36" type="line"/>
      <point x="241" y="17" type="line"/>
      <point x="241" y="35" type="line"/>
      <point x="205" y="47" type="line"/>
      <point x="205" y="137" type="line"/>
    </contour>
    <contour>
      <point x="241" y="194" type="line"/>
      <point x="241" y="211" type="line"/>
      <point x="152" y="177" type="line"/>
      <point x="152" y="7" type="line"/>
      <point x="241" y="-26" type="line"/>
      <point x="241" y="-9" type="line"/>
      <point x="169" y="17" type="line"/>
      <point x="169" y="167" type="line"/>
    </contour>
  </outline>
</glyph>
<glyph name="whitetortoiseshellbracketright" format="2">
  <advance width="256" height="256"/>
  <unicode hex="3019"/>
  <note>
uni3019
</note>
  <outline>
    <contour>
      <point x="50" y="137" type="line"/>
      <point x="50" y="47" type="line"/>
      <point x="14" y="35" type="line"/>
      <point x="14" y="17" type="line"/>
      <point x="67" y="36" type="line"/>
      <point x="67" y="148" type="line"/>
      <point x="14" y="168" type="line"/>
      <point x="14" y="151" type="line"/>
    </contour>
    <contour>
      <point x="86" y="167" type="line"/>
      <point x="86" y="17" type="line"/>
      <point x="14" y="-9" type="line"/>
      <point x="14" y="-26" type="line"/>
      <point x="103" y="7" type="line"/>
      <point x="103" y="177" type="line"/>
      <point x="14" y="211" type="line"/>
      <point x="14" y="194" type="line"/>
    </contour>
  </outline>
</glyph>
<glyph name="wavedash" format="2">
  <advance width="256" height="256"/>
  <unicode hex="301C"/>
  <note>
uni301C
</note>
  <outline>
    <contour>
      <point x="213" y="119"/>
      <point x="177" y="119" type="qcurve" smooth="yes"/>
      <point x="159" y="119"/>
      <point x="96" y="93"/>
      <point x="80" y="93" type="qcurve" smooth="yes"/>
      <point x="51" y="93"/>
      <point x="23" y="117" type="qcurve"/>
      <point x="10" y="102" type="line"/>
      <point x="46" y="74"/>
      <point x="81" y="74" type="qcurve" smooth="yes"/>
      <point x="101" y="74"/>
      <point x="164" y="100"/>
      <point x="176" y="100" type="qcurve" smooth="yes"/>
      <point x="205" y="100"/>
      <point x="232" y="74" type="qcurve"/>
      <point x="246" y="88" type="line"/>
    </contour>
  </outline>
</glyph>
<glyph name="quotedoubleprimeReversed" format="2">
  <advance width="256" height="256"/>
  <unicode hex="301D"/>
  <note>
uni301D
</note>
  <outline>
    <contour>
      <point x="240" y="217" type="line"/>
      <point x="215" y="217" type="line"/>
      <point x="214" y="214" type="line"/>
      <point x="220" y="189"/>
      <point x="236" y="154" type="qcurve"/>
      <point x="253" y="154" type="line"/>
    </contour>
    <contour>
      <point x="192" y="217" type="line"/>
      <point x="167" y="217" type="line"/>
      <point x="165" y="214" type="line"/>
      <point x="187" y="154" type="line"/>
      <point x="205" y="154" type="line"/>
    </contour>
  </outline>
</glyph>
<glyph name="quotedoubleprime" format="2">
  <advance width="256" height="256"/>
  <unicode hex="301E"/>
  <note>
uni301E
</note>
  <outline>
    <contour>
      <point x="89" y="217" type="line"/>
      <point x="64" y="217" type="line"/>
      <point x="51" y="154" type="line"/>
      <point x="68" y="154" type="line"/>
      <point x="84" y="189"/>
      <point x="90" y="214" type="qcurve"/>
    </contour>
    <contour>
      <point x="41" y="217" type="line"/>
      <point x="16" y="217" type="line"/>
      <point x="3" y="154" type="line"/>
      <point x="20" y="154" type="line"/>
      <point x="36" y="189"/>
      <point x="42" y="214" type="qcurve"/>
    </contour>
  </outline>
</glyph>
<glyph name="lowquotedoubleprime" format="2">
  <advance width="256" height="256"/>
  <unicode hex="301F"/>
  <note>
uni301F
</note>
  <outline>
    <contour>
      <point x="73" y="30" type="line"/>
      <point x="51" y="-30" type="line"/>
      <point x="53" y="-33" type="line"/>
      <point x="78" y="-33" type="line"/>
      <point x="90" y="30" type="line"/>
    </contour>
    <contour>
      <point x="25" y="30" type="line"/>
      <point x="9" y="-5"/>
      <point x="3" y="-30" type="qcurve"/>
      <point x="5" y="-33" type="line"/>
      <point x="30" y="-33" type="line"/>
      <point x="42" y="30" type="line"/>
    </contour>
  </outline>
</glyph>
<glyph name="one-hangzhou" format="2">
  <advance width="256" height="256"/>
  <unicode hex="3021"/>
  <note>
uni3021
</note>
  <outline>
    <contour>
      <point x="118" y="-22" type="line"/>
      <point x="138" y="-22" type="line"/>
      <point x="138" y="203" type="line"/>
      <point x="118" y="203" type="line"/>
    </contour>
  </outline>
</glyph>
<glyph name="two-hangzhou" format="2">
  <advance width="256" height="256"/>
  <unicode hex="3022"/>
  <note>
uni3022
</note>
  <outline>
    <contour>
      <point x="156" y="-20" type="line"/>
      <point x="176" y="-20" type="line"/>
      <point x="176" y="203" type="line"/>
      <point x="156" y="203" type="line"/>
    </contour>
    <contour>
      <point x="79" y="18" type="line"/>
      <point x="99" y="18" type="line"/>
      <point x="99" y="175" type="line"/>
      <point x="79" y="175" type="line"/>
    </contour>
  </outline>
</glyph>
<glyph name="three-hangzhou" format="2">
  <advance width="256" height="256"/>
  <unicode hex="3023"/>
  <note>
uni3023
</note>
  <outline>
    <contour>
      <point x="188" y="-23" type="line"/>
      <point x="208" y="-23" type="line"/>
      <point x="208" y="204" type="line"/>
      <point x="188" y="204" type="line"/>
    </contour>
    <contour>
      <point x="52" y="6" type="line"/>
      <point x="72" y="6" type="line"/>
      <point x="72" y="184" type="line"/>
      <point x="52" y="184" type="line"/>
    </contour>
    <contour>
      <point x="119" y="21" type="line"/>
      <point x="139" y="21" type="line"/>
      <point x="139" y="167" type="line"/>
      <point x="119" y="167" type="line"/>
    </contour>
  </outline>
</glyph>
<glyph name="four-hangzhou" format="2">
  <advance width="256" height="256"/>
  <unicode hex="3024"/>
  <note>
uni3024
</note>
  <outline>
    <contour>
      <point x="169" y="122"/>
      <point x="147" y="87" type="qcurve"/>
      <point x="60" y="138" type="line"/>
      <point x="51" y="120" type="line"/>
      <point x="135" y="69" type="line"/>
      <point x="101" y="22"/>
      <point x="21" y="1" type="qcurve"/>
      <point x="32" y="-18" type="line"/>
      <point x="109" y="1"/>
      <point x="153" y="56" type="qcurve"/>
      <point x="210" y="12" type="line"/>
      <point x="223" y="30" type="line"/>
      <point x="165" y="75" type="line"/>
      <point x="190" y="118"/>
      <point x="203" y="194" type="qcurve"/>
      <point x="180" y="194" type="line"/>
    </contour>
  </outline>
</glyph>
<glyph name="five-hangzhou" format="2">
  <advance width="256" height="256"/>
  <unicode hex="3025"/>
  <note>
uni3025
</note>
  <outline>
    <contour>
      <point x="176" y="185" type="line"/>
      <point x="165" y="148"/>
      <point x="126" y="123" type="qcurve"/>
      <point x="101" y="137"/>
      <point x="101" y="145" type="qcurve" smooth="yes"/>
      <point x="101" y="151"/>
      <point x="116" y="160" type="qcurve"/>
      <point x="103" y="175" type="line"/>
      <point x="78" y="161"/>
      <point x="78" y="145" type="qcurve" smooth="yes"/>
      <point x="78" y="125"/>
      <point x="106" y="111" type="qcurve"/>
      <point x="59" y="81"/>
      <point x="59" y="52" type="qcurve" smooth="yes"/>
      <point x="59" y="29"/>
      <point x="93" y="-3"/>
      <point x="145" y="-3"/>
      <point x="182" y="32"/>
      <point x="182" y="56" type="qcurve" smooth="yes"/>
      <point x="182" y="90"/>
      <point x="145" y="112" type="qcurve"/>
      <point x="183" y="138"/>
      <point x="196" y="178" type="qcurve"/>
    </contour>
    <contour>
      <point x="159" y="83"/>
      <point x="159" y="57" type="qcurve" smooth="yes"/>
      <point x="159" y="17"/>
      <point x="119" y="17" type="qcurve" smooth="yes"/>
      <point x="82" y="17"/>
      <point x="82" y="51" type="qcurve" smooth="yes"/>
      <point x="82" y="76"/>
      <point x="126" y="100" type="qcurve"/>
    </contour>
  </outline>
</glyph>
<glyph name="six-hangzhou" format="2">
  <advance width="256" height="256"/>
  <unicode hex="3026"/>
  <note>
uni3026
</note>
  <outline>
    <contour>
      <point x="101" y="161" type="line"/>
      <point x="114" y="141"/>
      <point x="120" y="116" type="qcurve"/>
      <point x="144" y="124" type="line"/>
      <point x="137" y="148"/>
      <point x="123" y="168" type="qcurve"/>
    </contour>
    <contour>
      <point x="13" y="88" type="line"/>
      <point x="243" y="88" type="line"/>
      <point x="243" y="107" type="line"/>
      <point x="13" y="107" type="line"/>
    </contour>
  </outline>
</glyph>
<glyph name="seven-hangzhou" format="2">
  <advance width="256" height="256"/>
  <unicode hex="3027"/>
  <note>
uni3027
</note>
  <outline>
    <contour>
      <point x="101" y="186" type="line"/>
      <point x="116" y="165"/>
      <point x="123" y="140" type="qcurve"/>
      <point x="144" y="147" type="line"/>
      <point x="137" y="172"/>
      <point x="122" y="192" type="qcurve"/>
    </contour>
    <contour>
      <point x="13" y="112" type="line"/>
      <point x="243" y="112" type="line"/>
      <point x="243" y="131" type="line"/>
      <point x="13" y="131" type="line"/>
    </contour>
    <contour>
      <point x="32" y="41" type="line"/>
      <point x="219" y="41" type="line"/>
      <point x="219" y="60" type="line"/>
      <point x="32" y="60" type="line"/>
    </contour>
  </outline>
</glyph>
<glyph name="eight-hangzhou" format="2">
  <advance width="256" height="256"/>
  <unicode hex="3028"/>
  <note>
uni3028
</note>
  <outline>
    <contour>
      <point x="104" y="194" type="line"/>
      <point x="117" y="177"/>
      <point x="123" y="155" type="qcurve"/>
      <point x="144" y="162" type="line"/>
      <point x="137" y="183"/>
      <point x="124" y="200" type="qcurve"/>
    </contour>
    <contour>
      <point x="15" y="127" type="line"/>
      <point x="241" y="127" type="line"/>
      <point x="241" y="146" type="line"/>
      <point x="15" y="146" type="line"/>
    </contour>
    <contour>
      <point x="37" y="74" type="line"/>
      <point x="212" y="74" type="line"/>
      <point x="212" y="93" type="line"/>
      <point x="37" y="93" type="line"/>
    </contour>
    <contour>
      <point x="21" y="15" type="line"/>
      <point x="233" y="15" type="line"/>
      <point x="233" y="34" type="line"/>
      <point x="21" y="34" type="line"/>
    </contour>
  </outline>
</glyph>
<glyph name="nine-hangzhou" format="2">
  <advance width="256" height="256"/>
  <unicode hex="3029"/>
  <note>
uni3029
</note>
  <outline>
    <contour>
      <point x="78" y="153"/>
      <point x="48" y="120" type="qcurve"/>
      <point x="64" y="107" type="line"/>
      <point x="80" y="123"/>
      <point x="90" y="142" type="qcurve"/>
      <point x="171" y="142" type="line"/>
      <point x="161" y="97"/>
      <point x="120" y="60" type="qcurve"/>
      <point x="101" y="79"/>
      <point x="86" y="107" type="qcurve"/>
      <point x="69" y="96" type="line"/>
      <point x="83" y="69"/>
      <point x="103" y="46" type="qcurve"/>
      <point x="77" y="27"/>
      <point x="28" y="12" type="qcurve"/>
      <point x="41" y="-7" type="line"/>
      <point x="101" y="14"/>
      <point x="119" y="32" type="qcurve"/>
      <point x="164" y="-5"/>
      <point x="227" y="-8" type="qcurve"/>
      <point x="233" y="13" type="line"/>
      <point x="173" y="17"/>
      <point x="136" y="46" type="qcurve"/>
      <point x="187" y="94"/>
      <point x="195" y="161" type="qcurve"/>
      <point x="101" y="161" type="line"/>
      <point x="115" y="190" type="line"/>
      <point x="95" y="197" type="line"/>
    </contour>
  </outline>
</glyph>
<glyph name="asmall-hira" format="2">
  <advance width="256" height="256"/>
  <unicode hex="3041"/>
  <note>
uni3041
</note>
  <outline>
    <contour>
      <point x="209" y="-10"/>
      <point x="209" y="37" type="qcurve" smooth="yes"/>
      <point x="209" y="77"/>
      <point x="162" y="90" type="qcurve"/>
      <point x="163" y="95" type="line"/>
      <point x="142" y="101" type="line"/>
      <point x="140" y="93" type="line"/>
      <point x="134" y="94" type="line"/>
      <point x="115" y="92" type="line"/>
      <point x="116" y="109" type="line"/>
      <point x="195" y="112" type="line"/>
      <point x="194" y="131" type="line"/>
      <point x="118" y="127" type="line"/>
      <point x="120" y="151" type="line"/>
      <point x="99" y="154" type="line"/>
      <point x="97" y="127" type="line"/>
      <point x="56" y="129" type="line"/>
      <point x="56" y="109" type="line"/>
      <point x="96" y="109" type="line"/>
      <point x="95" y="86" type="line"/>
      <point x="47" y="64"/>
      <point x="47" y="25" type="qcurve" smooth="yes"/>
      <point x="47" y="11"/>
      <point x="66" y="-9"/>
      <point x="80" y="-9" type="qcurve" smooth="yes"/>
      <point x="97" y="-9"/>
      <point x="139" y="30"/>
      <point x="155" y="71" type="qcurve"/>
      <point x="187" y="62"/>
      <point x="187" y="39" type="qcurve" smooth="yes"/>
      <point x="187" y="6"/>
      <point x="123" y="2" type="qcurve"/>
      <point x="131" y="-19" type="line"/>
    </contour>
    <contour>
      <point x="125" y="49"/>
      <point x="114" y="34" type="qcurve"/>
      <point x="115" y="72" type="line"/>
      <point x="134" y="74" type="line"/>
    </contour>
    <contour>
      <point x="89" y="11"/>
      <point x="81" y="11" type="qcurve" smooth="yes"/>
      <point x="68" y="11"/>
      <point x="68" y="26" type="qcurve" smooth="yes"/>
      <point x="68" y="46"/>
      <point x="95" y="64" type="qcurve"/>
      <point x="97" y="48" type="line"/>
      <point x="100" y="21" type="line"/>
    </contour>
  </outline>
</glyph>
<glyph name="a-hira" format="2">
  <advance width="256" height="256"/>
  <unicode hex="3042"/>
  <note>
uni3042
</note>
  <outline>
    <contour>
      <point x="229" y="-2"/>
      <point x="229" y="55" type="qcurve" smooth="yes"/>
      <point x="229" y="106"/>
      <point x="168" y="121" type="qcurve"/>
      <point x="171" y="131" type="line"/>
      <point x="149" y="136" type="line"/>
      <point x="147" y="124" type="line"/>
      <point x="138" y="125" type="line"/>
      <point x="112" y="122" type="line"/>
      <point x="113" y="149" type="line"/>
      <point x="210" y="152" type="line"/>
      <point x="209" y="173" type="line"/>
      <point x="115" y="171" type="line"/>
      <point x="118" y="198" type="line"/>
      <point x="96" y="199" type="line"/>
      <point x="93" y="170" type="line"/>
      <point x="70" y="169" type="line"/>
      <point x="37" y="171" type="line"/>
      <point x="37" y="149" type="line"/>
      <point x="91" y="149" type="line"/>
      <point x="90" y="115" type="line"/>
      <point x="27" y="90"/>
      <point x="27" y="38" type="qcurve" smooth="yes"/>
      <point x="27" y="19"/>
      <point x="50" y="-6"/>
      <point x="66" y="-6" type="qcurve" smooth="yes"/>
      <point x="89" y="-6"/>
      <point x="143" y="46"/>
      <point x="162" y="101" type="qcurve"/>
      <point x="205" y="90"/>
      <point x="205" y="56" type="qcurve" smooth="yes"/>
      <point x="205" y="11"/>
      <point x="126" y="6" type="qcurve"/>
      <point x="134" y="-16" type="line"/>
    </contour>
    <contour>
      <point x="128" y="65"/>
      <point x="108" y="41" type="qcurve"/>
      <point x="111" y="74" type="line"/>
      <point x="111" y="100" type="line"/>
      <point x="141" y="104" type="line"/>
    </contour>
    <contour>
      <point x="79" y="15"/>
      <point x="68" y="15" type="qcurve" smooth="yes"/>
      <point x="61" y="15"/>
      <point x="48" y="30"/>
      <point x="48" y="39" type="qcurve" smooth="yes"/>
      <point x="48" y="72"/>
      <point x="90" y="93" type="qcurve"/>
      <point x="90" y="44"/>
      <point x="93" y="27" type="qcurve"/>
    </contour>
  </outline>
</glyph>
<glyph name="ismall-hira" format="2">
  <advance width="256" height="256"/>
  <unicode hex="3043"/>
  <note>
uni3043
</note>
  <outline>
    <contour>
      <point x="98" y="50" type="line"/>
      <point x="85" y="15"/>
      <point x="80" y="15" type="qcurve" smooth="yes"/>
      <point x="77" y="15"/>
      <point x="74" y="35" type="qcurve"/>
      <point x="72" y="69" type="line"/>
      <point x="75" y="134" type="line"/>
      <point x="53" y="138" type="line"/>
      <point x="49" y="72" type="line" smooth="yes"/>
      <point x="49" y="28"/>
      <point x="66" y="-11"/>
      <point x="77" y="-11" type="qcurve" smooth="yes"/>
      <point x="97" y="-11"/>
      <point x="117" y="39" type="qcurve"/>
    </contour>
    <contour>
      <point x="206" y="78"/>
      <point x="185" y="136" type="qcurve"/>
      <point x="163" y="129" type="line"/>
      <point x="183" y="76"/>
      <point x="183" y="2" type="qcurve"/>
      <point x="206" y="3" type="line"/>
    </contour>
  </outline>
</glyph>
<glyph name="i-hira" format="2">
  <advance width="256" height="256"/>
  <unicode hex="3044"/>
  <note>
uni3044
</note>
  <outline>
    <contour>
      <point x="85" y="71" type="line"/>
      <point x="71" y="17"/>
      <point x="63" y="17" type="qcurve" smooth="yes"/>
      <point x="58" y="17"/>
      <point x="49" y="58"/>
      <point x="49" y="98" type="qcurve"/>
      <point x="54" y="181" type="line"/>
      <point x="30" y="187" type="line"/>
      <point x="26" y="98" type="line" smooth="yes"/>
      <point x="26" y="-8"/>
      <point x="61" y="-8" type="qcurve" smooth="yes"/>
      <point x="88" y="-8"/>
      <point x="107" y="62" type="qcurve"/>
    </contour>
    <contour>
      <point x="230" y="111"/>
      <point x="203" y="185" type="qcurve"/>
      <point x="181" y="179" type="line"/>
      <point x="206" y="107"/>
      <point x="206" y="9" type="qcurve"/>
      <point x="230" y="10" type="line"/>
    </contour>
  </outline>
</glyph>
<glyph name="usmall-hira" format="2">
  <advance width="256" height="256"/>
  <unicode hex="3045"/>
  <note>
uni3045
</note>
  <outline>
    <contour>
      <point x="137" y="150"/>
      <point x="89" y="153" type="qcurve"/>
      <point x="87" y="132" type="line"/>
      <point x="136" y="127"/>
      <point x="171" y="118" type="qcurve"/>
      <point x="176" y="138" type="line"/>
    </contour>
    <contour>
      <point x="153" y="-12"/>
      <point x="193" y="26"/>
      <point x="193" y="59" type="qcurve" smooth="yes"/>
      <point x="193" y="108"/>
      <point x="141" y="108" type="qcurve" smooth="yes"/>
      <point x="108" y="108"/>
      <point x="63" y="93" type="qcurve"/>
      <point x="69" y="72" type="line"/>
      <point x="117" y="87"/>
      <point x="141" y="87" type="qcurve" smooth="yes"/>
      <point x="158" y="87"/>
      <point x="170" y="75"/>
      <point x="170" y="59" type="qcurve" smooth="yes"/>
      <point x="170" y="32"/>
      <point x="142" y="8"/>
      <point x="96" y="2" type="qcurve"/>
      <point x="103" y="-19" type="line"/>
    </contour>
  </outline>
</glyph>
<glyph name="u-hira" format="2">
  <advance width="256" height="256"/>
  <unicode hex="3046"/>
  <note>
uni3046
</note>
  <outline>
    <contour>
      <point x="142" y="194"/>
      <point x="67" y="201" type="qcurve"/>
      <point x="64" y="179" type="line"/>
      <point x="134" y="171"/>
      <point x="172" y="162" type="qcurve"/>
      <point x="177" y="183" type="line"/>
    </contour>
    <contour>
      <point x="225" y="-7"/>
      <point x="225" y="72" type="qcurve" smooth="yes"/>
      <point x="225" y="136"/>
      <point x="157" y="136" type="qcurve" smooth="yes"/>
      <point x="101" y="136"/>
      <point x="31" y="112" type="qcurve"/>
      <point x="38" y="90" type="line"/>
      <point x="107" y="114"/>
      <point x="159" y="114" type="qcurve" smooth="yes"/>
      <point x="201" y="114"/>
      <point x="201" y="71" type="qcurve" smooth="yes"/>
      <point x="201" y="42"/>
      <point x="152" y="5"/>
      <point x="76" y="-5" type="qcurve"/>
      <point x="87" y="-27" type="line"/>
    </contour>
  </outline>
</glyph>
<glyph name="esmall-hira" format="2">
  <advance width="256" height="256"/>
  <unicode hex="3047"/>
  <note>
uni3047
</note>
  <outline>
    <contour>
      <point x="113" y="156"/>
      <point x="77" y="157" type="qcurve"/>
      <point x="74" y="136" type="line"/>
      <point x="128" y="131"/>
      <point x="154" y="123" type="qcurve"/>
      <point x="158" y="145" type="line"/>
    </contour>
    <contour>
      <point x="210" y="9" type="line"/>
      <point x="171" y="6" type="line" smooth="yes"/>
      <point x="156" y="6"/>
      <point x="156" y="16" type="qcurve" smooth="yes"/>
      <point x="157" y="34" type="line" smooth="yes"/>
      <point x="157" y="63"/>
      <point x="139" y="63" type="qcurve" smooth="yes"/>
      <point x="133" y="63"/>
      <point x="119" y="55" type="qcurve"/>
      <point x="118" y="56" type="line"/>
      <point x="160" y="93" type="line"/>
      <point x="167" y="96"/>
      <point x="167" y="102" type="qcurve"/>
      <point x="154" y="118" type="line"/>
      <point x="148" y="114" type="line"/>
      <point x="53" y="111" type="line"/>
      <point x="54" y="89" type="line"/>
      <point x="90" y="91" type="line"/>
      <point x="133" y="97" type="line"/>
      <point x="134" y="95" type="line"/>
      <point x="85" y="48"/>
      <point x="43" y="-4" type="qcurve"/>
      <point x="59" y="-18" type="line"/>
      <point x="94" y="26"/>
      <point x="117" y="46"/>
      <point x="126" y="46" type="qcurve" smooth="yes"/>
      <point x="136" y="46"/>
      <point x="136" y="34" type="qcurve" smooth="yes"/>
      <point x="135" y="17" type="line" smooth="yes"/>
      <point x="135" y="-16"/>
      <point x="175" y="-16" type="qcurve" smooth="yes"/>
      <point x="213" y="-13" type="line"/>
    </contour>
  </outline>
</glyph>
<glyph name="e-hira" format="2">
  <advance width="256" height="256"/>
  <unicode hex="3048"/>
  <note>
uni3048
</note>
  <outline>
    <contour>
      <point x="123" y="197"/>
      <point x="67" y="199" type="qcurve"/>
      <point x="66" y="178" type="line"/>
      <point x="132" y="172"/>
      <point x="161" y="164" type="qcurve"/>
      <point x="165" y="185" type="line"/>
    </contour>
    <contour>
      <point x="229" y="14" type="line"/>
      <point x="184" y="11" type="line" smooth="yes"/>
      <point x="168" y="11"/>
      <point x="163" y="18"/>
      <point x="163" y="39" type="qcurve" smooth="yes"/>
      <point x="163" y="86"/>
      <point x="142" y="86" type="qcurve" smooth="yes"/>
      <point x="134" y="86"/>
      <point x="117" y="76" type="qcurve"/>
      <point x="116" y="77" type="line"/>
      <point x="168" y="129" type="line"/>
      <point x="176" y="132"/>
      <point x="176" y="140" type="qcurve"/>
      <point x="159" y="154" type="line"/>
      <point x="153" y="150" type="line"/>
      <point x="38" y="145" type="line"/>
      <point x="39" y="121" type="line"/>
      <point x="139" y="131" type="line"/>
      <point x="140" y="130" type="line"/>
      <point x="75" y="62"/>
      <point x="24" y="0" type="qcurve"/>
      <point x="41" y="-15" type="line"/>
      <point x="72" y="24"/>
      <point x="113" y="66"/>
      <point x="128" y="66" type="qcurve" smooth="yes"/>
      <point x="141" y="66"/>
      <point x="141" y="49" type="qcurve" smooth="yes"/>
      <point x="142" y="15" type="line"/>
      <point x="146" y="-12"/>
      <point x="190" y="-12" type="qcurve" smooth="yes"/>
      <point x="231" y="-9" type="line"/>
    </contour>
  </outline>
</glyph>
<glyph name="osmall-hira" format="2">
  <advance width="256" height="256"/>
  <unicode hex="3049"/>
  <note>
uni3049
</note>
  <outline>
    <contour>
      <point x="200" y="114"/>
      <point x="166" y="140" type="qcurve"/>
      <point x="152" y="124" type="line"/>
      <point x="153" y="124" type="line"/>
      <point x="117" y="121" type="line"/>
      <point x="117" y="153" type="line"/>
      <point x="95" y="153" type="line"/>
      <point x="95" y="120" type="line"/>
      <point x="80" y="119" type="line"/>
      <point x="50" y="121" type="line"/>
      <point x="50" y="99" type="line"/>
      <point x="96" y="99" type="line"/>
      <point x="96" y="75" type="line"/>
      <point x="43" y="60"/>
      <point x="43" y="26" type="qcurve" smooth="yes"/>
      <point x="43" y="11"/>
      <point x="74" y="-15"/>
      <point x="95" y="-15" type="qcurve" smooth="yes"/>
      <point x="118" y="-15"/>
      <point x="118" y="18" type="qcurve" smooth="yes"/>
      <point x="118" y="59" type="line"/>
      <point x="134" y="60" type="line" smooth="yes"/>
      <point x="176" y="60"/>
      <point x="176" y="34" type="qcurve" smooth="yes"/>
      <point x="176" y="14"/>
      <point x="129" y="3" type="qcurve"/>
      <point x="139" y="-17" type="line"/>
      <point x="199" y="-5"/>
      <point x="199" y="34" type="qcurve" smooth="yes"/>
      <point x="199" y="54"/>
      <point x="166" y="81"/>
      <point x="135" y="81" type="qcurve" smooth="yes"/>
      <point x="118" y="80" type="line"/>
      <point x="117" y="100" type="line"/>
      <point x="161" y="103" type="line"/>
      <point x="161" y="118" type="line"/>
      <point x="185" y="98"/>
      <point x="197" y="82" type="qcurve"/>
      <point x="213" y="98" type="line"/>
    </contour>
    <contour>
      <point x="97" y="19" type="line" smooth="yes"/>
      <point x="97" y="7"/>
      <point x="92" y="7" type="qcurve" smooth="yes"/>
      <point x="80" y="7"/>
      <point x="63" y="19"/>
      <point x="63" y="25" type="qcurve" smooth="yes"/>
      <point x="63" y="44"/>
      <point x="96" y="54" type="qcurve"/>
    </contour>
  </outline>
</glyph>
<glyph name="o-hira" format="2">
  <advance width="256" height="256"/>
  <unicode hex="304A"/>
  <note>
uni304A
</note>
  <outline>
    <contour>
      <point x="215" y="151"/>
      <point x="174" y="183" type="qcurve"/>
      <point x="160" y="167" type="line"/>
      <point x="161" y="166" type="line"/>
      <point x="111" y="162" type="line"/>
      <point x="111" y="201" type="line"/>
      <point x="88" y="201" type="line"/>
      <point x="89" y="161" type="line"/>
      <point x="60" y="160" type="line"/>
      <point x="30" y="161" type="line"/>
      <point x="30" y="139" type="line"/>
      <point x="89" y="139" type="line"/>
      <point x="89" y="104" type="line"/>
      <point x="23" y="86"/>
      <point x="23" y="44" type="qcurve" smooth="yes"/>
      <point x="23" y="22"/>
      <point x="58" y="-9"/>
      <point x="85" y="-9" type="qcurve" smooth="yes"/>
      <point x="111" y="-9"/>
      <point x="112" y="24" type="qcurve" smooth="yes"/>
      <point x="112" y="87" type="line"/>
      <point x="133" y="89" type="line"/>
      <point x="193" y="89"/>
      <point x="193" y="50" type="qcurve" smooth="yes"/>
      <point x="193" y="15"/>
      <point x="130" y="9" type="qcurve"/>
      <point x="138" y="-13" type="line"/>
      <point x="216" y="-3"/>
      <point x="216" y="50" type="qcurve" smooth="yes"/>
      <point x="216" y="77"/>
      <point x="173" y="111"/>
      <point x="134" y="111" type="qcurve"/>
      <point x="112" y="109" type="line"/>
      <point x="111" y="140" type="line"/>
      <point x="164" y="144" type="line"/>
      <point x="163" y="164" type="line"/>
      <point x="197" y="137"/>
      <point x="216" y="113" type="qcurve"/>
      <point x="231" y="130" type="line"/>
    </contour>
    <contour>
      <point x="90" y="28" type="line" smooth="yes"/>
      <point x="90" y="13"/>
      <point x="83" y="13" type="qcurve" smooth="yes"/>
      <point x="66" y="13"/>
      <point x="45" y="31"/>
      <point x="45" y="44" type="qcurve" smooth="yes"/>
      <point x="45" y="69"/>
      <point x="89" y="82" type="qcurve"/>
    </contour>
  </outline>
</glyph>
<glyph name="ka-hira" format="2">
  <advance width="256" height="256"/>
  <unicode hex="304B"/>
  <note>
uni304B
</note>
  <outline>
    <contour>
      <point x="111" y="-16"/>
      <point x="128" y="-16" type="qcurve" smooth="yes"/>
      <point x="147" y="-16"/>
      <point x="167" y="32"/>
      <point x="167" y="105" type="qcurve" smooth="yes"/>
      <point x="167" y="149"/>
      <point x="121" y="150" type="qcurve" smooth="yes"/>
      <point x="105" y="150" type="line"/>
      <point x="118" y="195" type="line"/>
      <point x="96" y="201" type="line"/>
      <point x="81" y="148" type="line"/>
      <point x="26" y="142" type="line"/>
      <point x="30" y="120" type="line"/>
      <point x="75" y="125" type="line"/>
      <point x="50" y="45"/>
      <point x="24" y="-9" type="qcurve"/>
      <point x="45" y="-18" type="line"/>
      <point x="71" y="35"/>
      <point x="99" y="128" type="qcurve"/>
      <point x="119" y="129" type="line" smooth="yes"/>
      <point x="134" y="129"/>
      <point x="144" y="118"/>
      <point x="144" y="103" type="qcurve" smooth="yes"/>
      <point x="144" y="48"/>
      <point x="135" y="19" type="qcurve" smooth="yes"/>
      <point x="132" y="8"/>
      <point x="124" y="8" type="qcurve" smooth="yes"/>
      <point x="111" y="8"/>
      <point x="88" y="15" type="qcurve"/>
      <point x="89" y="-10" type="line"/>
    </contour>
    <contour>
      <point x="225" y="133"/>
      <point x="194" y="181" type="qcurve"/>
      <point x="175" y="169" type="line"/>
      <point x="207" y="122"/>
      <point x="226" y="58" type="qcurve"/>
      <point x="247" y="68" type="line"/>
    </contour>
  </outline>
</glyph>
<glyph name="ga-hira" format="2">
  <advance width="256" height="256"/>
  <unicode hex="304C"/>
  <note>
uni304C
</note>
  <outline>
    <contour>
      <point x="245" y="199"/>
      <point x="229" y="214" type="qcurve"/>
      <point x="217" y="205" type="line"/>
      <point x="231" y="191"/>
      <point x="242" y="168" type="qcurve"/>
      <point x="255" y="177" type="line"/>
    </contour>
    <contour>
      <point x="111" y="-16"/>
      <point x="128" y="-16" type="qcurve" smooth="yes"/>
      <point x="147" y="-16"/>
      <point x="167" y="32"/>
      <point x="167" y="105" type="qcurve" smooth="yes"/>
      <point x="167" y="149"/>
      <point x="121" y="150" type="qcurve" smooth="yes"/>
      <point x="105" y="150" type="line"/>
      <point x="118" y="195" type="line"/>
      <point x="96" y="201" type="line"/>
      <point x="81" y="148" type="line"/>
      <point x="26" y="142" type="line"/>
      <point x="30" y="120" type="line"/>
      <point x="75" y="125" type="line"/>
      <point x="50" y="45"/>
      <point x="24" y="-9" type="qcurve"/>
      <point x="45" y="-18" type="line"/>
      <point x="71" y="35"/>
      <point x="99" y="128" type="qcurve"/>
      <point x="119" y="129" type="line" smooth="yes"/>
      <point x="134" y="129"/>
      <point x="144" y="118"/>
      <point x="144" y="103" type="qcurve" smooth="yes"/>
      <point x="144" y="48"/>
      <point x="135" y="19" type="qcurve" smooth="yes"/>
      <point x="132" y="8"/>
      <point x="124" y="8" type="qcurve" smooth="yes"/>
      <point x="111" y="8"/>
      <point x="88" y="15" type="qcurve"/>
      <point x="89" y="-10" type="line"/>
    </contour>
    <contour>
      <point x="224" y="183"/>
      <point x="208" y="199" type="qcurve"/>
      <point x="195" y="190" type="line"/>
      <point x="210" y="176"/>
      <point x="221" y="153" type="qcurve"/>
      <point x="234" y="162" type="line"/>
    </contour>
    <contour>
      <point x="214" y="133"/>
      <point x="182" y="181" type="qcurve"/>
      <point x="164" y="169" type="line"/>
      <point x="195" y="122"/>
      <point x="214" y="58" type="qcurve"/>
      <point x="236" y="68" type="line"/>
    </contour>
  </outline>
</glyph>
<glyph name="ki-hira" format="2">
  <advance width="256" height="256"/>
  <unicode hex="304D"/>
  <note>
uni304D
</note>
  <outline>
    <contour>
      <point x="223" y="133" type="line"/>
      <point x="151" y="126" type="line"/>
      <point x="137" y="150" type="line"/>
      <point x="198" y="155" type="line"/>
      <point x="195" y="176" type="line"/>
      <point x="125" y="170" type="line"/>
      <point x="106" y="203" type="line"/>
      <point x="86" y="194" type="line"/>
      <point x="101" y="168" type="line"/>
      <point x="27" y="165" type="line"/>
      <point x="27" y="144" type="line"/>
      <point x="113" y="148" type="line"/>
      <point x="128" y="124" type="line"/>
      <point x="18" y="119" type="line"/>
      <point x="18" y="97" type="line"/>
      <point x="140" y="104" type="line"/>
      <point x="164" y="73" type="line"/>
      <point x="163" y="72" type="line"/>
      <point x="141" y="84"/>
      <point x="116" y="84" type="qcurve" smooth="yes"/>
      <point x="40" y="84"/>
      <point x="40" y="34" type="qcurve" smooth="yes"/>
      <point x="40" y="-15"/>
      <point x="124" y="-15" type="qcurve"/>
      <point x="192" y="-11" type="line"/>
      <point x="192" y="13" type="line"/>
      <point x="174" y="7"/>
      <point x="121" y="7" type="qcurve" smooth="yes"/>
      <point x="63" y="7"/>
      <point x="63" y="63"/>
      <point x="116" y="63" type="qcurve" smooth="yes"/>
      <point x="155" y="63"/>
      <point x="189" y="44" type="qcurve"/>
      <point x="201" y="59" type="line"/>
      <point x="184" y="76"/>
      <point x="164" y="107" type="qcurve"/>
      <point x="225" y="112" type="line"/>
    </contour>
  </outline>
</glyph>
<glyph name="gi-hira" format="2">
  <advance width="256" height="256"/>
  <unicode hex="304E"/>
  <note>
uni304E
</note>
  <outline>
    <contour>
      <point x="236" y="204"/>
      <point x="219" y="219" type="qcurve"/>
      <point x="207" y="209" type="line"/>
      <point x="223" y="196"/>
      <point x="235" y="174" type="qcurve"/>
      <point x="248" y="183" type="line"/>
    </contour>
    <contour>
      <point x="213" y="193"/>
      <point x="196" y="207" type="qcurve"/>
      <point x="184" y="197" type="line"/>
      <point x="200" y="184"/>
      <point x="212" y="162" type="qcurve"/>
      <point x="225" y="172" type="line"/>
    </contour>
    <contour>
      <point x="223" y="133" type="line"/>
      <point x="151" y="126" type="line"/>
      <point x="137" y="150" type="line"/>
      <point x="198" y="155" type="line"/>
      <point x="195" y="176" type="line"/>
      <point x="125" y="170" type="line"/>
      <point x="106" y="203" type="line"/>
      <point x="86" y="194" type="line"/>
      <point x="101" y="168" type="line"/>
      <point x="27" y="165" type="line"/>
      <point x="27" y="144" type="line"/>
      <point x="113" y="148" type="line"/>
      <point x="128" y="124" type="line"/>
      <point x="18" y="119" type="line"/>
      <point x="18" y="97" type="line"/>
      <point x="140" y="104" type="line"/>
      <point x="164" y="73" type="line"/>
      <point x="163" y="72" type="line"/>
      <point x="141" y="84"/>
      <point x="116" y="84" type="qcurve" smooth="yes"/>
      <point x="40" y="84"/>
      <point x="40" y="34" type="qcurve" smooth="yes"/>
      <point x="40" y="-15"/>
      <point x="124" y="-15" type="qcurve"/>
      <point x="192" y="-11" type="line"/>
      <point x="192" y="13" type="line"/>
      <point x="174" y="7"/>
      <point x="121" y="7" type="qcurve" smooth="yes"/>
      <point x="63" y="7"/>
      <point x="63" y="63"/>
      <point x="116" y="63" type="qcurve" smooth="yes"/>
      <point x="155" y="63"/>
      <point x="189" y="44" type="qcurve"/>
      <point x="201" y="59" type="line"/>
      <point x="184" y="76"/>
      <point x="164" y="107" type="qcurve"/>
      <point x="225" y="112" type="line"/>
    </contour>
  </outline>
</glyph>
<glyph name="ku-hira" format="2">
  <advance width="256" height="256"/>
  <unicode hex="304F"/>
  <note>
uni304F
</note>
  <outline>
    <contour>
      <point x="168" y="22"/>
      <point x="90" y="94" type="qcurve" smooth="yes"/>
      <point x="85" y="99" type="line"/>
      <point x="87" y="102" type="line"/>
      <point x="187" y="190" type="line"/>
      <point x="172" y="207" type="line"/>
      <point x="68" y="114" type="line" smooth="yes"/>
      <point x="60" y="106"/>
      <point x="60" y="99" type="qcurve" smooth="yes"/>
      <point x="60" y="90"/>
      <point x="74" y="76" type="qcurve" smooth="yes"/>
      <point x="152" y="4"/>
      <point x="171" y="-24" type="qcurve"/>
      <point x="191" y="-7" type="line"/>
    </contour>
  </outline>
</glyph>
<glyph name="gu-hira" format="2">
  <advance width="256" height="256"/>
  <unicode hex="3050"/>
  <note>
uni3050
</note>
  <outline>
    <contour>
      <point x="244" y="199"/>
      <point x="228" y="214" type="qcurve"/>
      <point x="216" y="205" type="line"/>
      <point x="230" y="191"/>
      <point x="241" y="168" type="qcurve"/>
      <point x="255" y="177" type="line"/>
    </contour>
    <contour>
      <point x="168" y="22"/>
      <point x="90" y="94" type="qcurve" smooth="yes"/>
      <point x="85" y="99" type="line"/>
      <point x="87" y="102" type="line"/>
      <point x="187" y="190" type="line"/>
      <point x="172" y="207" type="line"/>
      <point x="68" y="114" type="line" smooth="yes"/>
      <point x="60" y="106"/>
      <point x="60" y="99" type="qcurve" smooth="yes"/>
      <point x="60" y="90"/>
      <point x="74" y="76" type="qcurve" smooth="yes"/>
      <point x="152" y="4"/>
      <point x="171" y="-24" type="qcurve"/>
      <point x="191" y="-7" type="line"/>
    </contour>
    <contour>
      <point x="222" y="186"/>
      <point x="206" y="201" type="qcurve"/>
      <point x="193" y="192" type="line"/>
      <point x="208" y="177"/>
      <point x="219" y="155" type="qcurve"/>
      <point x="232" y="164" type="line"/>
    </contour>
  </outline>
</glyph>
<glyph name="ke-hira" format="2">
  <advance width="256" height="256"/>
  <unicode hex="3051"/>
  <note>
uni3051
</note>
  <outline>
    <contour>
      <point x="39" y="198" type="line"/>
      <point x="31" y="146"/>
      <point x="31" y="70" type="qcurve" smooth="yes"/>
      <point x="33" y="-10" type="line"/>
      <point x="56" y="-8" type="line"/>
      <point x="54" y="77" type="line" smooth="yes"/>
      <point x="54" y="145"/>
      <point x="62" y="195" type="qcurve"/>
    </contour>
    <contour>
      <point x="234" y="152" type="line"/>
      <point x="193" y="149" type="line"/>
      <point x="192" y="198" type="line"/>
      <point x="168" y="197" type="line"/>
      <point x="169" y="147" type="line"/>
      <point x="135" y="146" type="line"/>
      <point x="84" y="147" type="line"/>
      <point x="84" y="124" type="line"/>
      <point x="109" y="123" type="line"/>
      <point x="170" y="125" type="line"/>
      <point x="171" y="71" type="line" smooth="yes"/>
      <point x="171" y="22"/>
      <point x="122" y="-4" type="qcurve"/>
      <point x="139" y="-21" type="line"/>
      <point x="194" y="11"/>
      <point x="194" y="71" type="qcurve" smooth="yes"/>
      <point x="193" y="127" type="line"/>
      <point x="235" y="129" type="line"/>
    </contour>
  </outline>
</glyph>
<glyph name="ko-hira" format="2">
  <advance width="256" height="256"/>
  <unicode hex="3053"/>
  <note>
uni3053
</note>
  <outline>
    <contour>
      <point x="204" y="173" type="line"/>
      <point x="128" y="171" type="line"/>
      <point x="48" y="173" type="line"/>
      <point x="48" y="150" type="line"/>
      <point x="117" y="147" type="line"/>
      <point x="204" y="150" type="line"/>
    </contour>
    <contour>
      <point x="217" y="27" type="line"/>
      <point x="142" y="19" type="line"/>
      <point x="60" y="19"/>
      <point x="60" y="44" type="qcurve" smooth="yes"/>
      <point x="60" y="57"/>
      <point x="78" y="79" type="qcurve"/>
      <point x="60" y="93" type="line"/>
      <point x="38" y="62"/>
      <point x="38" y="44" type="qcurve" smooth="yes"/>
      <point x="38" y="21"/>
      <point x="80" y="-4"/>
      <point x="142" y="-4" type="qcurve"/>
      <point x="218" y="2" type="line"/>
    </contour>
  </outline>
</glyph>
<glyph name="go-hira" format="2">
  <advance width="256" height="256"/>
  <unicode hex="3054"/>
  <note>
uni3054
</note>
  <outline>
    <contour>
      <point x="236" y="205"/>
      <point x="219" y="220" type="qcurve"/>
      <point x="207" y="210" type="line"/>
      <point x="224" y="196"/>
      <point x="236" y="175" type="qcurve"/>
      <point x="248" y="185" type="line"/>
    </contour>
    <contour>
      <point x="218" y="190"/>
      <point x="201" y="205" type="qcurve"/>
      <point x="189" y="195" type="line"/>
      <point x="205" y="182"/>
      <point x="217" y="160" type="qcurve"/>
      <point x="229" y="170" type="line"/>
    </contour>
    <contour>
      <point x="201" y="173" type="line"/>
      <point x="128" y="171" type="line"/>
      <point x="48" y="173" type="line"/>
      <point x="48" y="150" type="line"/>
      <point x="117" y="147" type="line"/>
      <point x="201" y="150" type="line"/>
    </contour>
    <contour>
      <point x="217" y="27" type="line"/>
      <point x="142" y="19" type="line"/>
      <point x="60" y="19"/>
      <point x="60" y="44" type="qcurve" smooth="yes"/>
      <point x="60" y="57"/>
      <point x="78" y="79" type="qcurve"/>
      <point x="60" y="93" type="line"/>
      <point x="38" y="62"/>
      <point x="38" y="44" type="qcurve" smooth="yes"/>
      <point x="38" y="21"/>
      <point x="80" y="-4"/>
      <point x="142" y="-4" type="qcurve"/>
      <point x="218" y="2" type="line"/>
    </contour>
  </outline>
</glyph>
<glyph name="sa-hira" format="2">
  <advance width="256" height="256"/>
  <unicode hex="3055"/>
  <note>
uni3055
</note>
  <outline>
    <contour>
      <point x="226" y="167" type="line"/>
      <point x="149" y="160" type="line"/>
      <point x="126" y="204" type="line"/>
      <point x="105" y="195" type="line"/>
      <point x="124" y="158" type="line"/>
      <point x="29" y="157" type="line"/>
      <point x="31" y="135" type="line"/>
      <point x="135" y="137" type="line"/>
      <point x="150" y="109"/>
      <point x="171" y="84" type="qcurve"/>
      <point x="170" y="83" type="line"/>
      <point x="144" y="96"/>
      <point x="121" y="96" type="qcurve" smooth="yes"/>
      <point x="84" y="96"/>
      <point x="44" y="65"/>
      <point x="44" y="43" type="qcurve" smooth="yes"/>
      <point x="44" y="-9"/>
      <point x="128" y="-9" type="qcurve" smooth="yes"/>
      <point x="203" y="-6" type="line"/>
      <point x="206" y="17" type="line"/>
      <point x="132" y="13" type="line" smooth="yes"/>
      <point x="66" y="13"/>
      <point x="66" y="43" type="qcurve" smooth="yes"/>
      <point x="66" y="75"/>
      <point x="121" y="75" type="qcurve" smooth="yes"/>
      <point x="167" y="75"/>
      <point x="193" y="53" type="qcurve"/>
      <point x="208" y="67" type="line"/>
      <point x="187" y="89"/>
      <point x="159" y="139" type="qcurve"/>
      <point x="227" y="145" type="line"/>
    </contour>
  </outline>
</glyph>
<glyph name="za-hira" format="2">
  <advance width="256" height="256"/>
  <unicode hex="3056"/>
  <note>
uni3056
</note>
  <outline>
    <contour>
      <point x="229" y="205"/>
      <point x="215" y="219" type="qcurve"/>
      <point x="203" y="209" type="line"/>
      <point x="217" y="197"/>
      <point x="228" y="176" type="qcurve"/>
      <point x="241" y="185" type="line"/>
    </contour>
    <contour>
      <point x="205" y="199"/>
      <point x="190" y="212" type="qcurve"/>
      <point x="178" y="202" type="line"/>
      <point x="192" y="190"/>
      <point x="203" y="169" type="qcurve"/>
      <point x="216" y="178" type="line"/>
    </contour>
    <contour>
      <point x="226" y="167" type="line"/>
      <point x="149" y="160" type="line"/>
      <point x="126" y="204" type="line"/>
      <point x="105" y="195" type="line"/>
      <point x="124" y="158" type="line"/>
      <point x="29" y="157" type="line"/>
      <point x="31" y="135" type="line"/>
      <point x="135" y="137" type="line"/>
      <point x="150" y="109"/>
      <point x="171" y="84" type="qcurve"/>
      <point x="170" y="83" type="line"/>
      <point x="147" y="96"/>
      <point x="121" y="96" type="qcurve" smooth="yes"/>
      <point x="84" y="96"/>
      <point x="44" y="65"/>
      <point x="44" y="43" type="qcurve" smooth="yes"/>
      <point x="44" y="-9"/>
      <point x="128" y="-9" type="qcurve" smooth="yes"/>
      <point x="203" y="-6" type="line"/>
      <point x="206" y="17" type="line"/>
      <point x="132" y="13" type="line" smooth="yes"/>
      <point x="66" y="13"/>
      <point x="66" y="43" type="qcurve" smooth="yes"/>
      <point x="66" y="75"/>
      <point x="121" y="75" type="qcurve" smooth="yes"/>
      <point x="167" y="75"/>
      <point x="193" y="53" type="qcurve"/>
      <point x="208" y="67" type="line"/>
      <point x="187" y="89"/>
      <point x="159" y="139" type="qcurve"/>
      <point x="227" y="145" type="line"/>
    </contour>
  </outline>
</glyph>
<glyph name="si-hira" format="2">
  <advance width="256" height="256"/>
  <unicode hex="3057"/>
  <note>
uni3057
</note>
  <outline>
    <contour>
      <point x="211" y="92" type="line"/>
      <point x="193" y="11"/>
      <point x="132" y="11" type="qcurve" smooth="yes"/>
      <point x="85" y="11"/>
      <point x="85" y="52" type="qcurve" smooth="yes"/>
      <point x="91" y="199" type="line"/>
      <point x="67" y="199" type="line"/>
      <point x="63" y="52" type="line" smooth="yes"/>
      <point x="63" y="-10"/>
      <point x="132" y="-10" type="qcurve" smooth="yes"/>
      <point x="172" y="-10"/>
      <point x="219" y="32"/>
      <point x="232" y="85" type="qcurve"/>
    </contour>
  </outline>
</glyph>
<glyph name="zi-hira" format="2">
  <advance width="256" height="256"/>
  <unicode hex="3058"/>
  <note>
uni3058
</note>
  <outline>
    <contour>
      <point x="213" y="190"/>
      <point x="195" y="204" type="qcurve"/>
      <point x="184" y="193" type="line"/>
      <point x="201" y="181"/>
      <point x="214" y="160" type="qcurve"/>
      <point x="226" y="170" type="line"/>
    </contour>
    <contour>
      <point x="211" y="92" type="line"/>
      <point x="193" y="11"/>
      <point x="132" y="11" type="qcurve" smooth="yes"/>
      <point x="85" y="11"/>
      <point x="85" y="52" type="qcurve" smooth="yes"/>
      <point x="91" y="199" type="line"/>
      <point x="67" y="199" type="line"/>
      <point x="63" y="52" type="line" smooth="yes"/>
      <point x="63" y="-10"/>
      <point x="132" y="-10" type="qcurve" smooth="yes"/>
      <point x="172" y="-10"/>
      <point x="219" y="32"/>
      <point x="232" y="85" type="qcurve"/>
    </contour>
    <contour>
      <point x="190" y="175"/>
      <point x="171" y="189" type="qcurve"/>
      <point x="160" y="179" type="line"/>
      <point x="177" y="166"/>
      <point x="190" y="145" type="qcurve"/>
      <point x="202" y="156" type="line"/>
    </contour>
  </outline>
</glyph>
<glyph name="su-hira" format="2">
  <advance width="256" height="256"/>
  <unicode hex="3059"/>
  <note>
uni3059
</note>
  <outline>
    <contour>
      <point x="240" y="172" type="line"/>
      <point x="157" y="171" type="line"/>
      <point x="155" y="204" type="line"/>
      <point x="133" y="204" type="line"/>
      <point x="134" y="170" type="line"/>
      <point x="16" y="168" type="line"/>
      <point x="16" y="146" type="line"/>
      <point x="135" y="148" type="line"/>
      <point x="135" y="126" type="line"/>
      <point x="130" y="134"/>
      <point x="112" y="134" type="qcurve" smooth="yes"/>
      <point x="91" y="134"/>
      <point x="64" y="106"/>
      <point x="64" y="68"/>
      <point x="92" y="41"/>
      <point x="111" y="41" type="qcurve" smooth="yes"/>
      <point x="128" y="41"/>
      <point x="144" y="58" type="qcurve"/>
      <point x="145" y="57" type="line"/>
      <point x="137" y="17"/>
      <point x="78" y="1" type="qcurve"/>
      <point x="89" y="-21" type="line"/>
      <point x="133" y="-4"/>
      <point x="167" y="41"/>
      <point x="167" y="79" type="qcurve" smooth="yes"/>
      <point x="167" y="99"/>
      <point x="158" y="111" type="qcurve"/>
      <point x="158" y="149" type="line"/>
      <point x="240" y="150" type="line"/>
    </contour>
    <contour>
      <point x="86" y="98"/>
      <point x="101" y="113"/>
      <point x="113" y="113" type="qcurve" smooth="yes"/>
      <point x="140" y="113"/>
      <point x="140" y="89" type="qcurve" smooth="yes"/>
      <point x="140" y="62"/>
      <point x="112" y="62" type="qcurve" smooth="yes"/>
      <point x="101" y="62"/>
      <point x="86" y="78"/>
    </contour>
  </outline>
</glyph>
<glyph name="se-hira" format="2">
  <advance width="256" height="256"/>
  <unicode hex="305B"/>
  <note>
uni305B
</note>
  <outline>
    <contour>
      <point x="241" y="144" type="line"/>
      <point x="191" y="143" type="line"/>
      <point x="192" y="166" type="line"/>
      <point x="192" y="198" type="line"/>
      <point x="169" y="198" type="line"/>
      <point x="169" y="142" type="line"/>
      <point x="88" y="140" type="line"/>
      <point x="89" y="191" type="line"/>
      <point x="66" y="191" type="line"/>
      <point x="65" y="139" type="line"/>
      <point x="14" y="137" type="line"/>
      <point x="14" y="114" type="line"/>
      <point x="64" y="116" type="line"/>
      <point x="63" y="52" type="line" smooth="yes"/>
      <point x="63" y="15"/>
      <point x="91" y="-10"/>
      <point x="144" y="-10" type="qcurve" smooth="yes"/>
      <point x="212" y="-6" type="line"/>
      <point x="212" y="17" type="line"/>
      <point x="145" y="12" type="line"/>
      <point x="91" y="12"/>
      <point x="87" y="26" type="qcurve"/>
      <point x="85" y="53" type="line"/>
      <point x="87" y="117" type="line"/>
      <point x="168" y="119" type="line"/>
      <point x="168" y="85" type="line" smooth="yes"/>
      <point x="167" y="72"/>
      <point x="162" y="65"/>
      <point x="154" y="65" type="qcurve"/>
      <point x="126" y="69" type="line"/>
      <point x="125" y="46" type="line"/>
      <point x="156" y="43" type="line"/>
      <point x="188" y="43"/>
      <point x="190" y="80" type="qcurve" smooth="yes"/>
      <point x="191" y="120" type="line"/>
      <point x="241" y="122" type="line"/>
    </contour>
  </outline>
</glyph>
<glyph name="so-hira" format="2">
  <advance width="256" height="256"/>
  <unicode hex="305D"/>
  <note>
uni305D
</note>
  <outline>
    <contour>
      <point x="237" y="120" type="line"/>
      <point x="145" y="117"/>
      <point x="107" y="111" type="qcurve"/>
      <point x="107" y="112" type="line"/>
      <point x="186" y="169" type="line" smooth="yes"/>
      <point x="194" y="174"/>
      <point x="194" y="177" type="qcurve"/>
      <point x="178" y="195" type="line"/>
      <point x="171" y="192" type="line"/>
      <point x="57" y="187" type="line"/>
      <point x="59" y="164" type="line"/>
      <point x="153" y="172" type="line"/>
      <point x="154" y="171" type="line"/>
      <point x="75" y="109" type="line"/>
      <point x="18" y="103" type="line"/>
      <point x="22" y="82" type="line"/>
      <point x="57" y="87" type="line"/>
      <point x="122" y="94" type="line"/>
      <point x="123" y="93" type="line"/>
      <point x="110" y="87"/>
      <point x="90" y="57"/>
      <point x="90" y="45" type="qcurve" smooth="yes"/>
      <point x="90" y="-11"/>
      <point x="187" y="-11" type="qcurve" smooth="yes"/>
      <point x="197" y="-11" type="line"/>
      <point x="199" y="12" type="line"/>
      <point x="172" y="11" type="line" smooth="yes"/>
      <point x="112" y="11"/>
      <point x="112" y="46" type="qcurve" smooth="yes"/>
      <point x="112" y="60"/>
      <point x="138" y="92"/>
      <point x="170" y="98"/>
      <point x="238" y="98" type="qcurve"/>
    </contour>
  </outline>
</glyph>
<glyph name="ta-hira" format="2">
  <advance width="256" height="256"/>
  <unicode hex="305F"/>
  <note>
uni305F
</note>
  <outline>
    <contour>
      <point x="144" y="166" type="line"/>
      <point x="92" y="162" type="line"/>
      <point x="99" y="198" type="line"/>
      <point x="76" y="201" type="line"/>
      <point x="69" y="161" type="line"/>
      <point x="23" y="159" type="line"/>
      <point x="25" y="137" type="line"/>
      <point x="65" y="138" type="line"/>
      <point x="46" y="49"/>
      <point x="26" y="-6" type="qcurve"/>
      <point x="48" y="-14" type="line"/>
      <point x="67" y="42"/>
      <point x="88" y="139" type="qcurve"/>
      <point x="144" y="144" type="line"/>
    </contour>
    <contour>
      <point x="227" y="127" type="line"/>
      <point x="190" y="129" type="line"/>
      <point x="114" y="122" type="line"/>
      <point x="115" y="101" type="line"/>
      <point x="188" y="107" type="line"/>
      <point x="227" y="105" type="line"/>
    </contour>
    <contour>
      <point x="174" y="11" type="line"/>
      <point x="123" y="11"/>
      <point x="123" y="34" type="qcurve" smooth="yes"/>
      <point x="123" y="42"/>
      <point x="136" y="59" type="qcurve"/>
      <point x="119" y="71" type="line"/>
      <point x="100" y="49"/>
      <point x="100" y="31" type="qcurve" smooth="yes"/>
      <point x="100" y="-12"/>
      <point x="173" y="-12" type="qcurve" smooth="yes"/>
      <point x="232" y="-9" type="line"/>
      <point x="233" y="16" type="line"/>
    </contour>
  </outline>
</glyph>
<glyph name="ti-hira" format="2">
  <advance width="256" height="256"/>
  <unicode hex="3061"/>
  <note>
uni3061
</note>
  <outline>
    <contour>
      <point x="226" y="172" type="line"/>
      <point x="114" y="164" type="line"/>
      <point x="121" y="202" type="line"/>
      <point x="98" y="205" type="line"/>
      <point x="91" y="163" type="line"/>
      <point x="29" y="162" type="line"/>
      <point x="29" y="140" type="line"/>
      <point x="86" y="140" type="line"/>
      <point x="74" y="87"/>
      <point x="58" y="61" type="qcurve"/>
      <point x="76" y="47" type="line"/>
      <point x="112" y="82"/>
      <point x="153" y="82" type="qcurve" smooth="yes"/>
      <point x="196" y="82"/>
      <point x="196" y="12"/>
      <point x="131" y="12" type="qcurve" smooth="yes"/>
      <point x="97" y="12"/>
      <point x="68" y="19" type="qcurve"/>
      <point x="69" y="-8" type="line"/>
      <point x="133" y="-11" type="line" smooth="yes"/>
      <point x="222" y="-11"/>
      <point x="222" y="47" type="qcurve" smooth="yes"/>
      <point x="222" y="72"/>
      <point x="186" y="104"/>
      <point x="153" y="104" type="qcurve" smooth="yes"/>
      <point x="127" y="104"/>
      <point x="90" y="79" type="qcurve"/>
      <point x="88" y="80" type="line"/>
      <point x="101" y="109"/>
      <point x="109" y="141" type="qcurve"/>
      <point x="227" y="149" type="line"/>
    </contour>
  </outline>
</glyph>
<glyph name="tusmall-hira" format="2">
  <advance width="256" height="256"/>
  <unicode hex="3063"/>
  <note>
uni3063
</note>
  <outline>
    <contour>
      <point x="211" y="1"/>
      <point x="211" y="75" type="qcurve" smooth="yes"/>
      <point x="211" y="133"/>
      <point x="150" y="133" type="qcurve" smooth="yes"/>
      <point x="117" y="133"/>
      <point x="45" y="116" type="qcurve"/>
      <point x="53" y="94" type="line"/>
      <point x="126" y="112"/>
      <point x="146" y="112" type="qcurve" smooth="yes"/>
      <point x="187" y="112"/>
      <point x="187" y="73" type="qcurve" smooth="yes"/>
      <point x="187" y="19"/>
      <point x="81" y="16" type="qcurve"/>
      <point x="88" y="-7" type="line"/>
    </contour>
  </outline>
</glyph>
<glyph name="tu-hira" format="2">
  <advance width="256" height="256"/>
  <unicode hex="3064"/>
  <note>
uni3064
</note>
  <outline>
    <contour>
      <point x="166" y="3"/>
      <point x="230" y="54"/>
      <point x="230" y="100" type="qcurve" smooth="yes"/>
      <point x="230" y="138"/>
      <point x="189" y="174"/>
      <point x="139" y="174" type="qcurve" smooth="yes"/>
      <point x="103" y="174"/>
      <point x="26" y="156" type="qcurve"/>
      <point x="34" y="132" type="line"/>
      <point x="101" y="152"/>
      <point x="144" y="152" type="qcurve" smooth="yes"/>
      <point x="206" y="152"/>
      <point x="206" y="99" type="qcurve" smooth="yes"/>
      <point x="206" y="63"/>
      <point x="154" y="26"/>
      <point x="73" y="21" type="qcurve"/>
      <point x="79" y="-1" type="line"/>
    </contour>
  </outline>
</glyph>
<glyph name="du-hira" format="2">
  <advance width="256" height="256"/>
  <unicode hex="3065"/>
  <note>
uni3065
</note>
  <outline>
    <contour>
      <point x="237" y="208"/>
      <point x="218" y="218" type="qcurve"/>
      <point x="208" y="206" type="line"/>
      <point x="227" y="196"/>
      <point x="243" y="177" type="qcurve"/>
      <point x="254" y="190" type="line"/>
    </contour>
    <contour>
      <point x="214" y="192"/>
      <point x="194" y="202" type="qcurve"/>
      <point x="184" y="190" type="line"/>
      <point x="203" y="180"/>
      <point x="219" y="162" type="qcurve"/>
      <point x="230" y="174" type="line"/>
    </contour>
    <contour>
      <point x="166" y="3"/>
      <point x="230" y="54"/>
      <point x="230" y="100" type="qcurve" smooth="yes"/>
      <point x="230" y="138"/>
      <point x="189" y="174"/>
      <point x="139" y="174" type="qcurve" smooth="yes"/>
      <point x="103" y="174"/>
      <point x="26" y="156" type="qcurve"/>
      <point x="34" y="132" type="line"/>
      <point x="101" y="152"/>
      <point x="144" y="152" type="qcurve" smooth="yes"/>
      <point x="206" y="152"/>
      <point x="206" y="99" type="qcurve" smooth="yes"/>
      <point x="206" y="63"/>
      <point x="154" y="26"/>
      <point x="73" y="21" type="qcurve"/>
      <point x="79" y="-1" type="line"/>
    </contour>
  </outline>
</glyph>
<glyph name="te-hira" format="2">
  <advance width="256" height="256"/>
  <unicode hex="3066"/>
  <note>
uni3066
</note>
  <outline>
    <contour>
      <point x="23" y="169" type="line"/>
      <point x="25" y="146" type="line"/>
      <point x="140" y="157" type="line"/>
      <point x="141" y="155" type="line"/>
      <point x="87" y="121"/>
      <point x="87" y="65" type="qcurve" smooth="yes"/>
      <point x="87" y="-10"/>
      <point x="202" y="-13" type="qcurve"/>
      <point x="207" y="11" type="line"/>
      <point x="110" y="11"/>
      <point x="110" y="66" type="qcurve" smooth="yes"/>
      <point x="110" y="95"/>
      <point x="151" y="147"/>
      <point x="167" y="154" type="qcurve" smooth="yes"/>
      <point x="178" y="158"/>
      <point x="232" y="158" type="qcurve"/>
      <point x="233" y="181" type="line"/>
    </contour>
  </outline>
</glyph>
<glyph name="de-hira" format="2">
  <advance width="256" height="256"/>
  <unicode hex="3067"/>
  <note>
uni3067
</note>
  <outline>
    <contour>
      <point x="23" y="169" type="line"/>
      <point x="25" y="146" type="line"/>
      <point x="140" y="157" type="line"/>
      <point x="141" y="155" type="line"/>
      <point x="87" y="121"/>
      <point x="87" y="65" type="qcurve" smooth="yes"/>
      <point x="87" y="-10"/>
      <point x="202" y="-13" type="qcurve"/>
      <point x="207" y="11" type="line"/>
      <point x="110" y="11"/>
      <point x="110" y="66" type="qcurve" smooth="yes"/>
      <point x="110" y="95"/>
      <point x="151" y="147"/>
      <point x="167" y="154" type="qcurve" smooth="yes"/>
      <point x="178" y="158"/>
      <point x="232" y="158" type="qcurve"/>
      <point x="233" y="181" type="line"/>
    </contour>
    <contour>
      <point x="228" y="139"/>
      <point x="212" y="154" type="qcurve"/>
      <point x="199" y="145" type="line"/>
      <point x="214" y="131"/>
      <point x="224" y="108" type="qcurve"/>
      <point x="238" y="117" type="line"/>
    </contour>
    <contour>
      <point x="204" y="125"/>
      <point x="188" y="141" type="qcurve"/>
      <point x="175" y="132" type="line"/>
      <point x="190" y="118"/>
      <point x="201" y="95" type="qcurve"/>
      <point x="214" y="104" type="line"/>
    </contour>
  </outline>
</glyph>
<glyph name="to-hira" format="2">
  <advance width="256" height="256"/>
  <unicode hex="3068"/>
  <note>
uni3068
</note>
  <outline>
    <contour>
      <point x="143" y="12" type="line"/>
      <point x="64" y="12"/>
      <point x="64" y="45" type="qcurve" smooth="yes"/>
      <point x="64" y="64"/>
      <point x="117" y="99"/>
      <point x="221" y="124" type="qcurve"/>
      <point x="214" y="146" type="line"/>
      <point x="122" y="121" type="line"/>
      <point x="116" y="162"/>
      <point x="116" y="200" type="qcurve"/>
      <point x="93" y="199" type="line"/>
      <point x="99" y="112" type="line"/>
      <point x="42" y="86"/>
      <point x="42" y="45" type="qcurve" smooth="yes"/>
      <point x="42" y="18"/>
      <point x="85" y="-10"/>
      <point x="143" y="-10" type="qcurve" smooth="yes"/>
      <point x="223" y="-6" type="line"/>
      <point x="224" y="18" type="line"/>
    </contour>
  </outline>
</glyph>
<glyph name="do-hira" format="2">
  <advance width="256" height="256"/>
  <unicode hex="3069"/>
  <note>
uni3069
</note>
  <outline>
    <contour>
      <point x="226" y="197"/>
      <point x="209" y="211" type="qcurve"/>
      <point x="197" y="201" type="line"/>
      <point x="213" y="188"/>
      <point x="225" y="166" type="qcurve"/>
      <point x="238" y="176" type="line"/>
    </contour>
    <contour>
      <point x="143" y="12" type="line"/>
      <point x="64" y="12"/>
      <point x="64" y="45" type="qcurve" smooth="yes"/>
      <point x="64" y="64"/>
      <point x="117" y="99"/>
      <point x="221" y="124" type="qcurve"/>
      <point x="214" y="146" type="line"/>
      <point x="122" y="121" type="line"/>
      <point x="116" y="162"/>
      <point x="116" y="200" type="qcurve"/>
      <point x="93" y="199" type="line"/>
      <point x="99" y="112" type="line"/>
      <point x="42" y="86"/>
      <point x="42" y="45" type="qcurve" smooth="yes"/>
      <point x="42" y="18"/>
      <point x="85" y="-10"/>
      <point x="143" y="-10" type="qcurve" smooth="yes"/>
      <point x="223" y="-6" type="line"/>
      <point x="224" y="18" type="line"/>
    </contour>
    <contour>
      <point x="203" y="183"/>
      <point x="187" y="197" type="qcurve"/>
      <point x="174" y="187" type="line"/>
      <point x="190" y="174"/>
      <point x="202" y="152" type="qcurve"/>
      <point x="215" y="162" type="line"/>
    </contour>
  </outline>
</glyph>
<glyph name="na-hira" format="2">
  <advance width="256" height="256"/>
  <unicode hex="306A"/>
  <note>
uni306A
</note>
  <outline>
    <contour>
      <point x="142" y="166" type="line"/>
      <point x="96" y="163" type="line"/>
      <point x="105" y="196" type="line"/>
      <point x="82" y="201" type="line"/>
      <point x="73" y="162" type="line"/>
      <point x="29" y="161" type="line"/>
      <point x="29" y="139" type="line"/>
      <point x="66" y="140" type="line"/>
      <point x="44" y="70"/>
      <point x="22" y="29" type="qcurve"/>
      <point x="42" y="18" type="line"/>
      <point x="67" y="64"/>
      <point x="90" y="141" type="qcurve"/>
      <point x="142" y="145" type="line"/>
    </contour>
    <contour>
      <point x="199" y="163"/>
      <point x="166" y="178" type="qcurve"/>
      <point x="155" y="159" type="line"/>
      <point x="197" y="139"/>
      <point x="224" y="116" type="qcurve"/>
      <point x="237" y="135" type="line"/>
    </contour>
    <contour>
      <point x="215" y="33"/>
      <point x="186" y="43" type="qcurve"/>
      <point x="183" y="121" type="line"/>
      <point x="160" y="120" type="line"/>
      <point x="164" y="50" type="line"/>
      <point x="142" y="55"/>
      <point x="122" y="55" type="qcurve" smooth="yes"/>
      <point x="78" y="55"/>
      <point x="78" y="20" type="qcurve" smooth="yes"/>
      <point x="78" y="-17"/>
      <point x="132" y="-17" type="qcurve" smooth="yes"/>
      <point x="179" y="-17"/>
      <point x="185" y="18" type="qcurve"/>
      <point x="228" y="-3" type="line"/>
      <point x="240" y="17" type="line"/>
    </contour>
    <contour>
      <point x="162" y="6"/>
      <point x="132" y="6" type="qcurve" smooth="yes"/>
      <point x="100" y="6"/>
      <point x="100" y="20" type="qcurve" smooth="yes"/>
      <point x="100" y="33"/>
      <point x="122" y="33" type="qcurve" smooth="yes"/>
      <point x="141" y="33"/>
      <point x="164" y="26" type="qcurve"/>
    </contour>
  </outline>
</glyph>
<glyph name="ni-hira" format="2">
  <advance width="256" height="256"/>
  <unicode hex="306B"/>
  <note>
uni306B
</note>
  <outline>
    <contour>
      <point x="45" y="192" type="line"/>
      <point x="38" y="140"/>
      <point x="38" y="63" type="qcurve" smooth="yes"/>
      <point x="40" y="-16" type="line"/>
      <point x="63" y="-14" type="line"/>
      <point x="61" y="68" type="line" smooth="yes"/>
      <point x="61" y="134"/>
      <point x="68" y="190" type="qcurve"/>
    </contour>
    <contour>
      <point x="222" y="166" type="line"/>
      <point x="97" y="162" type="line"/>
      <point x="97" y="140" type="line"/>
      <point x="222" y="144" type="line"/>
    </contour>
    <contour>
      <point x="174" y="20" type="line"/>
      <point x="112" y="20"/>
      <point x="112" y="44" type="qcurve" smooth="yes"/>
      <point x="112" y="55"/>
      <point x="124" y="76" type="qcurve"/>
      <point x="104" y="86" type="line"/>
      <point x="89" y="63"/>
      <point x="89" y="42" type="qcurve" smooth="yes"/>
      <point x="89" y="-3"/>
      <point x="177" y="-3" type="qcurve"/>
      <point x="231" y="0" type="line"/>
      <point x="233" y="24" type="line"/>
    </contour>
  </outline>
</glyph>
<glyph name="nu-hira" format="2">
  <advance width="256" height="256"/>
  <unicode hex="306C"/>
  <note>
uni306C
</note>
  <outline>
    <contour>
      <point x="226" y="27" type="line"/>
      <point x="231" y="43"/>
      <point x="231" y="66" type="qcurve" smooth="yes"/>
      <point x="231" y="108"/>
      <point x="206" y="134" type="qcurve" smooth="yes"/>
      <point x="187" y="156"/>
      <point x="147" y="156" type="qcurve"/>
      <point x="153" y="195" type="line"/>
      <point x="131" y="198" type="line"/>
      <point x="125" y="155" type="line"/>
      <point x="99" y="151"/>
      <point x="78" y="139" type="qcurve"/>
      <point x="72" y="181" type="line"/>
      <point x="50" y="177" type="line"/>
      <point x="59" y="125" type="line"/>
      <point x="25" y="95"/>
      <point x="25" y="48" type="qcurve" smooth="yes"/>
      <point x="25" y="21"/>
      <point x="47" y="-10"/>
      <point x="62" y="-10" type="qcurve" smooth="yes"/>
      <point x="78" y="-10"/>
      <point x="126" y="61"/>
      <point x="143" y="136" type="qcurve"/>
      <point x="209" y="136"/>
      <point x="209" y="66" type="qcurve"/>
      <point x="206" y="38" type="line"/>
      <point x="180" y="50"/>
      <point x="160" y="50" type="qcurve" smooth="yes"/>
      <point x="122" y="50"/>
      <point x="122" y="18" type="qcurve" smooth="yes"/>
      <point x="122" y="-13"/>
      <point x="167" y="-13" type="qcurve" smooth="yes"/>
      <point x="199" y="-13"/>
      <point x="216" y="8" type="qcurve"/>
      <point x="236" y="-5" type="line"/>
      <point x="248" y="13" type="line"/>
    </contour>
    <contour>
      <point x="109" y="79"/>
      <point x="97" y="57" type="qcurve"/>
      <point x="83" y="117" type="line"/>
      <point x="100" y="129"/>
      <point x="121" y="133" type="qcurve"/>
    </contour>
    <contour>
      <point x="70" y="11"/>
      <point x="62" y="11" type="qcurve" smooth="yes"/>
      <point x="57" y="11"/>
      <point x="47" y="31"/>
      <point x="47" y="48" type="qcurve" smooth="yes"/>
      <point x="47" y="78"/>
      <point x="64" y="101" type="qcurve"/>
      <point x="79" y="46"/>
      <point x="87" y="40" type="qcurve"/>
    </contour>
    <contour>
      <point x="184" y="9"/>
      <point x="165" y="9" type="qcurve" smooth="yes"/>
      <point x="143" y="9"/>
      <point x="143" y="18" type="qcurve" smooth="yes"/>
      <point x="143" y="30"/>
      <point x="160" y="30" type="qcurve" smooth="yes"/>
      <point x="173" y="30"/>
      <point x="195" y="19" type="qcurve"/>
    </contour>
  </outline>
</glyph>
<glyph name="ne-hira" format="2">
  <advance width="256" height="256"/>
  <unicode hex="306D"/>
  <note>
uni306D
</note>
  <outline>
    <contour>
      <point x="221" y="35" type="line"/>
      <point x="225" y="50"/>
      <point x="225" y="77" type="qcurve" smooth="yes"/>
      <point x="225" y="165"/>
      <point x="167" y="165" type="qcurve" smooth="yes"/>
      <point x="131" y="165"/>
      <point x="84" y="118" type="qcurve"/>
      <point x="85" y="132" type="line"/>
      <point x="98" y="143" type="line"/>
      <point x="89" y="158" type="line"/>
      <point x="85" y="157" type="line"/>
      <point x="87" y="196" type="line"/>
      <point x="64" y="196" type="line"/>
      <point x="63" y="154" type="line"/>
      <point x="21" y="154" type="line"/>
      <point x="22" y="130" type="line"/>
      <point x="63" y="133" type="line"/>
      <point x="62" y="93" type="line"/>
      <point x="17" y="34" type="line"/>
      <point x="35" y="19" type="line"/>
      <point x="61" y="56" type="line"/>
      <point x="60" y="-14" type="line"/>
      <point x="83" y="-14" type="line"/>
      <point x="84" y="85" type="line"/>
      <point x="133" y="144"/>
      <point x="165" y="144" type="qcurve" smooth="yes"/>
      <point x="202" y="144"/>
      <point x="202" y="81" type="qcurve" smooth="yes"/>
      <point x="201" y="46" type="line"/>
      <point x="176" y="57"/>
      <point x="158" y="57" type="qcurve" smooth="yes"/>
      <point x="119" y="57"/>
      <point x="119" y="24" type="qcurve" smooth="yes"/>
      <point x="119" y="-11"/>
      <point x="169" y="-11" type="qcurve" smooth="yes"/>
      <point x="200" y="-11"/>
      <point x="214" y="13" type="qcurve"/>
      <point x="234" y="-2" type="line"/>
      <point x="248" y="16" type="line"/>
    </contour>
    <contour>
      <point x="186" y="11"/>
      <point x="168" y="11" type="qcurve" smooth="yes"/>
      <point x="141" y="11"/>
      <point x="141" y="24" type="qcurve" smooth="yes"/>
      <point x="141" y="36"/>
      <point x="158" y="36" type="qcurve" smooth="yes"/>
      <point x="172" y="36"/>
      <point x="194" y="24" type="qcurve"/>
    </contour>
  </outline>
</glyph>
<glyph name="no-hira" format="2">
  <advance width="256" height="256"/>
  <unicode hex="306E"/>
  <note>
uni306E
</note>
  <outline>
    <contour>
      <point x="236" y="8"/>
      <point x="236" y="92" type="qcurve" smooth="yes"/>
      <point x="236" y="129"/>
      <point x="177" y="181"/>
      <point x="132" y="181" type="qcurve" smooth="yes"/>
      <point x="84" y="181"/>
      <point x="20" y="119"/>
      <point x="20" y="76" type="qcurve" smooth="yes"/>
      <point x="20" y="45"/>
      <point x="56" y="-1"/>
      <point x="77" y="-1" type="qcurve" smooth="yes"/>
      <point x="105" y="-1"/>
      <point x="137" y="123"/>
      <point x="137" y="150" type="qcurve" smooth="yes"/>
      <point x="137" y="156"/>
      <point x="134" y="160" type="qcurve"/>
      <point x="168" y="160"/>
      <point x="212" y="120"/>
      <point x="212" y="92" type="qcurve" smooth="yes"/>
      <point x="212" y="22"/>
      <point x="132" y="12" type="qcurve"/>
      <point x="142" y="-11" type="line"/>
    </contour>
    <contour>
      <point x="43" y="136"/>
      <point x="105" y="156" type="qcurve" smooth="yes"/>
      <point x="114" y="158" type="line"/>
      <point x="118" y="158"/>
      <point x="118" y="152" type="qcurve" smooth="yes"/>
      <point x="118" y="137"/>
      <point x="88" y="21"/>
      <point x="75" y="21" type="qcurve" smooth="yes"/>
      <point x="65" y="21"/>
      <point x="43" y="53"/>
      <point x="43" y="76" type="qcurve" smooth="yes"/>
    </contour>
  </outline>
</glyph>
<glyph name="ha-hira" format="2">
  <advance width="256" height="256"/>
  <unicode hex="306F"/>
  <note>
uni306F
</note>
  <outline>
    <contour>
      <point x="201" y="45" type="line"/>
      <point x="198" y="133" type="line"/>
      <point x="239" y="136" type="line"/>
      <point x="238" y="159" type="line"/>
      <point x="197" y="156" type="line"/>
      <point x="196" y="199" type="line"/>
      <point x="173" y="199" type="line"/>
      <point x="174" y="155" type="line"/>
      <point x="118" y="153" type="line"/>
      <point x="89" y="154" type="line"/>
      <point x="90" y="131" type="line"/>
      <point x="175" y="132" type="line"/>
      <point x="178" y="54" type="line"/>
      <point x="156" y="60"/>
      <point x="134" y="60" type="qcurve" smooth="yes"/>
      <point x="87" y="60"/>
      <point x="87" y="26" type="qcurve" smooth="yes"/>
      <point x="87" y="10"/>
      <point x="115" y="-12"/>
      <point x="139" y="-12" type="qcurve" smooth="yes"/>
      <point x="189" y="-12"/>
      <point x="197" y="20" type="qcurve"/>
      <point x="233" y="-3" type="line"/>
      <point x="246" y="17" type="line"/>
    </contour>
    <contour>
      <point x="172" y="11"/>
      <point x="139" y="11" type="qcurve" smooth="yes"/>
      <point x="110" y="11"/>
      <point x="110" y="26" type="qcurve" smooth="yes"/>
      <point x="110" y="39"/>
      <point x="133" y="39" type="qcurve" smooth="yes"/>
      <point x="152" y="39"/>
      <point x="176" y="29" type="qcurve"/>
    </contour>
    <contour>
      <point x="40" y="197" type="line"/>
      <point x="34" y="137"/>
      <point x="34" y="60" type="qcurve" smooth="yes"/>
      <point x="36" y="-13" type="line"/>
      <point x="58" y="-11" type="line"/>
      <point x="57" y="57" type="line" smooth="yes"/>
      <point x="57" y="148"/>
      <point x="63" y="196" type="qcurve"/>
    </contour>
  </outline>
</glyph>
<glyph name="ba-hira" format="2">
  <advance width="256" height="256"/>
  <unicode hex="3070"/>
  <note>
uni3070
</note>
  <outline>
    <contour>
      <point x="242" y="207"/>
      <point x="225" y="219" type="qcurve"/>
      <point x="214" y="208" type="line"/>
      <point x="229" y="197"/>
      <point x="241" y="179" type="qcurve"/>
      <point x="254" y="189" type="line"/>
    </contour>
    <contour>
      <point x="225" y="188"/>
      <point x="208" y="201" type="qcurve"/>
      <point x="197" y="191" type="line"/>
      <point x="213" y="179"/>
      <point x="225" y="162" type="qcurve"/>
      <point x="236" y="172" type="line"/>
    </contour>
    <contour>
      <point x="223" y="35"/>
      <point x="195" y="47" type="qcurve"/>
      <point x="193" y="133" type="line"/>
      <point x="234" y="136" type="line"/>
      <point x="233" y="159" type="line"/>
      <point x="192" y="156" type="line"/>
      <point x="191" y="199" type="line"/>
      <point x="167" y="199" type="line"/>
      <point x="169" y="155" type="line"/>
      <point x="118" y="153" type="line"/>
      <point x="89" y="154" type="line"/>
      <point x="90" y="131" type="line"/>
      <point x="156" y="132" type="line"/>
      <point x="170" y="132" type="line"/>
      <point x="172" y="55" type="line"/>
      <point x="153" y="60"/>
      <point x="134" y="60" type="qcurve" smooth="yes"/>
      <point x="87" y="60"/>
      <point x="87" y="26" type="qcurve" smooth="yes"/>
      <point x="87" y="10"/>
      <point x="115" y="-12"/>
      <point x="139" y="-12" type="qcurve" smooth="yes"/>
      <point x="187" y="-12"/>
      <point x="193" y="22" type="qcurve"/>
      <point x="233" y="-3" type="line"/>
      <point x="246" y="17" type="line"/>
    </contour>
    <contour>
      <point x="171" y="20"/>
      <point x="158" y="11"/>
      <point x="139" y="11" type="qcurve" smooth="yes"/>
      <point x="110" y="11"/>
      <point x="110" y="26" type="qcurve" smooth="yes"/>
      <point x="110" y="39"/>
      <point x="133" y="39" type="qcurve" smooth="yes"/>
      <point x="150" y="39"/>
      <point x="172" y="31" type="qcurve"/>
    </contour>
    <contour>
      <point x="40" y="197" type="line"/>
      <point x="34" y="137"/>
      <point x="34" y="60" type="qcurve" smooth="yes"/>
      <point x="36" y="-13" type="line"/>
      <point x="58" y="-11" type="line"/>
      <point x="57" y="57" type="line" smooth="yes"/>
      <point x="57" y="148"/>
      <point x="63" y="196" type="qcurve"/>
    </contour>
  </outline>
</glyph>
<glyph name="pa-hira" format="2">
  <advance width="256" height="256"/>
  <unicode hex="3071"/>
  <note>
uni3071
</note>
  <outline>
    <contour>
      <point x="201" y="181"/>
      <point x="216" y="165"/>
      <point x="238" y="165"/>
      <point x="254" y="181"/>
      <point x="254" y="192" type="qcurve" smooth="yes"/>
      <point x="254" y="202"/>
      <point x="238" y="218"/>
      <point x="216" y="218"/>
      <point x="201" y="203"/>
    </contour>
    <contour>
      <point x="215" y="204"/>
      <point x="239" y="204"/>
      <point x="239" y="192" type="qcurve" smooth="yes"/>
      <point x="239" y="179"/>
      <point x="215" y="179"/>
      <point x="215" y="192" type="qcurve" smooth="yes"/>
    </contour>
    <contour>
      <point x="223" y="35"/>
      <point x="195" y="47" type="qcurve"/>
      <point x="193" y="133" type="line"/>
      <point x="234" y="136" type="line"/>
      <point x="233" y="159" type="line"/>
      <point x="192" y="156" type="line"/>
      <point x="191" y="199" type="line"/>
      <point x="167" y="199" type="line"/>
      <point x="169" y="155" type="line"/>
      <point x="118" y="153" type="line"/>
      <point x="89" y="154" type="line"/>
      <point x="90" y="131" type="line"/>
      <point x="156" y="132" type="line"/>
      <point x="170" y="132" type="line"/>
      <point x="172" y="55" type="line"/>
      <point x="153" y="60"/>
      <point x="134" y="60" type="qcurve" smooth="yes"/>
      <point x="87" y="60"/>
      <point x="87" y="26" type="qcurve" smooth="yes"/>
      <point x="87" y="10"/>
      <point x="115" y="-12"/>
      <point x="139" y="-12" type="qcurve" smooth="yes"/>
      <point x="187" y="-12"/>
      <point x="193" y="22" type="qcurve"/>
      <point x="233" y="-3" type="line"/>
      <point x="246" y="17" type="line"/>
    </contour>
    <contour>
      <point x="171" y="20"/>
      <point x="158" y="11"/>
      <point x="139" y="11" type="qcurve" smooth="yes"/>
      <point x="110" y="11"/>
      <point x="110" y="26" type="qcurve" smooth="yes"/>
      <point x="110" y="39"/>
      <point x="133" y="39" type="qcurve" smooth="yes"/>
      <point x="150" y="39"/>
      <point x="172" y="31" type="qcurve"/>
    </contour>
    <contour>
      <point x="40" y="197" type="line"/>
      <point x="34" y="137"/>
      <point x="34" y="60" type="qcurve" smooth="yes"/>
      <point x="36" y="-13" type="line"/>
      <point x="58" y="-11" type="line"/>
      <point x="57" y="57" type="line" smooth="yes"/>
      <point x="57" y="148"/>
      <point x="63" y="196" type="qcurve"/>
    </contour>
  </outline>
</glyph>
